<?xml version="1.0" encoding="UTF-8" standalone="no"?>
<!DOCTYPE svg PUBLIC "-//W3C//DTD SVG 1.1//EN"
 "http://www.w3.org/Graphics/SVG/1.1/DTD/svg11.dtd">
<!-- Generated by graphviz version 2.47.3 (20210619.1520)
 -->
<!-- Title: dependencies Pages: 1 -->
<svg width="794pt" height="174pt"
 viewBox="0.00 0.00 794.00 173.80" xmlns="http://www.w3.org/2000/svg" xmlns:xlink="http://www.w3.org/1999/xlink">
<g id="graph0" class="graph" transform="scale(1 1) rotate(0) translate(4 169.8)">
<title>dependencies</title>
<polygon fill="white" stroke="transparent" points="-4,4 -4,-169.8 790,-169.8 790,4 -4,4"/>
<text text-anchor="middle" x="393" y="-8.2" font-family="sans-serif" font-size="14.00">dependencies</text>
<g id="clust1" class="cluster">
<title>cluster_AppModule</title>
<polygon fill="none" stroke="black" stroke-dasharray="1,5" points="8,-32.8 8,-157.8 778,-157.8 778,-32.8 8,-32.8"/>
</g>
<g id="clust3" class="cluster">
<title>cluster_AppModule_imports</title>
<polygon fill="none" stroke="black" points="154,-40.8 154,-92.8 770,-92.8 770,-40.8 154,-40.8"/>
</g>
<g id="clust6" class="cluster">
<title>cluster_AppModule_providers</title>
<polygon fill="none" stroke="black" points="16,-40.8 16,-92.8 146,-92.8 146,-40.8 16,-40.8"/>
</g>
<!-- AuditModule -->
<g id="node1" class="node">
<title>AuditModule</title>
<polygon fill="#8dd3c7" stroke="black" points="761.94,-84.8 758.94,-88.8 737.94,-88.8 734.94,-84.8 670.06,-84.8 670.06,-48.8 761.94,-48.8 761.94,-84.8"/>
<text text-anchor="middle" x="716" y="-62.6" font-family="Times,serif" font-size="14.00">AuditModule</text>
</g>
<!-- AppModule -->
<g id="node6" class="node">
<title>AppModule</title>
<polygon fill="#8dd3c7" stroke="black" points="442.66,-149.8 439.66,-153.8 418.66,-153.8 415.66,-149.8 359.34,-149.8 359.34,-113.8 442.66,-113.8 442.66,-149.8"/>
<text text-anchor="middle" x="401" y="-127.6" font-family="Times,serif" font-size="14.00">AppModule</text>
</g>
<!-- AuditModule&#45;&gt;AppModule -->
<g id="edge1" class="edge">
<title>AuditModule&#45;&gt;AppModule</title>
<path fill="none" stroke="black" d="M716,-85.08C716,-106.12 716,-137.8 716,-137.8 716,-137.8 452.83,-137.8 452.83,-137.8"/>
<polygon fill="black" stroke="black" points="452.83,-134.3 442.83,-137.8 452.83,-141.3 452.83,-134.3"/>
</g>
<!-- DynamodbModule -->
<g id="node2" class="node">
<title>DynamodbModule</title>
<polygon fill="#8dd3c7" stroke="black" points="651.76,-84.8 648.76,-88.8 627.76,-88.8 624.76,-84.8 530.24,-84.8 530.24,-48.8 651.76,-48.8 651.76,-84.8"/>
<text text-anchor="middle" x="591" y="-62.6" font-family="Times,serif" font-size="14.00">DynamodbModule</text>
</g>
<!-- DynamodbModule&#45;&gt;AppModule -->
<g id="edge2" class="edge">
<title>DynamodbModule&#45;&gt;AppModule</title>
<path fill="none" stroke="black" d="M591,-84.82C591,-102.17 591,-125.8 591,-125.8 591,-125.8 452.7,-125.8 452.7,-125.8"/>
<polygon fill="black" stroke="black" points="452.7,-122.3 442.7,-125.8 452.7,-129.3 452.7,-122.3"/>
</g>
<!-- PatientModule -->
<g id="node3" class="node">
<title>PatientModule</title>
<polygon fill="#8dd3c7" stroke="black" points="512.43,-84.8 509.43,-88.8 488.43,-88.8 485.43,-84.8 413.57,-84.8 413.57,-48.8 512.43,-48.8 512.43,-84.8"/>
<text text-anchor="middle" x="463" y="-62.6" font-family="Times,serif" font-size="14.00">PatientModule</text>
</g>
<!-- PatientModule&#45;&gt;AppModule -->
<g id="edge3" class="edge">
<title>PatientModule&#45;&gt;AppModule</title>
<path fill="none" stroke="black" d="M428.31,-84.91C428.31,-84.91 428.31,-103.79 428.31,-103.79"/>
<polygon fill="black" stroke="black" points="424.81,-103.79 428.31,-113.79 431.81,-103.79 424.81,-103.79"/>
</g>
<!-- ResourceModule -->
<g id="node4" class="node">
<title>ResourceModule</title>
<polygon fill="#8dd3c7" stroke="black" points="395.64,-84.8 392.64,-88.8 371.64,-88.8 368.64,-84.8 284.36,-84.8 284.36,-48.8 395.64,-48.8 395.64,-84.8"/>
<text text-anchor="middle" x="340" y="-62.6" font-family="Times,serif" font-size="14.00">ResourceModule</text>
</g>
<!-- ResourceModule&#45;&gt;AppModule -->
<g id="edge4" class="edge">
<title>ResourceModule&#45;&gt;AppModule</title>
<path fill="none" stroke="black" d="M377.49,-84.91C377.49,-84.91 377.49,-103.79 377.49,-103.79"/>
<polygon fill="black" stroke="black" points="373.99,-103.79 377.49,-113.79 380.99,-103.79 373.99,-103.79"/>
</g>
<!-- SchemaModule -->
<g id="node5" class="node">
<title>SchemaModule</title>
<polygon fill="#8dd3c7" stroke="black" points="265.87,-84.8 262.87,-88.8 241.87,-88.8 238.87,-84.8 162.13,-84.8 162.13,-48.8 265.87,-48.8 265.87,-84.8"/>
<text text-anchor="middle" x="214" y="-62.6" font-family="Times,serif" font-size="14.00">SchemaModule</text>
</g>
<!-- SchemaModule&#45;&gt;AppModule -->
<g id="edge5" class="edge">
<title>SchemaModule&#45;&gt;AppModule</title>
<path fill="none" stroke="black" d="M214,-84.82C214,-102.17 214,-125.8 214,-125.8 214,-125.8 349.03,-125.8 349.03,-125.8"/>
<polygon fill="black" stroke="black" points="349.03,-129.3 359.03,-125.8 349.03,-122.3 349.03,-129.3"/>
</g>
<!-- AppService -->
<g id="node7" class="node">
<title>AppService</title>
<ellipse fill="#fdb462" stroke="black" cx="81" cy="-66.8" rx="56.74" ry="18"/>
<text text-anchor="middle" x="81" y="-62.6" font-family="Times,serif" font-size="14.00">AppService</text>
</g>
<!-- AppService&#45;&gt;AppModule -->
<g id="edge6" class="edge">
<title>AppService&#45;&gt;AppModule</title>
<path fill="none" stroke="black" d="M81,-85.08C81,-106.12 81,-137.8 81,-137.8 81,-137.8 349.17,-137.8 349.17,-137.8"/>
<polygon fill="black" stroke="black" points="349.17,-141.3 359.17,-137.8 349.17,-134.3 349.17,-141.3"/>
</g>
</g>
</svg>
