<?xml version="1.0" encoding="utf-8"?>
<!-- Generator: Adobe Illustrator 23.0.1, SVG Export Plug-In . SVG Version: 6.00 Build 0)  -->
<svg version="1.1" id="Layer_21" xmlns="http://www.w3.org/2000/svg" xmlns:xlink="http://www.w3.org/1999/xlink" x="0px" y="0px"
	 viewBox="0 0 841.9 595.3" enable-background="new 0 0 841.9 595.3" xml:space="preserve">
<g>
	<defs>
		<rect id="SVGID_1_" width="841.9" height="595.3"/>
	</defs>
	<clipPath id="SVGID_2_">
		<use xlink:href="#SVGID_1_"  overflow="visible"/>
	</clipPath>
	<g clip-path="url(#SVGID_2_)">
		<path fill="#F0C6B7" d="M301.8,356.5c-4.3-7.2-14-15.5-22.1-8.1c-4.6,4.1-5.3,15.6-1.6,21.3c0.9,11,0,22.1-2.4,32.8
			c-1.5,6.8,4.6,15.6,12.3,13c1.2,1.4,2.8,2.4,4.7,3c4,1.1,9.6-0.6,11.4-4.7C312.5,395.5,312.3,374.2,301.8,356.5z"/>
		<path fill="none" stroke="#F2A78A" stroke-width="1.1416" stroke-miterlimit="10" d="M546.8,351.9c-1.4-3.6-5.2-6-9.1-6.2
			s-7.7,1.5-10.6,4.1c-2.9,2.6-5,5.9-6.7,9.4c-7.7,15.3-8.6,33.7-2.6,49.7"/>
		<path fill="none" stroke="#F2A78A" stroke-width="1.1416" stroke-miterlimit="10" d="M277.2,351.9c1.4-3.6,5.2-6,9.1-6.2
			s7.7,1.5,10.6,4.1c2.9,2.6,5,5.9,6.7,9.4c7.7,15.3,8.6,33.7,2.6,49.7"/>
	</g>
	<path clip-path="url(#SVGID_2_)" fill="#F2CDBF" d="M763.9,564.9c-3.3-3.6-6.4-6.9-8.9-9.5c-22.6-24.1-52.1-41.9-84.4-49.3
		c-25.1-5.7-47.7-6.5-73-11.1c-25.4-4.6-54.9-14.2-69.7-35.2c-8.1-11.5-14.9-27.1-11.8-41c3.9-17.2,7.7-34.9,1-52
		c-5.3-13.3-16.7-21.3-26.7-30.8c-11.4-10.8-27.2-16.4-42.8-17.7c-29.2-2.5-58.1,9.2-81.8,26.4c-17.7,12.9-34,30.9-35.4,52.7
		c-1.2,18,8,35.8,5.7,53.7c-2.6,20-19.4,35.8-38.1,43.4s-39.3,8.6-59.4,10c-31.8,2.3-63.7,6-93.9,16.2
		c-30.2,10.2-58.7,27.3-78.2,52.4c-8.8,11.4-13.9,23.2-7.7,35.6c5.9,11.9,13.5,17.2,27.1,19.1c16.1,2.2,32.4,3.7,48.6,5.2
		c32,2.9,64.2,3.8,96.4,4.4c64.4,1.3,128.8-0.6,193.2-1.4c65-0.7,130.1-0.5,195,4.3c31.6,2.3,63.4,6.9,94.9,1.5
		c13.3-2.3,26.3-6.5,38.1-13c10.8-5.9,32.8-19,30.9-33.5C781.4,585.7,772.2,574.1,763.9,564.9z"/>
	<path clip-path="url(#SVGID_2_)" fill="#F2CDBF" d="M576.4,165.7c4.9-33-1.4-69.8-15.6-99.9c-16.1-34.2-47.3-64-83.9-74.9
		c-21.8-6.5-44.9-7.5-67.6-6c-25.7,1.8-51.6,6.9-74.5,18.7c-32.7,16.8-51.4,45.1-61.8,79.5c-8.2,27.2-9.7,58.8-8.2,87.1
		c-0.1,14.3,1.9,28.6,4,42.7c4.8,33,8.3,66.3,14.1,99.2c3.2,18.3,10.3,35.8,19,52.2c7.5,14.1,14.7,29.9,24.1,42.6
		c18.7,25.3,45.4,51.3,77.6,57.2c42.7,7.8,85.9-17.5,112-52.3c9.4-12.6,18.3-25.7,24.6-40.2c6.4-14.6,12.6-30.2,16-45.9
		c2.3-10.7,3.5-21.6,5.9-32.3c1.2-5.4,2.7-10.7,4.8-15.8c2-4.8,5.4-9.2,7.1-14c8.4-24,8.4-51.1,11-76.3c0.4-4,0.8-8.1,0-12.1
		c-0.5-2.2-1.6-4.6-3.8-5.3c-2.2-0.6-4.5,0.9-5.5,2.8c-1.1,2-1.2,4.3-1.3,6.5C574.8,175,575.7,170.3,576.4,165.7z"/>
	<path clip-path="url(#SVGID_2_)" fill="#F2C1AF" d="M498.1,410.6c-4.8,7-9,14.2-12.5,21.9c-4,8.8-8.8,12.3-17.1,17.7
		c-15.8,10.3-34.6,16.6-53.5,15.9c-36.4-1.2-60.2-30.4-75.6-60.4c-8.8-17.1-21-32.1-29.2-49.8c-8.4-17.9-14.1-37-17.7-56.4
		c-3.4-17.9-4.7-35.8-5.8-54c-1.1-17.4-7.2-34.6-9.1-52.2c-8.3,20.2-7.4,43-4.6,64.7c5.2,40.1,16.5,79.3,33.3,116
		c4.5,9.7,11.2,18.3,17.2,27.1c6.9,10.1,13.8,20.2,20.7,30.2c4.7,6.9,9.5,13.9,14.5,20.6c4.6,6.2,9.9,15.1,16.3,19.4
		c12.8,8.6,29.7,14.1,45.1,15.1c20.7,1.3,41.8-5.3,58.4-17.7c18.3-13.6,29.4-35.3,40.7-54.6c7.2-12.2,12.4-25,18.5-37.7
		c4.2-8.7,9-15.2,11.2-24.9c5.9-26.1,12.4-51.8,21.7-77c4.6-12.5,9.7-24.9,12.2-38c3.7-19.5,1.4-39.7-3.6-58.9
		c-3.5,17.7-6.9,35.3-10.4,53c-0.6,3-1.8,6.6-4.8,7.2c-9.1,1.7-8.4-32.6-8.5-38.1c-0.4-15.8,0.3-32.1-5.3-47.1
		c-8-21.5-29.4-37.4-52.3-39c-26.9-1.8-52.2,14.4-79.2,14.5c-15.3,0.1-30.1-5-45.3-6.9c-21.1-2.7-42.8,1.1-62,10.2
		c-9.6,4.5-18.5,10.4-26.4,17.5c-5.9,5.3-15.1,15.4-17.2,23.1c-1.3,4.8,1.7,11.1,6.7,11.1c3.8,0,6.6-3.2,8.9-6.2
		c12.7-16.6,26.4-34.8,46.6-39.8c16-4,32.8,1.3,48.3,6.8c15.6,5.6,31.8,11.6,48.2,9.2c13.8-2,26-9.9,38.9-15.3
		c20.9-8.7,45-5.3,61.3,10.9c13,12.9,19.9,31.6,18.4,49.9c-1.3,15.3-8.3,29.3-4.4,44.6c3.8,14.6,6.8,31.6,8,46.7
		c2.1,25.6-3.6,51.9-16.6,74.1c-9.3,15.9-21.8,29.4-32.5,44.4C499.1,409.2,498.6,409.9,498.1,410.6z"/>
	<path clip-path="url(#SVGID_2_)" fill="#F0C6B7" d="M545.5,111.3c-1.7-3.5-2.9-7.2-3.3-11.1c-0.5-5.2,0.4-10.5-0.6-15.6
		c-1-5.1-5.1-10.2-10.3-9.9c-5.7,0.4-9.6,7-15.3,7.3c-9.8,0.4-10.7-15.7-19.1-20.7c-8-4.7-17.7,2.8-23,10.5s-11.1,17.1-20.4,17.5
		c-17,0.7-22.2-28.7-39.2-29.4c-9.7-0.4-16.5,9-22,17.1c-5.5,8-14,16.7-23.3,14c-11.8-3.4-13.6-22-25.4-25.5
		c-8.7-2.6-17.3,5-21.6,13c-4.3,8-6.9,17.4-13.7,23.4c-7.2,6.4-17.5,7.4-26.4,11.1c-18.8,7.6-18.2,38.9-17,56.4
		c0.4,5.2,4.1,9.6,9.6,9.6c4.8,0,10-4.4,9.6-9.6c-0.6-7.2-0.2-14.3,1.3-21.1c10.1-12.8,21.8-24.3,38.2-28.4c5.7-1.4,11.5-2,17.4-2
		c2.3,0.9,5,1,7.4,0.3c13.5,1,27,4.2,40,6.3c11.5,1.8,23.1,3.3,34.7,2.4c25.9-2,50.2-13,76.8-8.3c34,6,41,40.5,54,67.6
		c7.7,16.1,16.6-7.7,17.8-13.3c2.9-13.6,2.3-23.7-6.7-35.5C558.3,128.8,550,120.8,545.5,111.3z"/>
	<path clip-path="url(#SVGID_2_)" fill="#726658" d="M262.9,174.8c0,8.6,0.8,17.1,3.7,25.1c1.5-10.9,4.2-21.7,7.8-32.2
		c8.3-23.9,24.4-47.6,48.9-53.9c26.9-6.9,54.3,9.2,82.1,9.2c16.8,0,33-6,49.2-10.5c16.2-4.5,33.8-7.6,49.7-2
		c22.4,8,35.8,30.3,41.5,52.3c3.1,11.8,5.1,23.8,7.5,35.8c0.3,1.7,0.7,3.4,1.6,4.8c1.8,2.9,5,3,7.7,1.3c2.6-1.6,3.7-5,4.7-7.8
		c2.5-7.4,4.5-14.9,6-22.5c5.9-29.6,4.6-61.3-5.1-89.9c-1.7-5-7.5-13.6-7.5-18.7c-16.1-34.2-47.3-64-83.9-74.9
		c-21.8-6.5-44.9-7.5-67.6-6c-25.7,1.8-51.6,6.9-74.5,18.7c-32.7,16.8-51.4,45.1-61.8,79.5c-5.9,19.7-8.3,40.5-8.7,61.1
		C264.1,154.1,262.9,164.5,262.9,174.8z"/>
	<path clip-path="url(#SVGID_2_)" fill="#756B5F" d="M541.3,99.4c-7.8-0.9-16.1,0.7-22.8-3.1c-9.9-5.5-11.9-19.9-21.7-25.5
		c-8.5-4.8-19.1-1.2-27.7,3.4c-8.6,4.6-17.5,10.3-27.2,9.3c-10.4-1.1-18.3-9.5-27.8-13.9c-11.5-5.4-25.6-4.5-36.3,2.3
		c-6.1,3.9-11,9.5-16.9,13.8s-13.5,7.3-20.4,5c-5-1.7-8.7-5.8-13.6-7.9c-9.6-4.2-20.8,0.6-29,7c-17.9,14-25,34.4-31.1,55.4
		c-2.8,9.5-3,19.8-4.3,29.7c-0.5,4.3-0.9,8.6-0.6,12.9c0.2,2.6,3,9.5,2.2,11.6c5.7-16.5,14.4-32.2,26.7-44.5
		c12.3-12.4,28.4-21.4,45.6-23.8c26.9-3.8,53.8,8.1,80.9,6c18-1.4,35.1-9,53-10.8c15.8-1.6,32.2,1.5,46,9.6
		c12.8,7.5,23,19.6,28.8,33.2c4.8,11.4,8,20.7,7.2,33.4c-0.3,4.9,2.4,31.9,10.5,18.7c10.2-16.6,9.5-37.5,9.3-56.3
		c-0.2-18.4,4.1-31.8-6.5-48.5c-5-7.8-12.5-14.5-21.6-16.4C543.1,99.6,542.2,99.5,541.3,99.4z"/>
	<path clip-path="url(#SVGID_2_)" fill="#F0C6B7" d="M542.7,240.1c-0.6-0.4-1.4-0.7-2.1-1c-3.3-1.1-7,0.6-10.2,1.7
		c-5.4,2-9.9,3.6-15.8,3.6c-5.3,0-10.5-0.6-15.8,0.1c-11.7,1.4-20.6,9.3-31.2,13.6c-10.4,4.3-22.6,7.3-33.5,2.8
		c-2.2-0.9-5-2.1-6.9-0.5c-1.5,1.2-1.4,3.5-1.1,5.3c1.2,6.7,4.7,12.9,9.6,17.6c5.1,4.8,9.5,4.8,15.6,6.7c8.3,2.6,26.7,13.8,34.1,3.9
		c5.9-7.9-16.6-18.9,1.8-29.3c14.2-8,51,1.6,58.5-15.9C547.3,245.3,545.6,242,542.7,240.1z"/>
	<path clip-path="url(#SVGID_2_)" fill="#F0C6B7" d="M390.5,263.9c-2.1,0-4.1-1.6-6.2-2.5c-4.4-2-9.6-0.6-14.4-0.7
		c-5.4-0.1-10.7-2.1-14.8-5.5c-3.1-2.6-5.5-6-8.9-8.1c-3.7-2.3-8.2-2.9-12.5-3.4c-8.7-1.1-17.3-2.1-26-3.2c-1-0.1-2.1-0.3-3.1,0.1
		c-1.9,0.7-2.9,3-2.6,5c0.4,3.5,2.9,8.8,5.2,11.3c2.8,3,6.7,4.9,10.5,6.6c8.1,3.8,16.2,7.5,24.2,11.3c3.8,1.8,7.8,3.7,10.5,6.9
		s3.6,8.4,1,11.7c-2.2,2.8-6.1,3.5-9.5,4.8c-3.4,1.2-6.9,4.2-6.2,7.7c0.9,4.3,6.8,5,11.1,4.1c6.8-1.3,13-4.2,19.1-7.3
		c4.9-2.5,10-3.7,14.5-6.9c9.5-6.9,16.4-17.6,18.9-29c0.3-1.5,0.6-3,0.1-4.4c-0.8-2.4-3.6-3.1-5.6-1.7c-1.5,1-2.6,2.6-4.3,3
		C391.1,263.9,390.8,263.9,390.5,263.9z"/>
	<path clip-path="url(#SVGID_2_)" fill="#F0C6B7" d="M439.1,358.4c0.3,1.3,0.5,2.6,0.5,3.9c0.4,8.4-9.9,11.3-14.8,16.4
		c-5.1,5.4-11.7,8.1-18.4,3.3c-3.2-2.3-6.1-5.2-9.6-7.2c-5.8-3.4-10.1-6.4-9.8-14c0.1-1.6,0.4-3.3,0.1-4.9c-0.3-1.6-1.6-3.2-3.3-3.1
		c-1.6,0.1-2.7,1.6-3.4,3.1c-2.6,5.5-2.8,12.1-0.7,17.9c2.1,5.4,6.4,10.7,12.1,12.3c4.9,1.4,10.9-0.1,14.4,4.7
		c2.5,3.4,1.4,8.3,3.6,11.8c2.6,4.3,10,4.4,12.7,0.1c1.3-2.1,1.2-4.7,2.6-6.7c1.4-1.9,2.6-4.4,4.2-6.1c1.9-1.9,4.8-2.2,7.4-2.8
		c5-1.2,9.6-4.3,12.5-8.6c2.9-4.3,4.1-9.7,3.2-14.8c-0.7-4-2.7-7.7-4.6-11.3c-0.7-1.4-1.5-2.7-2.6-3.8c-1.1-1-2.7-1.7-4.2-1.3
		c-2.5,0.7-2.8,4.7-2.7,6.8C438.5,355.5,438.8,357,439.1,358.4z"/>
	<path clip-path="url(#SVGID_2_)" fill="#F2C1AF" d="M524,463.3c-8.7-14.1-10-30.1-7.6-45.6c0.6-4-3.9-5.8-6.3-2.7
		c-4.7,6.1-8.9,12.4-13.7,18.4c-0.3,0.3-0.5,0.6-0.8,0.9c-1.6,1.9-3.2,3.8-5,5.5c-7.3,7.4-15.6,13.8-24.5,19.2
		c-3.4,2-4.3,5.6-3.8,9.2c4.4,28,5.4,56.5,2.8,84.7c-0.7,7.4,10.1,11.7,14.9,6.2c2-2.3,3.9-4.8,5.6-7.3c3,6.4,13,7.9,18.2,0.9
		c6.7-9.1,12.8-18.5,18.4-28.3c5.6-10.1,10.6-20.7,11.9-32.3c0.6-5.8,0.4-12.1-2.4-17.3c-1.9-3.4-4.4-6.5-6.5-9.7
		C524.8,464.5,524.4,463.9,524,463.3z"/>
	<path clip-path="url(#SVGID_2_)" fill="#F2C1AF" d="M619.8,502.5c-1.7-3.8-5.3-5.1-9.2-4.5c-11.6,1.8-23.8,4.2-35.1,8.5
		c-5.6,0.3-11.2-0.1-16.7-1.4c-13.8-3.1-26-11.1-32.4-23.9c-4.6-9.2-20.2-2.8-16.7,7.1c3.5,9.8,9.3,18.6,16.7,25.7
		c-6.2,3.1-12.1,7.2-17.3,11.6c-11.9,10-21.9,24-37.2,29c-12.4,4-7.3,22.8,5.4,19.5c22.5-5.7,36.5-25.2,57.3-34.1
		c12.3-5.2,26.2-7.2,39.1-10.1c6.8-1.5,13.5-3,20.3-4.5c7.6-1.7,15.3-2.6,21.9-7c2.8-1.9,4.2-5.8,3.8-9.1
		C620.6,507,620.7,504.4,619.8,502.5z"/>
	<path clip-path="url(#SVGID_2_)" fill="#F0C6B7" d="M650.4,511.1c1.4-2.9-0.9-6.3-4.2-5.5c-8.1,2-14.4,11.2-17.7,18.3
		c-3.7,8.2-6.9,20.2-2.1,28.4c4.4,7.5,14.4,3.5,15.2-4.1c0.4-3.4-0.7-6.7-1.1-10.1c-0.3-3.1,0.1-6.5,0.8-9.5
		C643.1,521.8,647.4,517.2,650.4,511.1z"/>
	<path clip-path="url(#SVGID_2_)" fill="#F0C6B7" d="M228.5,534.7c-1.5-6.3-4.9-20.1-12.8-21.6c-8.9-1.8-15.7,11.9-16.9,18.8
		c-1.5,8-0.7,16.4-3.1,24.2c-2.3,7.7-7.4,14.1-11.7,20.9c-4.3,6.8-8,14.6-6.8,22.5c1.4,10,13.9,17.4,23.4,13.7
		c9.4-3.6,15.7-13.5,20.1-22.2c4.3-8.6,7.4-17.7,8.8-27.2C230.9,554.1,230.8,544.3,228.5,534.7z"/>
	<path clip-path="url(#SVGID_2_)" fill="#F0C6B7" d="M376.2,516.4c-6.5-3.2-12.2-0.5-18.5,1.9c-6.3,2.5-12.5,2.9-19.2,2.4
		c-14.3-1-28.4-2.6-42.7-2.9c-3.6-0.1-4.3,5.3-0.8,6.3c13.8,3.7,27.7,6.8,41.9,9c6.6,1,13.2,1.6,19.8,0.3c2.8-0.5,5.5-1.4,8.2-2
		c3.2-0.7,6.7-0.6,9.7-1.8C379.5,527.4,382.4,519.4,376.2,516.4z"/>
	<path clip-path="url(#SVGID_2_)" fill="#F0C6B7" d="M432.2,525.5c-3.8-1.7-8.2-2-12.4-1.7c-4.5,0.4-9.1,1.4-12.9,3.9
		c-3.8,2.5-6.8,6.5-7.3,11c-0.7,6.9,5,8.8,7.3,14c2.8,6.3,6.3,12.3,10.2,18c4,5.9,12.9,7.1,17.6,1.1c2.3-3,3-7.9,4.4-11.5
		c1.8-4.6,3.3-9.4,3.6-14.3c0.5-7.6-2.4-15.9-8.9-19.7C433.2,526.1,432.7,525.8,432.2,525.5z"/>
	<path clip-path="url(#SVGID_2_)" fill="#F0C6B7" d="M440.5,425.7c-0.7,0.4-1.4,0.7-2.1,1.1c-16.9,8.3-34.8,0.6-51.2-4.4
		c-1,1.8-0.6,4.1,0.6,5.8c1.2,1.7,2.9,2.9,4.7,4c2.9,1.9,5.9,3.8,8.8,5.8c16.5,10.8,30.5,11.7,47,1.1
		C456.5,433.7,449.1,420.8,440.5,425.7z"/>
	<path clip-path="url(#SVGID_2_)" fill="#F0C6B7" d="M456,401.3c-0.7,0.1-1.4,0.3-2,0.5c-2.8,1-5.2,2.1-8.2,2.7
		c-7.4,1.5-14.9,2.3-22.4,1.9c-4.7-0.2-9.3-0.8-14-1.2c-3.7-0.3-6.2-2.9-10.2-2.8c-3.1,0.1-6,1-9,1.6c-7.9,1.7-16.2,1.5-24-0.6
		c-0.7,1.3,0,3,1.1,3.9c1.1,1,2.6,1.4,4,1.7c15,3.8,30.6,4.6,46.1,5.3c9.9,0.5,19.9,1,29.9,0c6.1-0.6,12.4-1.8,17.6-5.1
		c1.2-0.8,2.4-1.7,3.1-3c0.6-1.3,0.6-3.1-0.5-4c-0.7-0.7-1.8-0.9-2.8-1C461.9,401,458.8,400.8,456,401.3z"/>
	<path clip-path="url(#SVGID_2_)" fill="none" stroke="#F2A78A" stroke-width="1.1416" stroke-miterlimit="10" d="M529.5,242.8
		c-3.7,0.4-6.6,1.6-10.3,1.3c-3.8-0.3-7.6-0.3-11.3-0.1c-7.2,0.4-14.1,1-20.8,3.9c-6.7,2.9-12.8,7.1-19.2,10.4
		c-3.6,1.9-7.4,3.4-11.5,4.1c-4.3,0.7-8.6-0.2-12.9,0.3c-2.1,0.3-3,2.8-1.1,4.1c6.1,4.2,15.6,2.9,22.3,0.8
		c7.9-2.5,14.8-7.5,22.5-10.4c8.2-3.2,16.3-1.8,24.8-2.3c6.5-0.4,15.6-2.8,19.6-8.4C532.6,245,531.2,242.6,529.5,242.8z"/>
	<path clip-path="url(#SVGID_2_)" fill="none" stroke="#F2A78A" stroke-width="1.1416" stroke-miterlimit="10" d="M384.5,260.9
		c-7.6-1.4-15.3-0.2-22.8-2.9c-7.2-2.6-11.6-9.2-18.4-12.4c-5.9-2.8-12.7-3.7-19.2-3.9c-3.6-0.1-7-0.2-10.6-0.5
		c-3.1-0.3-6.4-1.2-9.5-1c-1.2,0.1-2.6,1.3-2,2.7c5.3,13.3,27.3,8.2,37.6,13.9c7.4,4,12.9,8.9,21.4,10.3c7.5,1.3,16.3,1.6,23.6-0.6
		C387,265.7,387.4,261.5,384.5,260.9z"/>
	<path clip-path="url(#SVGID_2_)" fill="none" stroke="#F2A78A" stroke-width="1.1416" stroke-miterlimit="10" d="M387.1,354.3
		c-2.4,2.7-3.7,6.5-3.6,10.1c0.1,3.7,1.7,7.5,4.3,10.1c2.7,2.7,5.7,2.4,8.7,4.2c1.9,1.1,3.2,3,4.7,4.6c7.1,7.3,20.7,8.6,27.7,0.6
		c1.6-1.8,3.1-4.4,5.2-5.8c1.7-1.1,3.3-1,5-1.9c4.1-2.2,7-6.9,7.9-11.5c1-5.3-0.7-11.1-4.4-15.1"/>
	<path clip-path="url(#SVGID_2_)" fill="none" stroke="#F2A78A" stroke-width="1.1416" stroke-miterlimit="10" d="M363.2,402.6
		c33.4,13.2,71.7,13.5,105.3,0.8"/>
	<path clip-path="url(#SVGID_2_)" fill="none" stroke="#F2A78A" stroke-width="1.1416" stroke-miterlimit="10" d="M387.7,404.1
		c6.4-1.2,13.3-2.5,19.3,0.2c3.3,1.4,6.4,4.1,10,4c4.6-0.1,8-4.3,12.4-5.7c6.7-2.2,14.2,2.5,20.8,0.3"/>
	<path clip-path="url(#SVGID_2_)" fill="none" stroke="#F2A78A" stroke-width="1.1416" stroke-miterlimit="10" d="M408.9,392
		c-0.5,2.7-1,5.5,0,8c1.4,3.7,5.9,5.1,9.7,4.1c6-1.6,4.8-7,4.3-13"/>
	<path clip-path="url(#SVGID_2_)" fill="none" stroke="#F2A78A" stroke-width="1.1416" stroke-miterlimit="10" d="M380.6,415.1
		c12.5,10.5,28.5,18.1,44.7,16.4c11.4-1.3,22.2-7.3,29.1-16.4"/>
	<path clip-path="url(#SVGID_2_)" fill="none" stroke="#F2A78A" stroke-width="1.1416" stroke-miterlimit="10" d="M311.7,276.7
		c14.5,10.8,36.2,17.3,53.2,10c6.1-2.6,12.4-5.7,19-4.8"/>
	<path clip-path="url(#SVGID_2_)" fill="none" stroke="#F2A78A" stroke-width="1.1416" stroke-miterlimit="10" d="M446.6,278.9
		c11.6,0.1,17,4.6,25.6,7.4s18.1,4.3,27,2.9c16.4-2.6,19-12,26.3-17.5"/>
	<path clip-path="url(#SVGID_2_)" fill="none" stroke="#F2A78A" stroke-width="1.1416" stroke-miterlimit="10" d="M278.1,261
		c-0.6,50,15.9,99.9,45.2,140.4c26.4,36.4,71.7,77.3,120.4,64.7c24.2-6.3,44.7-22.6,61.3-41.3c38.1-42.9,59-100.6,57.1-157.9"/>
	<path clip-path="url(#SVGID_2_)" fill="none" stroke="#F2A78A" stroke-width="1.1416" stroke-miterlimit="10" d="M260.5,193.9
		c2.8-36.5,2.6-74.4,13.1-109.6c10.6-35.7,30.1-65.7,64.3-82.6c27.4-13.5,58.6-17.4,89.1-16.8c20.2,0.4,40.6,2.7,59.5,9.9
		c32.2,12.2,59.8,41.3,74.3,72c23.2,48.9,17.2,96.5,5.2,147.2"/>
	<path clip-path="url(#SVGID_2_)" fill="none" stroke="#F2A78A" stroke-width="1.1416" stroke-miterlimit="10" d="M273.1,184.9
		c9.3-31.3,40.3-54.8,72.9-55.1c21.8-0.3,43,8.7,64.7,7.8c22.8-0.9,45.5-11.2,68.3-11.8c19.2-0.5,37.4,5.9,51,19.5
		c8.3,8.3,14.8,19.4,18.6,30.6c4.3,12.9,3.5,29.1,4.8,42.6"/>
	<path clip-path="url(#SVGID_2_)" fill="none" stroke="#F2A78A" stroke-width="1.1416" stroke-miterlimit="10" d="M574.7,173.8
		c0.8-1.1,1.6-2.2,2.6-3c1-0.9,2.4-1.5,3.7-1.4c4.4,0.3,4.4,6.3,4.2,9.4c-0.9,12.1-1.9,24.3-2.8,36.4c-1.8,23-4,47.4-17.8,65.8"/>
	<path clip-path="url(#SVGID_2_)" fill="none" stroke="#F2A78A" stroke-width="1.1416" stroke-miterlimit="10" d="M331.9,413.6
		c6.9,25.2,6.9,58.7-17.7,74.4c-13,8.3-28.7,10.9-44,12.9c-39.5,5.1-79.7,7.4-117.9,18.8c-38.2,11.5-75.1,33.8-93.9,68.9"/>
	<path clip-path="url(#SVGID_2_)" fill="none" stroke="#F2A78A" stroke-width="1.1416" stroke-miterlimit="10" d="M517.5,411.7
		c-6.3,20.6,3.3,43.6,19.3,57.9c16,14.3,37.4,21.2,58.6,25s42.8,4.8,63.8,9.4c49.9,10.8,95.1,42.1,122.8,85"/>
	
		<radialGradient id="SVGID_3_" cx="-262.5352" cy="966.5432" r="27.5974" gradientTransform="matrix(-2.5505 0 -0.105 -2.636 -287.5298 2765.4705)" gradientUnits="userSpaceOnUse">
		<stop  offset="3.513514e-02" style="stop-color:#ED4C68;stop-opacity:0.8"/>
		<stop  offset="0.3459" style="stop-color:#EF623B;stop-opacity:0.4"/>
		<stop  offset="0.4137" style="stop-color:#F06843;stop-opacity:0.3586"/>
		<stop  offset="0.517" style="stop-color:#F17958;stop-opacity:0.2954"/>
		<stop  offset="0.6429" style="stop-color:#F4957A;stop-opacity:0.2184"/>
		<stop  offset="0.7867" style="stop-color:#F8BBAB;stop-opacity:0.1304"/>
		<stop  offset="0.9436" style="stop-color:#FDECE7;stop-opacity:3.451014e-02"/>
		<stop  offset="1" style="stop-color:#FFFFFF;stop-opacity:0"/>
	</radialGradient>
	<path opacity="0.67" clip-path="url(#SVGID_2_)" fill="url(#SVGID_3_)" d="M274.3,309c-43.9-3-76.7-46.4-73.2-96.9
		c3.5-50.5,41.9-88.9,85.8-85.9c43.9,3,76.7,46.4,73.2,96.9C356.7,273.6,318.3,312.1,274.3,309z"/>
	
		<radialGradient id="SVGID_4_" cx="-271.6494" cy="861.4937" r="27.5974" gradientTransform="matrix(-2.5505 0 -0.105 -2.636 -52.8633 2488.5581)" gradientUnits="userSpaceOnUse">
		<stop  offset="3.513514e-02" style="stop-color:#ED4C68;stop-opacity:0.8"/>
		<stop  offset="0.3459" style="stop-color:#EF623B;stop-opacity:0.4"/>
		<stop  offset="0.4137" style="stop-color:#F06843;stop-opacity:0.3586"/>
		<stop  offset="0.517" style="stop-color:#F17958;stop-opacity:0.2954"/>
		<stop  offset="0.6429" style="stop-color:#F4957A;stop-opacity:0.2184"/>
		<stop  offset="0.7867" style="stop-color:#F8BBAB;stop-opacity:0.1304"/>
		<stop  offset="0.9436" style="stop-color:#FDECE7;stop-opacity:3.451014e-02"/>
		<stop  offset="1" style="stop-color:#FFFFFF;stop-opacity:0"/>
	</radialGradient>
	<path opacity="0.67" clip-path="url(#SVGID_2_)" fill="url(#SVGID_4_)" d="M543.3,309c-43.9-3-76.7-46.4-73.2-96.9
		s41.9-88.9,85.8-85.9c43.9,3,76.7,46.4,73.2,96.9S587.2,312.1,543.3,309z"/>
	<path clip-path="url(#SVGID_2_)" fill="#F2CDBF" d="M321.8,520.6c2.1-10,4.5-20.1,4.9-30.4c0.7-21.2-8.8-41.9-15.3-61.6
		c-13.5-40.5-27.8-81.5-65.4-106.1c-6.2-4-16.4-9.2-18.4-17.1c-1.8-7.4,3.1-20.5,5.2-27.7c6-20.8,15.1-40.9,26.8-59.1
		c3.8-5.8,7.1-12.5,6.4-19.4c-0.7-6.9-6.9-13.6-13.8-12.4c-4.5,0.8-7.5,7.6-10.2,11c-3.5,4.4-7.2,8.7-11,12.8
		c-3.1,3.3-6.7,6.4-9.4,10c-3.1,4.1-5.7,8.7-8.4,13.1c-7.5,12.4-17.9,27.9-19.8,42.5c-3.7,28.5,1,57.2,0.2,85.8
		c-0.4,12.5,4.7,22.8,9,34.1c8.5,22,14.6,45.6,19,68.8c4.2,22.8,5.9,46.5,3.8,69.6c-2.2,23.4-7.9,47.1-13.5,69.9
		c-0.3,1.4-0.2,2.6,0.3,3.6c-1.9,4.3-1.3,9.6,3.8,12c18.5,8.6,38.7,12.5,59,13c9.9,0.3,19.8-0.5,29.5-2
		c21.1-3.2,21.9-23.9,19.1-40.7C319.8,567.6,316.9,543.5,321.8,520.6z"/>
	<path clip-path="url(#SVGID_2_)" fill="#F2CDBF" d="M272.2,178.5c-0.8,0.1-1.7,0.3-2.6,0.8c-1.4,0.7-2.4,1.8-3.5,2.9
		c-11.8,12.6-22.6,25.4-31.6,40.3c-4.3,7.1-8.2,14.5-11.6,22.1c-1.7,3.9-3.3,7.9-4.8,11.9c-1.3,3.8-2,8.2-3.7,11.7
		c-4,14.6-5.8,30.1-4.7,45.3c1.1,14.6,3.5,34.2,14.8,44.5c4.9,4.4,15.2,1.8,14.4-6c-0.3-2.8-0.5-5.4-1.2-8.1c4-1.2,7-5.1,5.9-10.6
		c-2.9-14.2-5.3-29.2-2.4-43.7c2.7-13.7,7.9-26.7,14.4-39.1c4-7.6,8.6-15.9,13.5-22.9c5.1-7.2,12-12.3,13.9-21.3
		c1.6-7.5,0.3-15.6-2.9-22.4C278.4,180.8,275.6,178.2,272.2,178.5z"/>
	<path clip-path="url(#SVGID_2_)" fill="#F2CDBF" d="M260.5,275.4c0.3-0.8,0.6-1.5,0.9-2.2c2.5-5.4,7-9.7,9-15.3
		c1.5-4.1,1.5-8.5,3.1-12.6c1.7-4.5,5-8.1,7.3-12.2c2.4-4.4,3.4-9.5,2.4-14.5c-0.5-2.8-1.8-5.5-3.9-7.4c-2.8-2.5-7.4-3.3-10.8-1.7
		c-5.3,2.5-8.5,7.3-12,11.9c-3.4,4.5-6.4,9.3-9,14.2c-5,9.3-8.8,19.4-11.6,29.6c-5.7,20.8-7.4,43.2-5.7,64.7
		c0.9,10.9,3.6,22.6,13.5,28.8c11.9,7.5,25.8-3.5,21.4-16.9c-1.1-3.3-2.9-7.4-5.5-9.8c-2.1-1.9-5.3-3.1-6.2-6c-1-3.1,1.3-6.2,2.8-9
		C262.9,304.6,256.1,288.6,260.5,275.4z"/>
	<path clip-path="url(#SVGID_2_)" fill="#F0C6B7" d="M321.1,522.5c3.4-14,7.2-26.3,5.1-41.2c-3.4-24.4-9.3-48.1-19-70.8
		c-5.3-12.4-11.8-24.1-20-34.8c-8.6-11.3-18.8-20-30.1-28.6c-5.2-4-10.2-8.1-14.7-13c-4.7-5.2-6.9-11.5-8.8-18.1
		c-3-10.5-3.1-24.9-1.5-35.6c1.5-9.8,4.6-17.9-4.1-26c0.7,12.8-9.7,25.2-22.4,26.8c5.8,18.8,6.4,39.2,1.9,58.4
		c-0.8,3.4-1.7,7.1-0.3,10.3c1.5,3.5,5.4,5.2,8.8,6.8c21.7,9.9,41.2,24.4,57.1,42.1c18.8,21,24.5,42.4,29.5,69.7
		c2.5,13.4,13.4,42.4-4,48c-5.2,1.7-11.4,3.3-13.1,8.5c-1.1,3.4,0.3,7.2,1.6,10.5c9.8,25.4,12,53.7,6.3,80.3
		c-1,4.5-2.1,9.4-0.3,13.7c6.8,15.3,29.4,3.2,30.5-9.7c2.5-31.4-10.5-62.1-3.4-93.4C320.5,525.1,320.8,523.8,321.1,522.5z"/>
	<path clip-path="url(#SVGID_2_)" fill="#F0C6B7" d="M261.2,190.9c-3.1-2.8-7.9-4.3-8,1.9c-0.2,5.5-0.5,10.2-3.4,15.1
		c-2.8,4.7-6.5,7.9-10.9,10.9c-6.1,4.1-7.2,8.1-7.1,15.1c0.1,10.9-3.5,20.5-5.9,30.9c-2.6,11-3.4,22.5-2.4,33.8
		c0.6,6.5,1.8,13.1,4.7,19c3.6,7.5,9.5,13.5,15.3,19.4c17.5,17.9,35,35.7,52.6,53.6c-7-22.7-20.5-43.4-38.3-59
		c-5.8-5.1-12.2-9.8-16.3-16.3c-3.2-5-4.9-10.9-5.7-16.7c-3.6-24.5,6.4-49.1,19.6-70.2c4-6.3,8.3-12.6,9.9-19.9
		c1.1-4.9,0.8-10.4-1.7-14.9C263,192.7,262.2,191.8,261.2,190.9z"/>
	<path clip-path="url(#SVGID_2_)" fill="#F0C6B7" d="M282.2,191.2c-0.1-0.2-0.2-0.5-0.3-0.7c-0.6-1.5-1.4-3.1-2.9-3.7
		c-2.6-1.1-5.5,1.6-6,4.5c-0.5,2.8,0.5,5.7,0.7,8.6c0.4,5-1.6,9.9-4.3,14.1c-2.7,4.2-6.2,7.9-9.2,11.9c-9.6,12.6-16,27.1-22.8,41.4
		c-0.7,1.5-1.5,3.1-1.6,4.8s0.6,3.5,2,4.3c2.3,1.2,5.1-0.5,6.9-2.3c10.8-10.9,13.4-26.9,21-39.7
		C273.9,220.7,288.3,208.8,282.2,191.2z"/>
	<path clip-path="url(#SVGID_2_)" fill="#F0C6B7" d="M282.5,229.2c1-4.3,1.2-8.5-0.1-13c-0.3-0.9-0.7-1.8-1.6-1.9
		c-2.5-0.3-3.6,14-4.4,16.3c-1,3-3.8,6-5.9,8.3c-3.2,3.3-6,6.1-7.6,10.6c-1.6,4.5-2.1,9-4.1,13.4c-1.9,4.3-4.4,8.1-7.4,11.7
		c-2.9,3.5-4.7,6.9-5.1,11.5c-0.4,4.8,0.1,9.7,0,14.5c-0.1,4.9-1.1,9-1.9,13.8c-1.1,6.2,6.8,14.4,11.1,6.8
		c3.5-6.2,3.6-13.8,3.2-20.9c-0.4-7.1-1.1-14.5,1.2-21.3c1.7-5.2,5-9.7,7.4-14.7c2.6-5.5,4-11.6,6.6-17.1c2.4-5,6.1-9.3,7.8-14.6
		C281.9,231.5,282.2,230.3,282.5,229.2z"/>
	<path clip-path="url(#SVGID_2_)" fill="none" stroke="#F2A78A" stroke-width="1.1416" stroke-miterlimit="10" d="M193.9,307.3
		c0.2-7.4-1.4-14.8-1.4-22.3c-0.1-12.1,7.3-24.2,12.3-35.1c5.8-12.7,12.9-25,22.9-35c7.9-7.9,13.9-15.3,20-24.6
		c3.6-5.5,9.1-4.3,14.1-0.9c4.9,3.4,5.5,10.2,4.4,15.6c-3.3,15.4-15.8,26.2-21.2,40.7c-1.9,5.1-3.3,10.4-5.1,15.6
		c-2,5.9-5.1,11-5.4,17.4c-0.4,7.6,2.7,14.4,4.1,21.7c1.3,6.6,0.3,12.7,4.8,18.5"/>
	<path clip-path="url(#SVGID_2_)" fill="none" stroke="#F2A78A" stroke-width="1.1416" stroke-miterlimit="10" d="M261.1,189
		c1.4-3.2,3.6-6.1,6.4-8.2c1.9-1.4,4.3-2.5,6.6-1.9c3.5,0.8,6.4,5.2,7.4,8.4c1.9,5.9,3.1,12.2,2.1,18.3c-1.4,9.1-9.7,17.2-16.8,22.6
		c-4.7,6.8-7.5,14.2-12,21c-5.5,8.3-10.6,16.7-15.5,25.4c5.4,13.1,5.3,28.4-0.2,41.4"/>
	<path clip-path="url(#SVGID_2_)" fill="none" stroke="#F2A78A" stroke-width="1.1416" stroke-miterlimit="10" d="M282.2,214.3
		c2.7,7.7,1.4,16.6-3.3,23.2c-1.6,2.2-3.5,4.2-4.7,6.7c-2,4.3-2.5,9-3.7,13.5c-1.2,4.6-3.2,6.9-5.8,10.8c-7.3,11.4-5,23.9-5.8,36.6
		c-0.5,7.1-1.9,14.3-6.1,20"/>
	<path clip-path="url(#SVGID_2_)" fill="none" stroke="#F2A78A" stroke-width="1.1416" stroke-miterlimit="10" d="M228.5,384.7
		c0.4-8.2-4.9-15.6-10.8-21.2c-7.4-7-19.8-14.9-23.2-25c-1.3-3.7-1-7.8-0.7-11.7c1-12.9-0.4-28.8,4.2-40.9
		c3.2-8.5,8.7-15.9,11.7-24.4c2.1-5.9,2.8-13.4,11.6-12.1c5.2,0.8,9.3,5.3,10.9,10.3c1.6,5,1,10.5-0.2,15.6
		c-1.4,6.3-3.2,12.4-5.2,18.6c4.4,10.6,6.2,22.3,5,33.7c0-0.2,13.6,7.9,14.8,8.9c3.1,2.6,9.8,8,10.1,12.2"/>
	<path clip-path="url(#SVGID_2_)" fill="none" stroke="#F2A78A" stroke-width="1.1416" stroke-miterlimit="10" d="M196.1,344.4
		c-4.5,9.5-4.2,20.7-1.7,30.9c2.5,10.2,7.2,19.8,11.2,29.5c7.1,17.1,9.7,33.8,14.1,51.6c5.5,22.7,9,45.2,6.8,68.2
		c-2.5,25.5-5.6,49.9-13.7,74.3"/>
	<path clip-path="url(#SVGID_2_)" fill="none" stroke="#F2A78A" stroke-width="1.1416" stroke-miterlimit="10" d="M242,318.1
		c37.4,25,57.4,68.9,70.9,111.8c8.9,28.1,25.5,67.2,1.5,92.5c3.7,37.7,6.3,75.6,7.6,113.5"/>
	<path clip-path="url(#SVGID_2_)" fill="none" stroke="#F2A78A" stroke-width="1.1416" stroke-miterlimit="10" d="M237.2,204.9
		c7.3-0.2,14.1-5.5,16.2-12.4"/>
	<path clip-path="url(#SVGID_2_)" fill="none" stroke="#F2A78A" stroke-width="1.1416" stroke-miterlimit="10" d="M207.1,272.7
		c1.4,1.1,3.4,1.2,5.1,0.6s3.1-1.8,4.3-3.1c3.9-4.1,6.7-9.2,8-14.7"/>
	<path clip-path="url(#SVGID_2_)" fill="none" stroke="#F2A78A" stroke-width="1.1416" stroke-miterlimit="10" d="M301.9,517.3
		c5.4,2.6,11.7,3.6,17.7,2.9"/>
	<path clip-path="url(#SVGID_2_)" fill="none" stroke="#F2A78A" stroke-width="1.1416" stroke-miterlimit="10" d="M302.9,527.9
		c5.3,1.7,10.3,4.4,14.6,7.8"/>
	<path clip-path="url(#SVGID_2_)" fill="none" stroke="#F2A78A" stroke-width="1.1416" stroke-miterlimit="10" d="M250.2,367.7
		c2.9-3,5.2-6.6,6.8-10.4"/>
	<path clip-path="url(#SVGID_2_)" fill="none" stroke="#F2A78A" stroke-width="1.1416" stroke-miterlimit="10" d="M257,375.5
		c2.7-2,4.9-4.7,6.2-7.8"/>
	<path clip-path="url(#SVGID_2_)" fill="none" stroke="#F2A78A" stroke-width="1.1416" stroke-miterlimit="10" d="M272.8,387.1
		c0.7-0.9,1.4-1.8,2-2.6"/>
	<path clip-path="url(#SVGID_2_)" fill="none" stroke="#F2A78A" stroke-width="1.1416" stroke-miterlimit="10" d="M261.8,224.2
		c1.1,2.1,2.1,4.2,3.2,6.2"/>
	<path clip-path="url(#SVGID_2_)" fill="none" stroke="#F2A78A" stroke-width="1.1416" stroke-miterlimit="10" d="M269,241.5
		c1.8,1,3.2,2.7,3.7,4.7"/>
	<path clip-path="url(#SVGID_2_)" fill="none" stroke="#F2A78A" stroke-width="1.1416" stroke-miterlimit="10" d="M252.4,282.4
		c1.9,0.5,3.8,1.1,5.7,1.6"/>
	<path clip-path="url(#SVGID_2_)" fill="none" stroke="#F2A78A" stroke-width="1.1416" stroke-miterlimit="10" d="M237.2,272.2
		c0.9,0.7,1.7,1.4,2.6,2.1"/>
	<path clip-path="url(#SVGID_2_)" fill="none" stroke="#F2A78A" stroke-width="1.1416" stroke-miterlimit="10" d="M196.5,272.7
		c1,0.5,2.1,1,3.1,1.6"/>
	<path clip-path="url(#SVGID_2_)" fill="none" stroke="#F2A78A" stroke-width="1.1416" stroke-miterlimit="10" d="M194.4,283.2
		c0.9-0.2,1.7-0.3,2.6-0.5"/>
	<path clip-path="url(#SVGID_2_)" fill="none" stroke="#F2A78A" stroke-width="1.1416" stroke-miterlimit="10" d="M235.6,207.9
		c0.9,0.2,1.7,0.3,2.6,0.5"/>
	<path clip-path="url(#SVGID_2_)" fill="none" stroke="#F2A78A" stroke-width="1.1416" stroke-miterlimit="10" d="M205.3,280.1
		c1.3,0.4,2.9,0.4,4.2-0.1"/>
	<path clip-path="url(#SVGID_2_)" fill="none" stroke="#F2A78A" stroke-width="1.1416" stroke-miterlimit="10" d="M200.6,345.5
		c4.3,0.1,8.7,0.3,13,0.4"/>
	<g clip-path="url(#SVGID_2_)">
		<path fill="#F2CDBF" d="M653.6,338.2c-0.9-11.5-4.4-22.5-7.2-33.7c-4.5-18.5-7-38.3-18.1-53.9c-7-9.8-16.8-17-26.8-23.4
			c-9.9-6.3-17.7-14.8-26.7-22.3c-2.9-2.5-6-4.9-9.6-6.3c-3.6-1.4-7.8-1.5-11.1,0.5c-4.6,2.9-5.8,9.5-4,14.7
			c1.7,5.2,5.6,9.4,9.4,13.3c9.1,9.6,18.2,19.1,27.3,28.7c3.4,3.6,8.8,7.5,11.4,11.6c2.7,4.2,3.3,10.9,4.3,15.8
			c1.5,7.3,5.5,20.8,3.1,28c-2.9,8.9-13.9,11.9-21.1,17.4c-5.1,5.9-9.2,12.4-8,21.4c3,28,34,46,59,31c2.3-1.3,4.4-2.9,6.3-4.6
			C648.6,364.2,654.7,353.6,653.6,338.2z"/>
		<path fill="#F2CDBF" d="M576.5,350c-1.2-9,3-15.5,8-21.4c-0.8,0.6-1.6,1.3-2.3,2.1c-9.3,9.6-18.3,19.5-26.9,29.8
			c-17,20.5-32.1,42.8-42.4,67.4c-4.5,10.7-6.6,21.1-10,31.9c-2.9,9.1-5.1,18.6-4.7,28.2c0.4,9.1,6.9,17.1,9.4,25.9
			c2.9,10.5,2.6,23.8,0,34.3c-1.9,7.5-2.2,14.9-3.2,22.7c-0.8,6.5-2.7,13.1-4.7,19.6c-2.7,8.7-5.5,17.4-6.4,25.9
			c-1.9,19,28.2,17.6,40.8,18.2c20.3,1,40.8-1.4,59.8-8.6c5.2-2,6.3-7.3,4.7-11.7c0.5-1,0.8-2.2,0.5-3.6
			c-3.9-23.1-7.8-47.2-8.2-70.7c-0.4-23.2,3-46.8,8.9-69.2c4.2-16,7.6-30.7,15.5-45.2c8.7-16,19.1-32,26.2-48.7
			c-1.9,1.3-3.9,2.8-5.9,4C610.5,396,579.5,378,576.5,350z"/>
		<path fill="#F2CDBF" d="M570.5,181.3c0.8,0.1,1.7,0.5,2.6,1c1.3,0.8,2.2,2.1,3.2,3.2c12.4,13.6,20.6,27,28.5,42.5
			c3.8,7.4,7.1,15.1,10,22.9c1.4,4,2.7,8.1,3.9,12.2c1.1,3.8,1.4,8.3,2.8,12c2.9,14.9,3.6,30.5,1.4,45.5c-2.1,14.4-6,33.9-18.1,43.3
			c-5.2,4.1-15.3,0.7-13.9-7c0.5-2.8,0.9-5.4,1.8-8c-3.9-1.5-6.6-5.7-5.1-11c4-14,7.4-28.8,5.7-43.4c-1.7-13.9-5.9-27.3-11.5-40.1
			c-3.4-7.9-7.3-16.5-11.7-23.9c-4.5-7.6-11-13.1-12.3-22.3c-1.1-7.6,0.9-15.6,4.6-22.1C564.2,183.2,567.2,180.8,570.5,181.3z"/>
		<path fill="#F2CDBF" d="M579.1,282.1c-0.3-0.8-0.6-1.5-0.9-2.2c-2.6-5.3-7.2-9.5-9.3-15.1c-1.6-4-1.7-8.5-3.4-12.5
			c-1.8-4.4-5.1-7.9-7.5-12c-2.5-4.3-3.6-9.5-2.8-14.4c0.5-2.8,1.7-5.6,3.7-7.5c2.7-2.5,7.3-3.5,10.7-1.9c5.3,2.4,8.7,7.2,12.2,11.7
			c3.5,4.4,6.6,9.1,9.3,14c5.2,9.2,9.3,19.2,12.3,29.3c6.1,20.7,8.4,43.1,7.2,64.6c-0.6,10.9-3.1,22.7-12.9,29.1
			c-12.4,8.2-22.3-4-26.1-14.5c-4.3-11.7,1.2-26.5,7-36.7C583.8,304.9,582.7,291.9,579.1,282.1z"/>
		<path fill="#F0C6B7" d="M507.4,519.7c-0.3-2.2-0.7-4.4-1.2-6.6c-1.9-8.7-4.8-17.2-6-26c-2.9-21.8,7-46,16.4-65.1
			c7.3-14.9,15.6-29.3,25-43.1c6.5-9.5,12.7-20.9,21.2-28.7c3.9-3.6,8.5-6.8,10.4-11.8c1.5-3.9,1.1-8.2,1.6-12.3
			c1.8-13.2,12.6-22.7,20.4-32.6c3.9-5,8.7-11.1,9.1-17.7c0.3-6.6-2.3-10.7,4.5-15.4c-0.3,12.8,7.3,25.5,20.5,28.2
			c-7.1,18.4-9.3,38.6-6.3,58.1c0.5,3.5,1.2,7.2-0.4,10.3c-1.8,3.3-5.7,4.8-9.3,6.1c-22.3,8.2-42.9,21.2-60,37.8
			c-20.3,19.5-27.6,40.4-34.6,67.3c-3.5,13.2-16.6,41.3,0.4,48.1c5,2,11.2,4.2,12.5,9.4c0.9,3.5-0.8,7.1-2.4,10.4
			c-11.6,24.6-15.9,52.6-12.2,79.6c1.3,9.8-4.2,26.6-17.9,21.1c-10.5-4.3-8-14.6-5.3-22.8c3.6-11,6.9-22.1,9.6-33.4
			C508,560.8,510.5,540,507.4,519.7z"/>
		<path fill="#F0C6B7" d="M554.4,202.6c2.5-3.3,6.8-5.8,8.3,0.2c1.3,5.4,2.5,9.9,6.3,14.1c3.6,4,7.9,6.5,12.9,8.5
			c6.8,2.8,8.6,6.5,10,13.4c2.1,10.7,7.5,19.4,12,29.1c4.8,10.3,7.9,21.3,9.1,32.6c3.8,34.4-17.8,65.5-36.2,92.6
			c-1.6,2.4-3.3,4.8-5.6,6.5c-2.3,1.7-5.5,2.5-8.1,1.4c6.7-18.4,14.7-36.3,23.9-53.6c7.6-14.2,15.1-27.7,14.1-44.4
			c-1.4-24.8-16.2-46.8-33.3-64.8c-5.1-5.4-10.7-10.7-13.7-17.5c-2.1-4.6-2.8-10.1-1.4-14.9C553.1,204.7,553.7,203.6,554.4,202.6z"
			/>
		<path fill="#F0C6B7" d="M559.6,193.3c0.1-0.2,0.2-0.5,0.3-0.7c0.7-1.5,1.6-3,3.1-3.5c2.7-0.9,5.4,2,5.7,4.9
			c0.3,2.9-0.9,5.6-1.4,8.5c-0.8,4.9,0.9,10,3.3,14.4s5.6,8.3,8.3,12.5c8.6,13.3,14,28.2,19.7,43c0.6,1.6,1.2,3.2,1.2,4.9
			c0,1.7-0.8,3.5-2.4,4.2c-2.4,1.1-5-0.9-6.7-2.8c-10-11.7-11.3-27.8-18-41.2C565.7,223.3,552.2,210.4,559.6,193.3z"/>
		<path fill="#F0C6B7" d="M556.2,236.4c-1.1-4.3-1.4-8.5-0.2-12.9c0.2-0.9,0.7-1.8,1.5-2c2.5-0.4,3.9,13.9,4.7,16.2
			c1.1,3,3.9,5.9,6.1,8.1c3.3,3.3,6.2,6,7.8,10.4c1.7,4.4,2.3,9,4.4,13.3c2,4.2,4.6,8,7.7,11.5c3,3.5,4.9,6.8,5.4,11.4
			c0.5,4.8,0.1,9.7,0.3,14.5c0.2,4.9,1.3,9,2.2,13.7c1.3,6.2-6.5,14.6-10.9,7c-3.5-6-3.3-12.4-3.7-19.1c-0.4-7.3-1.7-14.6-2.2-21.9
			c-0.4-5.8-4.5-10.4-7.1-15.5c-2.7-5.5-4.2-11.5-7-16.9c-2.5-4.9-6.3-9.2-8.1-14.4C556.8,238.8,556.5,237.6,556.2,236.4z"/>
		<path fill="none" stroke="#F2A78A" stroke-width="1.1416" stroke-miterlimit="10" d="M606.6,229.8c-8.4-15.1-18.3-34.4-31.6-45.8
			c-1.8-1.5-4.1-2.8-6.4-2.4c-3.5,0.6-6.7,4.7-8,7.8c-2.3,5.7-4,11.9-3.5,18.1c0.7,9.2,8.4,17.8,15,23.8c4.2,7.2,6.4,14.8,10.4,21.9
			c4.8,8.7,9.4,17.5,13.6,26.5c-6.3,12.7-7.4,27.9-2.9,41.3"/>
		<path fill="none" stroke="#F2A78A" stroke-width="1.1416" stroke-miterlimit="10" d="M556.1,221.6c-2.5,7.7-1,16.6,3.8,23.1
			c1.6,2.2,3.6,4.2,4.8,6.6c2.1,4.2,2.7,8.9,4,13.4c1.3,4.6,3.4,6.8,6,10.7c7.6,11.2,5.5,23.7,6.7,36.5c0.7,7,2.2,14.3,6.6,19.9"/>
		<path fill="#F2CDBF" d="M652.8,338.2c-0.9-11.5-4.4-22.5-7.2-33.7c-4.5-18.5-7-38.3-18.1-53.9c-7-9.8-16.8-17-26.8-23.4
			c-9.9-6.3-17.7-14.8-26.7-22.3c-2.9-2.5-6-4.9-9.6-6.3c-3.6-1.4-7.8-1.5-11.1,0.5c-4.6,2.9-5.8,9.5-4,14.7
			c1.7,5.2,5.6,9.4,9.4,13.3c9.1,9.6,18.2,19.1,27.3,28.7c3.4,3.6,8.8,7.5,11.4,11.6c2.7,4.2,3.3,10.9,4.3,15.8
			c1.3,6.4,2.1,13.1,3.4,19.4c1.7,7.9,5.6,14.6,3.1,22.9c-1.7,5.9-6.3,10.6-9.2,16.1c-4.5,8.4-5.2,18.8-1.6,27.7
			c2.6,6.5,8.6,14.6,15.6,17c6.6,2.3,16-2,21.7-5.4c2.3-1.3,4.4-2.9,6.3-4.6C647.8,364.2,654,353.6,652.8,338.2z"/>
		<path fill="none" stroke="#F2A78A" stroke-width="1.1416" stroke-miterlimit="10" d="M644.5,336.7c2.7,10.8,1.1,25.4-1.2,36.1
			c-2.4,10.8-9.2,20.8-15.2,29.9c-12.2,18.6-21.3,39.2-26.7,60.8c-5.5,22-11.5,43.5-10.9,66.4c0.6,25.6,1.8,50.2,8.1,75.2"/>
		<path fill="none" stroke="#F2A78A" stroke-width="1.1416" stroke-miterlimit="10" d="M591.2,322.6c-4.7,5.5-9.3,11.1-14,16.6
			c-12.6,7-18.9,16.8-26.2,28.7c-2.8,4.6-5.9,8.9-9,13.3c-9.4,13.1-19.9,25.5-25.6,40.5c-6.2,16.3-12.1,32.4-16.2,49.4
			c-2.6,10.5-3.2,22,2,31.5c1.9,3.4,4.5,6.5,5.7,10.2c1.1,3.5,0.9,7.3,0.7,11c-1.1,19.2-0.5,39.9-4,58.8c-1.2,6.8-4.7,13.3-6.4,20.1
			c-2.5,9.8-5,19.6-7.3,29.5"/>
		<path fill="none" stroke="#F2A78A" stroke-width="1.1416" stroke-miterlimit="10" d="M529.7,517c-5.6,2.2-11.9,2.8-17.8,1.5"/>
		<path fill="none" stroke="#F2A78A" stroke-width="1.1416" stroke-miterlimit="10" d="M528,527.5c-5.4,1.3-10.6,3.6-15.1,6.7"/>
		<path fill="none" stroke="#F2A78A" stroke-width="1.1416" stroke-miterlimit="10" d="M578.4,371.7c-2.7-3.2-4.7-6.9-6-10.9"/>
		<path fill="none" stroke="#F2A78A" stroke-width="1.1416" stroke-miterlimit="10" d="M571.1,379c-2.6-2.2-4.6-5.1-5.6-8.3"/>
		<path fill="none" stroke="#F2A78A" stroke-width="1.1416" stroke-miterlimit="10" d="M554.5,389.3c-0.6-0.9-1.2-1.9-1.8-2.8"/>
		<path fill="none" stroke="#F2A78A" stroke-width="1.1416" stroke-miterlimit="10" d="M577.6,227.7c-1.2,2-2.4,4-3.6,6"/>
		<path fill="none" stroke="#F2A78A" stroke-width="1.1416" stroke-miterlimit="10" d="M569.9,248.4c-1.8,1-3.1,2.8-3.6,4.7"/>
		<path fill="none" stroke="#F2A78A" stroke-width="1.1416" stroke-miterlimit="10" d="M587.4,289c-1.9,0.6-3.8,1.2-5.7,1.7"/>
		<path fill="none" stroke="#F2A78A" stroke-width="1.1416" stroke-miterlimit="10" d="M598.5,277.4c-0.9,0.6-1.8,1.3-2.8,1.9"/>
		<g>
			<path fill="none" stroke="#F2A78A" stroke-width="1.1416" stroke-miterlimit="10" d="M643.2,372.8c3.7-5.3,11.9-24.2,11.7-30.6
				c-0.2-6.4-1.7-12.8-3.3-19c-3.5-14.1-7-28.2-10.5-42.3c-2.1-8.4-4.2-16.9-8.4-24.5c-4.5-8.1-11.2-14.7-18.5-20.3
				c-7.2-5.6-14.5-11.7-22.1-16.7c-7.4-4.9-14.4-10.3-20.8-16.4c-3.1-2.9-4.8-5.4-9.2-5.6c-3.9-0.1-7.5,0.8-10.2,3.8
				c-3,3.4-4,8.4-2.9,12.8c1.2,4.7,4.3,6.8,7.3,10.2c2.6,2.9,4.7,6.3,7.5,9.1c6.1,6.4,12.9,12.2,17.6,19.8c2.9,4.7,5.4,9.6,8.1,14.2
				"/>
			<path fill="none" stroke="#F2A78A" stroke-width="1.1416" stroke-miterlimit="10" d="M580.8,211.4c-7.2,1.3-15-2.5-18.4-8.9"/>
			<path fill="none" stroke="#F2A78A" stroke-width="1.1416" stroke-miterlimit="10" d="M634.3,269.7c-0.9,0.7-1.8,1.4-2.8,2.2"/>
			<path fill="none" stroke="#F2A78A" stroke-width="1.1416" stroke-miterlimit="10" d="M638.4,279.6c-0.9,0-1.8,0-2.7,0"/>
			<path fill="none" stroke="#F2A78A" stroke-width="1.1416" stroke-miterlimit="10" d="M582.9,214.1c-0.8,0.3-1.6,0.7-2.5,1"/>
		</g>
	</g>
	<path clip-path="url(#SVGID_2_)" fill="#F2CDBF" d="M626.2,377c1.5-11.5,8.9-21.1,15-30.9c4.8-7.8,9.1-17,8.4-26.4
		c-0.8-9.4-6-18.5-9.5-27.2c-2.3-5.6-3.1-12.7-6.8-17.6c-1.9-2.5-4.7-4.3-7.4-6.1c-5.5-3.6-11-6.6-15.3-11.7
		c-4.1-4.8-7.4-11.5-15.2-7.2c-4.6,2.5-6.8,8.2-6.5,13.5c0.3,5.3,2.8,10.1,5.7,14.6c3.5,5.4,7.4,10.5,11.4,15.5
		c-0.4,11.5,1.4,17.1,6.5,27.3c-0.1-0.2-9.9,12.2-10.6,13.6c-1.9,3.5-6.3,10.9-5.1,15"/>
	<path clip-path="url(#SVGID_2_)" fill="#F0C6B7" d="M616.6,265.2c-8,0.5-14.6-3.9-18.7-10.6c-1.5-2.4-5.4-0.9-4.6,1.9
		c2.8,9.9,11.9,17,22,18.6C622.8,276.3,623.6,264.8,616.6,265.2z"/>
	<path clip-path="url(#SVGID_2_)" fill="#F0C6B7" d="M609.2,349.1c-0.1-3.3,1.6-6.5,3.8-8.9c4.6-5,9.4-8.6,9.5-16
		c0.1-7.2-1.8-15.2-3.9-22.1c-2.5-7.9-6.1-15.9-10.9-22.7c-5.4-7.7-12.8-12.8-11.7-23.1c0.3-2.6-3.3-3-4.5-1.2
		c-5.9,8.6,0.9,19.1,5.3,26.7c5.9,10,10.5,20.2,12.7,31.7c0.9,4.8,2.6,10.6-1.2,14.3c-10,9.8-14.6,22.2-22.7,33.6
		c-11.8,16.5-28.1,28.6-42.5,42.3c-14.4,13.7-25.8,35.1-31.8,54c-6.5,20.1-6.6,43.1,4.1,61.2c1.9,3.2,4.3,6.4,7.9,7.4
		c3.6,1,8.2-1.4,8.1-5.1c-0.1-3.8-4.5-5.8-7.6-8.1c-7.3-5.5-8.3-15.9-7.5-25c3.6-43.8,36-79.7,72.5-101.1
		c6.5-3.8,13.6-6.7,19.6-11.2c6.7-5,9.8-11.9,4.5-19.2C611.2,354,609.3,352.4,609.2,349.1z"/>
	<path clip-path="url(#SVGID_2_)" fill="none" stroke="#F2A78A" stroke-width="1.1416" stroke-miterlimit="10" d="M626.2,377
		c1.5-11.5,8.9-21.1,15-30.9c4.8-7.8,9.1-17,8.4-26.4c-0.8-9.4-6-18.5-9.5-27.2c-2.3-5.6-3.1-12.7-6.8-17.6
		c-1.9-2.5-4.7-4.3-7.4-6.1c-5.5-3.6-11-6.6-15.3-11.7c-4.1-4.8-7.4-11.5-15.2-7.2c-4.6,2.5-6.8,8.2-6.5,13.5
		c0.3,5.3,2.8,10.1,5.7,14.6c3.5,5.4,7.4,10.5,11.4,15.5c-0.4,11.5,1.4,17.1,6.5,27.3c-0.1-0.2-9.9,12.2-10.6,13.6
		c-1.9,3.5-6.3,10.9-5.1,15"/>
	<path clip-path="url(#SVGID_2_)" fill="none" stroke="#F2A78A" stroke-width="1.1416" stroke-miterlimit="10" d="M616.8,266.8
		c-0.9,1.5-2.8,2.3-4.6,2.4c-1.8,0-3.5-0.6-5.1-1.4c-5.1-2.4-9.5-6.2-12.7-10.9"/>
	<path clip-path="url(#SVGID_2_)" fill="none" stroke="#F2A78A" stroke-width="1.1416" stroke-miterlimit="10" d="M621.1,273.1
		c-1.1,0.9-2.5,1.4-4,1.4"/>
	<path clip-path="url(#SVGID_2_)" fill="none" stroke="#F2A78A" stroke-width="1.1416" stroke-miterlimit="10" d="M648.6,332.6
		c-4,1.7-8,3.3-12.1,5"/>
	<path clip-path="url(#SVGID_2_)" fill="none" stroke="#F2A78A" stroke-width="1.1416" stroke-miterlimit="10" d="M570.5,343.6
		c-0.2-12.6,3.2-22.2,9.8-32.9"/>
	<linearGradient id="SVGID_5_" gradientUnits="userSpaceOnUse" x1="0" y1="297.64" x2="841.89" y2="297.64">
		<stop  offset="0" style="stop-color:#FFFFFF"/>
		<stop  offset="0.2682" style="stop-color:#FFFFFF;stop-opacity:0"/>
		<stop  offset="0.7874" style="stop-color:#FFFFFF;stop-opacity:0"/>
		<stop  offset="0.9441" style="stop-color:#FFFFFF"/>
	</linearGradient>
	<rect clip-path="url(#SVGID_2_)" fill="url(#SVGID_5_)" width="841.9" height="595.3"/>
	
		<linearGradient id="SVGID_6_" gradientUnits="userSpaceOnUse" x1="123.305" y1="297.64" x2="883.335" y2="297.64" gradientTransform="matrix(-6.123234e-17 -1 1 -6.123234e-17 123.305 718.585)">
		<stop  offset="0" style="stop-color:#FFFFFF;stop-opacity:0"/>
		<stop  offset="0.6397" style="stop-color:#FFFFFF;stop-opacity:0"/>
		<stop  offset="0.9785" style="stop-color:#FFFFFF"/>
	</linearGradient>
	<polygon clip-path="url(#SVGID_2_)" fill="url(#SVGID_6_)" points="718.6,0 718.6,595.3 123.3,595.3 123.3,0 	"/>
	<linearGradient id="SVGID_7_" gradientUnits="userSpaceOnUse" x1="0" y1="297.64" x2="1074.8918" y2="297.64">
		<stop  offset="0" style="stop-color:#FFFFFF;stop-opacity:0"/>
		<stop  offset="0.6397" style="stop-color:#FFFFFF;stop-opacity:0"/>
		<stop  offset="0.9785" style="stop-color:#FFFFFF"/>
	</linearGradient>
	<rect clip-path="url(#SVGID_2_)" fill="url(#SVGID_7_)" width="841.9" height="595.3"/>
</g>
</svg>
