<?xml version="1.0" encoding="UTF-8" standalone="no"?>
<!DOCTYPE svg PUBLIC "-//W3C//DTD SVG 1.1//EN"
 "http://www.w3.org/Graphics/SVG/1.1/DTD/svg11.dtd">
<!-- Generated by graphviz version 2.47.3 (20210619.1520)
 -->
<!-- Title: dependencies Pages: 1 -->
<svg width="1402pt" height="326pt"
 viewBox="0.00 0.00 1402.00 325.80" xmlns="http://www.w3.org/2000/svg" xmlns:xlink="http://www.w3.org/1999/xlink">
<g id="graph0" class="graph" transform="scale(1 1) rotate(0) translate(4 321.8)">
<title>dependencies</title>
<polygon fill="white" stroke="transparent" points="-4,4 -4,-321.8 1398,-321.8 1398,4 -4,4"/>
<text text-anchor="middle" x="697" y="-8.2" font-family="sans-serif" font-size="14.00">dependencies</text>
<g id="clust1" class="cluster">
<title>cluster_AppModule</title>
<polygon fill="none" stroke="black" stroke-dasharray="1,5" points="392,-108.8 392,-309.8 1032,-309.8 1032,-108.8 392,-108.8"/>
</g>
<g id="clust3" class="cluster">
<title>cluster_AppModule_imports</title>
<polygon fill="none" stroke="black" points="538,-116.8 538,-244.8 1024,-244.8 1024,-116.8 538,-116.8"/>
</g>
<g id="clust6" class="cluster">
<title>cluster_AppModule_providers</title>
<polygon fill="none" stroke="black" points="400,-192.8 400,-244.8 530,-244.8 530,-192.8 400,-192.8"/>
</g>
<g id="clust7" class="cluster">
<title>cluster_AuditModule</title>
<polygon fill="none" stroke="black" stroke-dasharray="1,5" points="486,-32.8 486,-100.8 642,-100.8 642,-32.8 486,-32.8"/>
</g>
<g id="clust12" class="cluster">
<title>cluster_AuditModule_providers</title>
<polygon fill="none" stroke="black" points="494,-40.8 494,-92.8 634,-92.8 634,-40.8 494,-40.8"/>
</g>
<g id="clust13" class="cluster">
<title>cluster_DynamodbModule</title>
<polygon fill="none" stroke="black" stroke-dasharray="1,5" points="1040,-184.8 1040,-252.8 1386,-252.8 1386,-184.8 1040,-184.8"/>
</g>
<g id="clust16" class="cluster">
<title>cluster_DynamodbModule_exports</title>
<polygon fill="none" stroke="black" points="1238,-192.8 1238,-244.8 1378,-244.8 1378,-192.8 1238,-192.8"/>
</g>
<g id="clust18" class="cluster">
<title>cluster_DynamodbModule_providers</title>
<polygon fill="none" stroke="black" points="1048,-192.8 1048,-244.8 1230,-244.8 1230,-192.8 1048,-192.8"/>
</g>
<g id="clust19" class="cluster">
<title>cluster_MetadataModule</title>
<polygon fill="none" stroke="black" stroke-dasharray="1,5" points="8,-32.8 8,-252.8 192,-252.8 192,-32.8 8,-32.8"/>
</g>
<g id="clust22" class="cluster">
<title>cluster_MetadataModule_exports</title>
<polygon fill="none" stroke="black" points="54,-192.8 54,-244.8 184,-244.8 184,-192.8 54,-192.8"/>
</g>
<g id="clust24" class="cluster">
<title>cluster_MetadataModule_providers</title>
<polygon fill="none" stroke="black" points="16,-40.8 16,-92.8 184,-92.8 184,-40.8 16,-40.8"/>
</g>
<g id="clust25" class="cluster">
<title>cluster_OldResourceModule</title>
<polygon fill="none" stroke="black" stroke-dasharray="1,5" points="1107,-32.8 1107,-168.8 1319,-168.8 1319,-32.8 1107,-32.8"/>
</g>
<g id="clust30" class="cluster">
<title>cluster_OldResourceModule_providers</title>
<polygon fill="none" stroke="black" points="1115,-40.8 1115,-92.8 1311,-92.8 1311,-40.8 1115,-40.8"/>
</g>
<g id="clust31" class="cluster">
<title>cluster_PatientModule</title>
<polygon fill="none" stroke="black" stroke-dasharray="1,5" points="650,-32.8 650,-100.8 816,-100.8 816,-32.8 650,-32.8"/>
</g>
<g id="clust36" class="cluster">
<title>cluster_PatientModule_providers</title>
<polygon fill="none" stroke="black" points="658,-40.8 658,-92.8 808,-92.8 808,-40.8 658,-40.8"/>
</g>
<g id="clust37" class="cluster">
<title>cluster_ResourceModule</title>
<polygon fill="none" stroke="black" stroke-dasharray="1,5" points="200,-108.8 200,-176.8 384,-176.8 384,-108.8 200,-108.8"/>
</g>
<g id="clust42" class="cluster">
<title>cluster_ResourceModule_providers</title>
<polygon fill="none" stroke="black" points="208,-116.8 208,-168.8 376,-168.8 376,-116.8 208,-116.8"/>
</g>
<!-- AuditModule -->
<g id="node1" class="node">
<title>AuditModule</title>
<polygon fill="#8dd3c7" stroke="black" points="637.94,-160.8 634.94,-164.8 613.94,-164.8 610.94,-160.8 546.06,-160.8 546.06,-124.8 637.94,-124.8 637.94,-160.8"/>
<text text-anchor="middle" x="592" y="-138.6" font-family="Times,serif" font-size="14.00">AuditModule</text>
</g>
<!-- AppModule -->
<g id="node6" class="node">
<title>AppModule</title>
<polygon fill="#8dd3c7" stroke="black" points="734.66,-301.8 731.66,-305.8 710.66,-305.8 707.66,-301.8 651.34,-301.8 651.34,-265.8 734.66,-265.8 734.66,-301.8"/>
<text text-anchor="middle" x="693" y="-279.6" font-family="Times,serif" font-size="14.00">AppModule</text>
</g>
<!-- AuditModule&#45;&gt;AppModule -->
<g id="edge1" class="edge">
<title>AuditModule&#45;&gt;AppModule</title>
<path fill="none" stroke="black" d="M608.54,-160.91C608.54,-170.7 608.54,-180.8 608.54,-180.8 608.54,-180.8 686.15,-180.8 686.15,-180.8 686.15,-180.8 686.15,-255.39 686.15,-255.39"/>
<polygon fill="black" stroke="black" points="682.65,-255.39 686.15,-265.39 689.65,-255.39 682.65,-255.39"/>
</g>
<!-- DynamodbModule -->
<g id="node2" class="node">
<title>DynamodbModule</title>
<polygon fill="#8dd3c7" stroke="black" points="1015.76,-160.8 1012.76,-164.8 991.76,-164.8 988.76,-160.8 894.24,-160.8 894.24,-124.8 1015.76,-124.8 1015.76,-160.8"/>
<text text-anchor="middle" x="955" y="-138.6" font-family="Times,serif" font-size="14.00">DynamodbModule</text>
</g>
<!-- ResourceModule -->
<g id="node4" class="node">
<title>ResourceModule</title>
<polygon fill="#8dd3c7" stroke="black" points="661.64,-236.8 658.64,-240.8 637.64,-240.8 634.64,-236.8 550.36,-236.8 550.36,-200.8 661.64,-200.8 661.64,-236.8"/>
<text text-anchor="middle" x="606" y="-214.6" font-family="Times,serif" font-size="14.00">ResourceModule</text>
</g>
<!-- DynamodbModule&#45;&gt;ResourceModule -->
<g id="edge15" class="edge">
<title>DynamodbModule&#45;&gt;ResourceModule</title>
<path fill="none" stroke="black" d="M955,-160.81C955,-183.29 955,-218.8 955,-218.8 955,-218.8 671.69,-218.8 671.69,-218.8"/>
<polygon fill="black" stroke="black" points="671.69,-215.3 661.69,-218.8 671.69,-222.3 671.69,-215.3"/>
</g>
<!-- DynamodbModule&#45;&gt;AppModule -->
<g id="edge2" class="edge">
<title>DynamodbModule&#45;&gt;AppModule</title>
<path fill="none" stroke="black" d="M985.44,-160.83C985.44,-200.08 985.44,-289.8 985.44,-289.8 985.44,-289.8 744.9,-289.8 744.9,-289.8"/>
<polygon fill="black" stroke="black" points="744.9,-286.3 734.9,-289.8 744.9,-293.3 744.9,-286.3"/>
</g>
<!-- DynamodbService  -->
<g id="node9" class="node">
<title>DynamodbService </title>
<polygon fill="#fb8072" stroke="black" points="1369.69,-236.8 1246.31,-236.8 1246.31,-200.8 1369.69,-200.8 1369.69,-236.8"/>
<text text-anchor="middle" x="1308" y="-214.6" font-family="Times,serif" font-size="14.00">DynamodbService </text>
</g>
<!-- DynamodbModule&#45;&gt;DynamodbService  -->
<g id="edge8" class="edge">
<title>DynamodbModule&#45;&gt;DynamodbService </title>
<path fill="none" stroke="black" stroke-dasharray="5,2" d="M924.56,-161.01C924.56,-166.35 924.56,-170.8 924.56,-170.8 924.56,-170.8 1262.74,-170.8 1262.74,-170.8 1262.74,-170.8 1262.74,-190.65 1262.74,-190.65"/>
<polygon fill="black" stroke="black" points="1259.24,-190.65 1262.74,-200.65 1266.24,-190.65 1259.24,-190.65"/>
</g>
<!-- MetadataModule -->
<g id="node11" class="node">
<title>MetadataModule</title>
<polygon fill="#8dd3c7" stroke="black" points="178.63,-160.8 175.63,-164.8 154.63,-164.8 151.63,-160.8 67.37,-160.8 67.37,-124.8 178.63,-124.8 178.63,-160.8"/>
<text text-anchor="middle" x="123" y="-138.6" font-family="Times,serif" font-size="14.00">MetadataModule</text>
</g>
<!-- DynamodbModule&#45;&gt;MetadataModule -->
<g id="edge10" class="edge">
<title>DynamodbModule&#45;&gt;MetadataModule</title>
<path fill="none" stroke="black" d="M955,-124.69C955,-114.9 955,-104.8 955,-104.8 955,-104.8 139.67,-104.8 139.67,-104.8 139.67,-104.8 139.67,-114.69 139.67,-114.69"/>
<polygon fill="black" stroke="black" points="136.17,-114.69 139.67,-124.69 143.17,-114.69 136.17,-114.69"/>
</g>
<!-- PatientModule -->
<g id="node3" class="node">
<title>PatientModule</title>
<polygon fill="#8dd3c7" stroke="black" points="754.43,-160.8 751.43,-164.8 730.43,-164.8 727.43,-160.8 655.57,-160.8 655.57,-124.8 754.43,-124.8 754.43,-160.8"/>
<text text-anchor="middle" x="705" y="-138.6" font-family="Times,serif" font-size="14.00">PatientModule</text>
</g>
<!-- PatientModule&#45;&gt;AppModule -->
<g id="edge3" class="edge">
<title>PatientModule&#45;&gt;AppModule</title>
<path fill="none" stroke="black" d="M710.49,-160.94C710.49,-160.94 710.49,-255.73 710.49,-255.73"/>
<polygon fill="black" stroke="black" points="706.99,-255.72 710.49,-265.73 713.99,-255.73 706.99,-255.72"/>
</g>
<!-- ResourceModule&#45;&gt;AppModule -->
<g id="edge4" class="edge">
<title>ResourceModule&#45;&gt;AppModule</title>
<path fill="none" stroke="black" d="M656.49,-236.91C656.49,-236.91 656.49,-255.79 656.49,-255.79"/>
<polygon fill="black" stroke="black" points="652.99,-255.79 656.49,-265.79 659.99,-255.79 652.99,-255.79"/>
</g>
<!-- SchemaModule -->
<g id="node5" class="node">
<title>SchemaModule</title>
<polygon fill="#8dd3c7" stroke="black" points="875.87,-160.8 872.87,-164.8 851.87,-164.8 848.87,-160.8 772.13,-160.8 772.13,-124.8 875.87,-124.8 875.87,-160.8"/>
<text text-anchor="middle" x="824" y="-138.6" font-family="Times,serif" font-size="14.00">SchemaModule</text>
</g>
<!-- SchemaModule&#45;&gt;AppModule -->
<g id="edge5" class="edge">
<title>SchemaModule&#45;&gt;AppModule</title>
<path fill="none" stroke="black" d="M824,-161.01C824,-197.86 824,-277.8 824,-277.8 824,-277.8 744.81,-277.8 744.81,-277.8"/>
<polygon fill="black" stroke="black" points="744.81,-274.3 734.81,-277.8 744.81,-281.3 744.81,-274.3"/>
</g>
<!-- AppService -->
<g id="node7" class="node">
<title>AppService</title>
<ellipse fill="#fdb462" stroke="black" cx="465" cy="-218.8" rx="56.74" ry="18"/>
<text text-anchor="middle" x="465" y="-214.6" font-family="Times,serif" font-size="14.00">AppService</text>
</g>
<!-- AppService&#45;&gt;AppModule -->
<g id="edge6" class="edge">
<title>AppService&#45;&gt;AppModule</title>
<path fill="none" stroke="black" d="M465,-236.91C465,-256.14 465,-283.8 465,-283.8 465,-283.8 641.18,-283.8 641.18,-283.8"/>
<polygon fill="black" stroke="black" points="641.18,-287.3 651.18,-283.8 641.18,-280.3 641.18,-287.3"/>
</g>
<!-- AuditService -->
<g id="node8" class="node">
<title>AuditService</title>
<ellipse fill="#fdb462" stroke="black" cx="564" cy="-66.8" rx="61.98" ry="18"/>
<text text-anchor="middle" x="564" y="-62.6" font-family="Times,serif" font-size="14.00">AuditService</text>
</g>
<!-- AuditService&#45;&gt;AuditModule -->
<g id="edge7" class="edge">
<title>AuditService&#45;&gt;AuditModule</title>
<path fill="none" stroke="black" d="M586.13,-83.67C586.13,-83.67 586.13,-114.65 586.13,-114.65"/>
<polygon fill="black" stroke="black" points="582.63,-114.65 586.13,-124.65 589.63,-114.65 582.63,-114.65"/>
</g>
<!-- DynamodbService -->
<g id="node10" class="node">
<title>DynamodbService</title>
<ellipse fill="#fdb462" stroke="black" cx="1139" cy="-218.8" rx="82.81" ry="18"/>
<text text-anchor="middle" x="1139" y="-214.6" font-family="Times,serif" font-size="14.00">DynamodbService</text>
</g>
<!-- DynamodbService&#45;&gt;DynamodbModule -->
<g id="edge9" class="edge">
<title>DynamodbService&#45;&gt;DynamodbModule</title>
<path fill="none" stroke="black" d="M1089.35,-204.15C1089.35,-182.06 1089.35,-142.8 1089.35,-142.8 1089.35,-142.8 1025.88,-142.8 1025.88,-142.8"/>
<polygon fill="black" stroke="black" points="1025.88,-139.3 1015.88,-142.8 1025.88,-146.3 1025.88,-139.3"/>
</g>
<!-- MetadataModule&#45;&gt;ResourceModule -->
<g id="edge16" class="edge">
<title>MetadataModule&#45;&gt;ResourceModule</title>
<path fill="none" stroke="black" d="M139.58,-160.95C139.58,-174.54 139.58,-190.8 139.58,-190.8 139.58,-190.8 579.36,-190.8 579.36,-190.8 579.36,-190.8 579.36,-191.78 579.36,-191.78"/>
<polygon fill="black" stroke="black" points="575.86,-190.59 579.36,-200.59 582.86,-190.59 575.86,-190.59"/>
</g>
<!-- MetadataService  -->
<g id="node12" class="node">
<title>MetadataService </title>
<polygon fill="#fb8072" stroke="black" points="175.56,-236.8 62.44,-236.8 62.44,-200.8 175.56,-200.8 175.56,-236.8"/>
<text text-anchor="middle" x="119" y="-214.6" font-family="Times,serif" font-size="14.00">MetadataService </text>
</g>
<!-- MetadataModule&#45;&gt;MetadataService  -->
<g id="edge11" class="edge">
<title>MetadataModule&#45;&gt;MetadataService </title>
<path fill="none" stroke="black" stroke-dasharray="5,2" d="M103.38,-160.81C103.38,-160.81 103.38,-190.65 103.38,-190.65"/>
<polygon fill="black" stroke="black" points="99.88,-190.65 103.38,-200.65 106.88,-190.65 99.88,-190.65"/>
</g>
<!-- MetadataService -->
<g id="node13" class="node">
<title>MetadataService</title>
<ellipse fill="#fdb462" stroke="black" cx="100" cy="-66.8" rx="75.84" ry="18"/>
<text text-anchor="middle" x="100" y="-62.6" font-family="Times,serif" font-size="14.00">MetadataService</text>
</g>
<!-- MetadataService&#45;&gt;MetadataModule -->
<g id="edge12" class="edge">
<title>MetadataService&#45;&gt;MetadataModule</title>
<path fill="none" stroke="black" d="M103.43,-84.81C103.43,-84.81 103.43,-114.65 103.43,-114.65"/>
<polygon fill="black" stroke="black" points="99.93,-114.65 103.43,-124.65 106.93,-114.65 99.93,-114.65"/>
</g>
<!-- OldResourceService -->
<g id="node14" class="node">
<title>OldResourceService</title>
<ellipse fill="#fdb462" stroke="black" cx="1213" cy="-66.8" rx="90.31" ry="18"/>
<text text-anchor="middle" x="1213" y="-62.6" font-family="Times,serif" font-size="14.00">OldResourceService</text>
</g>
<!-- OldResourceModule -->
<g id="node15" class="node">
<title>OldResourceModule</title>
<polygon fill="#8dd3c7" stroke="black" points="1279.13,-160.8 1276.13,-164.8 1255.13,-164.8 1252.13,-160.8 1146.87,-160.8 1146.87,-124.8 1279.13,-124.8 1279.13,-160.8"/>
<text text-anchor="middle" x="1213" y="-138.6" font-family="Times,serif" font-size="14.00">OldResourceModule</text>
</g>
<!-- OldResourceService&#45;&gt;OldResourceModule -->
<g id="edge13" class="edge">
<title>OldResourceService&#45;&gt;OldResourceModule</title>
<path fill="none" stroke="black" d="M1213,-84.81C1213,-84.81 1213,-114.65 1213,-114.65"/>
<polygon fill="black" stroke="black" points="1209.5,-114.65 1213,-124.65 1216.5,-114.65 1209.5,-114.65"/>
</g>
<!-- PatientService -->
<g id="node16" class="node">
<title>PatientService</title>
<ellipse fill="#fdb462" stroke="black" cx="733" cy="-66.8" rx="66.63" ry="18"/>
<text text-anchor="middle" x="733" y="-62.6" font-family="Times,serif" font-size="14.00">PatientService</text>
</g>
<!-- PatientService&#45;&gt;PatientModule -->
<g id="edge14" class="edge">
<title>PatientService&#45;&gt;PatientModule</title>
<path fill="none" stroke="black" d="M710.2,-84.05C710.2,-84.05 710.2,-114.56 710.2,-114.56"/>
<polygon fill="black" stroke="black" points="706.7,-114.56 710.2,-124.56 713.7,-114.56 706.7,-114.56"/>
</g>
<!-- ResourceService -->
<g id="node17" class="node">
<title>ResourceService</title>
<ellipse fill="#fdb462" stroke="black" cx="292" cy="-142.8" rx="75.84" ry="18"/>
<text text-anchor="middle" x="292" y="-138.6" font-family="Times,serif" font-size="14.00">ResourceService</text>
</g>
<!-- ResourceService&#45;&gt;ResourceModule -->
<g id="edge17" class="edge">
<title>ResourceService&#45;&gt;ResourceModule</title>
<path fill="none" stroke="black" d="M368.22,-142.8C439.14,-142.8 533.95,-142.8 533.95,-142.8 533.95,-142.8 533.95,-218.8 533.95,-218.8 533.95,-218.8 540.3,-218.8 540.3,-218.8"/>
<polygon fill="black" stroke="black" points="540.3,-222.3 550.3,-218.8 540.3,-215.3 540.3,-222.3"/>
</g>
</g>
</svg>
