<?xml version="1.0" encoding="UTF-8" standalone="no"?>
<!DOCTYPE svg PUBLIC "-//W3C//DTD SVG 1.1//EN"
 "http://www.w3.org/Graphics/SVG/1.1/DTD/svg11.dtd">
<!-- Generated by graphviz version 2.47.3 (20210619.1520)
 -->
<!-- Title: dependencies Pages: 1 -->
<svg width="354pt" height="247pt"
 viewBox="0.00 0.00 354.00 246.80" xmlns="http://www.w3.org/2000/svg" xmlns:xlink="http://www.w3.org/1999/xlink">
<g id="graph0" class="graph" transform="scale(1 1) rotate(0) translate(4 242.8)">
<title>dependencies</title>
<polygon fill="white" stroke="transparent" points="-4,4 -4,-242.8 350,-242.8 350,4 -4,4"/>
<text text-anchor="middle" x="173" y="-8.2" font-family="sans-serif" font-size="14.00">dependencies</text>
<g id="clust1" class="cluster">
<title>cluster_MetadataModule</title>
<polygon fill="none" stroke="black" stroke-dasharray="1,5" points="8,-32.8 8,-230.8 338,-230.8 338,-32.8 8,-32.8"/>
</g>
<g id="clust6" class="cluster">
<title>cluster_MetadataModule_providers</title>
<polygon fill="none" stroke="black" points="162,-40.8 162,-92.8 330,-92.8 330,-40.8 162,-40.8"/>
</g>
<g id="clust3" class="cluster">
<title>cluster_MetadataModule_imports</title>
<polygon fill="none" stroke="black" points="16,-40.8 16,-92.8 154,-92.8 154,-40.8 16,-40.8"/>
</g>
<g id="clust4" class="cluster">
<title>cluster_MetadataModule_exports</title>
<polygon fill="none" stroke="black" points="100,-170.8 100,-222.8 230,-222.8 230,-170.8 100,-170.8"/>
</g>
<!-- DynamodbModule -->
<g id="node1" class="node">
<title>DynamodbModule</title>
<polygon fill="#8dd3c7" stroke="black" points="145.76,-84.8 142.76,-88.8 121.76,-88.8 118.76,-84.8 24.24,-84.8 24.24,-48.8 145.76,-48.8 145.76,-84.8"/>
<text text-anchor="middle" x="85" y="-62.6" font-family="Times,serif" font-size="14.00">DynamodbModule</text>
</g>
<!-- MetadataModule -->
<g id="node2" class="node">
<title>MetadataModule</title>
<polygon fill="#8dd3c7" stroke="black" points="220.63,-149.8 217.63,-153.8 196.63,-153.8 193.63,-149.8 109.37,-149.8 109.37,-113.8 220.63,-113.8 220.63,-149.8"/>
<text text-anchor="middle" x="165" y="-127.6" font-family="Times,serif" font-size="14.00">MetadataModule</text>
</g>
<!-- DynamodbModule&#45;&gt;MetadataModule -->
<g id="edge1" class="edge">
<title>DynamodbModule&#45;&gt;MetadataModule</title>
<path fill="none" stroke="black" d="M127.53,-84.91C127.53,-84.91 127.53,-103.79 127.53,-103.79"/>
<polygon fill="black" stroke="black" points="124.03,-103.79 127.53,-113.79 131.03,-103.79 124.03,-103.79"/>
</g>
<!-- MetadataService  -->
<g id="node3" class="node">
<title>MetadataService </title>
<polygon fill="#fb8072" stroke="black" points="221.56,-214.8 108.44,-214.8 108.44,-178.8 221.56,-178.8 221.56,-214.8"/>
<text text-anchor="middle" x="165" y="-192.6" font-family="Times,serif" font-size="14.00">MetadataService </text>
</g>
<!-- MetadataModule&#45;&gt;MetadataService  -->
<g id="edge2" class="edge">
<title>MetadataModule&#45;&gt;MetadataService </title>
<path fill="none" stroke="black" stroke-dasharray="5,2" d="M165,-149.91C165,-149.91 165,-168.79 165,-168.79"/>
<polygon fill="black" stroke="black" points="161.5,-168.79 165,-178.79 168.5,-168.79 161.5,-168.79"/>
</g>
<!-- MetadataService -->
<g id="node4" class="node">
<title>MetadataService</title>
<ellipse fill="#fdb462" stroke="black" cx="246" cy="-66.8" rx="75.84" ry="18"/>
<text text-anchor="middle" x="246" y="-62.6" font-family="Times,serif" font-size="14.00">MetadataService</text>
</g>
<!-- MetadataService&#45;&gt;MetadataModule -->
<g id="edge3" class="edge">
<title>MetadataService&#45;&gt;MetadataModule</title>
<path fill="none" stroke="black" d="M195.45,-80.27C195.45,-80.27 195.45,-103.66 195.45,-103.66"/>
<polygon fill="black" stroke="black" points="191.95,-103.66 195.45,-113.66 198.95,-103.66 191.95,-103.66"/>
</g>
</g>
</svg>
