<?xml version="1.0" encoding="UTF-8" standalone="no"?>
<!DOCTYPE svg PUBLIC "-//W3C//DTD SVG 1.1//EN"
 "http://www.w3.org/Graphics/SVG/1.1/DTD/svg11.dtd">
<!-- Generated by graphviz version 2.47.3 (20210619.1520)
 -->
<!-- Title: dependencies Pages: 1 -->
<svg width="484pt" height="174pt"
 viewBox="0.00 0.00 484.00 173.80" xmlns="http://www.w3.org/2000/svg" xmlns:xlink="http://www.w3.org/1999/xlink">
<g id="graph0" class="graph" transform="scale(1 1) rotate(0) translate(4 169.8)">
<title>dependencies</title>
<polygon fill="white" stroke="transparent" points="-4,4 -4,-169.8 480,-169.8 480,4 -4,4"/>
<text text-anchor="middle" x="238" y="-8.2" font-family="sans-serif" font-size="14.00">dependencies</text>
<g id="clust1" class="cluster">
<title>cluster_ResourceModule</title>
<polygon fill="none" stroke="black" stroke-dasharray="1,5" points="8,-32.8 8,-157.8 468,-157.8 468,-32.8 8,-32.8"/>
</g>
<g id="clust3" class="cluster">
<title>cluster_ResourceModule_imports</title>
<polygon fill="none" stroke="black" points="192,-40.8 192,-92.8 460,-92.8 460,-40.8 192,-40.8"/>
</g>
<g id="clust6" class="cluster">
<title>cluster_ResourceModule_providers</title>
<polygon fill="none" stroke="black" points="16,-40.8 16,-92.8 184,-92.8 184,-40.8 16,-40.8"/>
</g>
<!-- DynamodbModule -->
<g id="node1" class="node">
<title>DynamodbModule</title>
<polygon fill="#8dd3c7" stroke="black" points="451.76,-84.8 448.76,-88.8 427.76,-88.8 424.76,-84.8 330.24,-84.8 330.24,-48.8 451.76,-48.8 451.76,-84.8"/>
<text text-anchor="middle" x="391" y="-62.6" font-family="Times,serif" font-size="14.00">DynamodbModule</text>
</g>
<!-- ResourceModule -->
<g id="node3" class="node">
<title>ResourceModule</title>
<polygon fill="#8dd3c7" stroke="black" points="311.64,-149.8 308.64,-153.8 287.64,-153.8 284.64,-149.8 200.36,-149.8 200.36,-113.8 311.64,-113.8 311.64,-149.8"/>
<text text-anchor="middle" x="256" y="-127.6" font-family="Times,serif" font-size="14.00">ResourceModule</text>
</g>
<!-- DynamodbModule&#45;&gt;ResourceModule -->
<g id="edge1" class="edge">
<title>DynamodbModule&#45;&gt;ResourceModule</title>
<path fill="none" stroke="black" d="M391,-84.91C391,-104.14 391,-131.8 391,-131.8 391,-131.8 321.69,-131.8 321.69,-131.8"/>
<polygon fill="black" stroke="black" points="321.69,-128.3 311.69,-131.8 321.69,-135.3 321.69,-128.3"/>
</g>
<!-- MetadataModule -->
<g id="node2" class="node">
<title>MetadataModule</title>
<polygon fill="#8dd3c7" stroke="black" points="311.63,-84.8 308.63,-88.8 287.63,-88.8 284.63,-84.8 200.37,-84.8 200.37,-48.8 311.63,-48.8 311.63,-84.8"/>
<text text-anchor="middle" x="256" y="-62.6" font-family="Times,serif" font-size="14.00">MetadataModule</text>
</g>
<!-- MetadataModule&#45;&gt;ResourceModule -->
<g id="edge2" class="edge">
<title>MetadataModule&#45;&gt;ResourceModule</title>
<path fill="none" stroke="black" d="M256,-84.91C256,-84.91 256,-103.79 256,-103.79"/>
<polygon fill="black" stroke="black" points="252.5,-103.79 256,-113.79 259.5,-103.79 252.5,-103.79"/>
</g>
<!-- ResourceService -->
<g id="node4" class="node">
<title>ResourceService</title>
<ellipse fill="#fdb462" stroke="black" cx="100" cy="-66.8" rx="75.84" ry="18"/>
<text text-anchor="middle" x="100" y="-62.6" font-family="Times,serif" font-size="14.00">ResourceService</text>
</g>
<!-- ResourceService&#45;&gt;ResourceModule -->
<g id="edge3" class="edge">
<title>ResourceService&#45;&gt;ResourceModule</title>
<path fill="none" stroke="black" d="M100,-84.91C100,-104.14 100,-131.8 100,-131.8 100,-131.8 190.12,-131.8 190.12,-131.8"/>
<polygon fill="black" stroke="black" points="190.12,-135.3 200.12,-131.8 190.12,-128.3 190.12,-135.3"/>
</g>
</g>
</svg>
