<svg version="1.1" aria-label="Body" xmlns="http://www.w3.org/2000/svg" x="0" y="0" viewBox="0 0 612 722.6">
    <style>
        .st0{fill:#eee;stroke:#000;stroke-linejoin:round;stroke-miterlimit:1.4142}
    </style>
    <path id="Front" class="st0" d="M153.2 410.3c-1 12.3 11.1 77.6 15.4 103.1 2 12.1 7.7 31.7 5.6 42.2-2.9 14.6-3.7 33.4-2.1 44.4 1 6.7 4.2 37.4-.4 48.6-2.4 5.9-6.7 36.1-6.7 36.1-11.3 28.5-4.9 27-4.9 27 3.5 4.3 9.5.3 9.5.3 4.6 2.9 7.7-.7 7.7-.7 3.9 3.2 8.5-.4 8.5-.4 4.9 2.5 9.5-2.1 9.5-2.1 2.8 1.4 3.5-.4 3.5-.4 8.5-.5-4.7-27.6-4.7-27.6-3.2-24.3 3.1-37.8 3.1-37.8 20.6-61.1 21.6-77.3 13.4-100.3-2.3-6.6-2.9-9.3-1.8-12.2 2.5-6.7.7-33.4 3.7-44.1 5.8-20.5 11.5-72.5 14.5-96.8 4-32.7-14.2-76.5-14.2-76.5-4-17.8 1.9-81.4 1.9-81.4 8.2 12.7 7.9 35.1 7.9 35.1-1.3 23.5 19 59.5 19 59.5 9.8 14.9 13.5 29 13.5 30 0 4.3-.9 14.6-.9 14.6l.4 9c.2 2.3 1.5 10.2 1.3 14-1.5 23.5 2.2 19.1 2.2 19.1 3.2 0 6.6-18.9 6.6-18.9 0 4.9-1.2 19.5 1.4 25 3.2 6.6 5.5-1.1 5.5-2.7.8-30 2.6-22.1 2.6-22.1 1.8 24.3 3.9 29.8 7.8 27.9 2.9-1.4.3-29.2.3-29.2 5 16.5 8.8 19.1 8.8 19.1 8.3 5.8 3.2-10.2 2-13.4-6.1-16.9-6.3-22.7-6.3-22.7 7.6 15.2 13.4 14.6 13.4 14.6 7.5-2.4-6.5-23.9-14.7-34.1-4.2-5.2-9.6-12.3-11.1-16.4-2.5-7.1-4.5-29.8-4.5-29.8-.8-26.8-7.4-38.4-7.4-38.4C251.2 253.8 249 220 249 220l-.5-57.1c-4-38.9-32.6-39.2-32.6-39.2-29-4.3-33-13.7-33-13.7-6.1-8.8-2.6-25.8-2.6-25.8 5.1-4.1 7.1-15.1 7.1-15.1 8.5-6.5 8-16 4.1-15.9-3.1.1-2.4-2.5-2.4-2.5C194 8.2 156.1 6 156.1 6h-5.8s-38 2.2-32.7 44.9c0 0 .7 2.6-2.5 2.5-3.9-.1-4.3 9.4 4.2 15.9 0 0 2 11 7.1 15.1 0 0 3.5 16.9-2.6 25.8 0 0-4 9.4-33 13.7 0 0-28.7.3-32.6 39.2l-.5 57.1s-2.1 33.8-13.5 51.9c0 0-6.6 11.6-7.4 38.4 0 0-1.9 22.7-4.5 29.8-1.5 4.1-6.9 11.2-11.1 16.4-8.3 10.2-22.2 31.7-14.8 34.1 0 0 5.8.6 13.4-14.6 0 0-.2 5.8-6.3 22.7-1.2 3.1-6.3 19.2 2 13.4 0 0 3.8-2.6 8.8-19.1 0 0-2.7 27.8.3 29.2 3.9 1.9 6-3.6 7.8-27.9 0 0 1.8-7.9 2.6 22.1 0 1.5 2.3 9.3 5.5 2.7 2.7-5.5 1.5-20.1 1.5-25 0 0 3.4 18.9 6.6 18.9 0 0 3.8 4.4 2.2-19.1-.3-3.8 1.1-11.7 1.3-14l.4-9s-.9-10.3-.9-14.6c0-1.1 3.7-15.1 13.5-30 0 0 20.3-36 19-59.5 0 0-.3-22.4 7.9-35.1 0 0 5.8 63.6 1.9 81.4 0 0-18.2 43.8-14.2 76.5 3 24.3 8.7 76.3 14.5 96.8 3 10.6 1.2 37.4 3.7 44.1 1.1 2.9.5 5.6-1.8 12.2-8.2 23-7.1 39.2 13.5 100.3 0 0 6.3 13.5 3.1 37.8 0 0-13.2 27.1-4.7 27.6 0 0 .7 1.8 3.5.4 0 0 4.6 4.7 9.5 2.1 0 0 4.6 3.6 8.4.4 0 0 3.1 3.6 7.7.7 0 0 6 4 9.5-.3 0 0 6.3 1.4-4.9-27 0 0-4.3-30.2-6.7-36.1-4.5-11.2-1.3-42-.4-48.6 1.6-11 .7-29.8-2.1-44.4-2.1-10.4 3.6-30.1 5.6-42.2 4.1-25.7 15.1-103.3 15.1-103.3z"/>
    <path id="Back" class="st0" d="M455.276 409.959c-.999 12.29 11.091 77.536 15.387 103.015 1.998 12.09 7.694 31.673 5.595 42.165-2.897 14.588-3.697 33.372-2.098 44.363.999 6.694 4.197 37.369-.4 48.559C471.362 653.957 468 686 468 686c-2.131 19.135 5.76 21.812 5.76 21.812C482.843 709.643 498 704 498 704c52.571-15.858 0-18 0-18-3.197-24.28 1.239-43.534 1.239-43.534 20.583-61.049 21.582-77.236 13.389-100.217-2.298-6.594-2.898-9.292-1.798-12.189 2.497-6.695.699-33.373 3.697-44.064 5.795-20.483 11.49-72.44 14.487-96.719 3.997-32.673-14.188-76.437-14.188-76.437-3.996-17.785 1.899-81.332 1.899-81.332 8.193 12.689 7.893 35.07 7.893 35.07-1.299 23.481 18.984 59.451 18.984 59.451 9.792 14.888 13.489 28.976 13.489 29.975 0 4.297-.899 14.588-.899 14.588l.4 8.993c.199 2.298 1.498 10.191 1.298 13.988-1.498 23.48 2.199 19.084 2.199 19.084 3.197 0 6.594-18.884 6.594-18.884 0 4.896-1.199 19.484 1.399 24.979 3.197 6.595 5.495-1.099 5.495-2.698.8-29.975 2.598-22.081 2.598-22.081 1.799 24.279 3.897 29.775 7.794 27.876 2.897-1.398.3-29.175.3-29.175 4.995 16.486 8.792 19.084 8.792 19.084 8.293 5.795 3.198-10.192 1.999-13.389-6.095-16.886-6.295-22.681-6.295-22.681 7.593 15.187 13.389 14.588 13.389 14.588 7.493-2.398-6.495-23.88-14.688-34.072-4.197-5.196-9.592-12.29-11.091-16.386-2.498-7.095-4.496-29.776-4.496-29.776-.8-26.777-7.394-38.368-7.394-38.368-11.59-17.885-13.689-51.657-13.689-51.657l-.499-57.052c-3.997-38.868-32.673-39.168-32.673-39.168-28.976-4.296-32.973-13.689-32.973-13.689-6.095-8.792-2.598-25.778-2.598-25.778 5.096-4.097 7.095-15.088 7.095-15.088 8.493-6.494 7.993-15.986 4.096-15.886-3.097.1-2.398-2.498-2.398-2.498 5.296-42.665-32.673-44.863-32.673-44.863h-5.795s-37.868 2.198-32.673 44.863c0 0 .7 2.598-2.498 2.498-3.896-.1-4.296 9.392 4.197 15.886 0 0 1.998 10.991 7.094 15.088 0 0 3.497 16.886-2.598 25.778 0 0-3.997 9.393-32.972 13.689 0 0-28.677.3-32.573 39.168l-.5 57.052s-2.098 33.772-13.489 51.857c0 0-6.594 11.59-7.394 38.368 0 0-1.898 22.681-4.496 29.775-1.499 4.097-6.894 11.191-11.091 16.387-8.293 10.291-22.081 31.673-14.687 34.071 0 0 5.795.6 13.388-14.587 0 0-.199 5.795-6.294 22.681-1.199 3.097-6.295 19.184 1.998 13.389 0 0 3.797-2.598 8.793-19.084 0 0-2.698 27.776.299 29.175 3.897 1.899 5.995-3.597 7.794-27.877 0 0 1.798-7.893 2.598 22.082 0 1.499 2.298 9.292 5.495 2.698 2.698-5.496 1.499-20.083 1.499-24.979 0 0 3.397 18.884 6.595 18.884 0 0 3.796 4.396 2.198-19.084-.3-3.797 1.099-11.691 1.299-13.989l.399-8.992s-.899-10.292-.899-14.588c0-1.099 3.697-15.087 13.489-29.975 0 0 20.283-35.97 18.984-59.451 0 0-.3-22.381 7.893-35.071 0 0 5.796 63.548 1.899 81.333 0 0-18.185 43.763-14.188 76.436 2.997 24.28 8.692 76.237 14.488 96.72 2.997 10.591 1.199 37.369 3.697 44.063 1.099 2.898.499 5.596-1.799 12.19-8.193 22.981-7.094 39.168 13.489 100.217 0 0 4.385 19.054 1.188 43.334 0 0-45.005.979 1 18 0 0 11.24 5.513 23.191 4.411 0 0 11.871.474 6.694-24.08 0 0-4.296-30.175-6.694-36.07-4.497-11.19-1.299-41.965-.4-48.559 1.599-10.991.7-29.776-2.098-44.364-2.098-10.391 3.597-30.074 5.595-42.164 3.997-25.679 14.988-103.215 14.988-103.215Z"/>
    <path id="Trapezius" d="M450.5 265.3c.3 1.3 2.6-10.3 5.4-9 2.9 1.3 6.4 9 6.4 8.7-.9-9.5 7.6-24.2 13.8-34.3 6.7-10.9 10.2-11.5 14.7-25.6 1.8-5.6 0-42.3 7.7-55.8s13.1-12.1 18.9-15.4c1.3-.7-47.2-4.6-51.4-37.3-.7-5.4-.7-10.3.1-15.3.9-4.9-25.2-6.9-26.6-.3-2.1 10.1 15.9 39-45.5 48.4-4.3.7 12.7 7.2 22.1 21.5 2.3 3.5 2.2 11.7 9.3 58 1.6 10.4 22 41 25.1 56.4z"/>
    <path id="Right_Lat" d="M466.966 262.182s17.585 17.885 19.484 28.576c1.898 10.691 1.898 26.978 11.091 25.479.1 0-3.098-3.996 1.099-11.29 14.588-25.08 13.988-54.255 13.988-54.255l1.299-45.762s-8.593 2.897-19.384-4.197c-2.198-1.399-.899 16.586-11.291 25.979-4.396 3.796-20.482 24.779-16.286 35.47Z"/>
    <path id="Left_Lat" d="M444.185 262.182s-17.585 17.885-19.484 28.576c-1.898 10.691.5 25.741-8.693 24.242-.1 0 .7-2.759-3.497-10.053-14.588-25.08-15.287-54.255-15.287-54.255V207s8.593.827 19.384-6.267c2.198-1.399.899 16.586 11.29 25.979 4.397 3.796 20.483 24.779 16.287 35.47Z"/>
    <path id="Right_Tricep" d="M516.825 170.958s12.889-7.594 17.485-5.396c4.596 2.199 12.989 16.187 13.988 21.982-1.304 14.785 2.702 51.557 2.702 51.557s.895 5.795-3.701 7.194c-4.496 1.399-3.896-11.89-7.294-13.389-3.397-1.498-.2 10.292-3.597 11.291-3.397.899-13.488-3.197-13.488-3.197l-7.594-18.985c-.1 0 7.094-40.866 1.499-51.057Z"/>
    <path id="Left_Tricep" d="M393.727 170.059s-12.889-7.694-17.486-5.496c-4.596 2.198-12.989 16.387-13.988 22.282C362.702 204.289 360 238 360 238s-1.344 6.896 3.252 8.295c4.496 1.399 3.897-12.09 7.294-13.588 3.397-1.499.2 10.491 3.597 11.39 3.397.899 13.489-3.197 13.489-3.197l7.594-19.184c.1 0-7.094-41.366-1.499-51.657Z"/>
    <path id="Left_Glute" d="M404.4 312.3c2.8-.5 47.1 21.6 49.5 55.8 2.4 34.1-24.1 46.4-46.5 40.4s-20.7-32.7-20.1-39.1c.4-4.6 4.4-14.9 8-39.8.7-4.4 6.3-16.8 9.1-17.3z"/>
    <path id="Right_Glute" d="M512.8 316.5c-2.5-1-47.2 12.3-55.6 45.3-8.3 33 13.9 50.1 35.6 48.5 21.7-1.6 24.9-28.1 25.5-34.5.4-4.6-1.4-15.4-.3-40.6.2-4.4-2.7-17.7-5.2-18.7z"/>
    <path id="Right_Hamstring" d="M465.967 411.958s42.864 1.698 49.659-4.297c6.794-5.995 5.595 33.674-2.998 75.339-5.948 41.076-2.429 42.099-3.628 41-9.648-7.199-13.058-25.614-13.658-25.115-.499.4-19.783 28.876-16.686 51.058.2 1.299-15.958-100.716-18.656-113.106-2.798-12.19-4.564-24.729 5.967-24.879Z"/>
    <path id="Left_Hamstring" d="M444.685 411.958s-42.665 1.698-49.459-4.297c-6.795-5.995-6.595 32.673 1.998 74.338 5.277 39.508 2.577 44.1 3.776 43.001 8.559-6.238 13.809-26.614 14.409-26.115.499.4 19.684 28.876 16.586 51.058-.2 1.299 15.687-106.553 18.385-118.943 2.698-12.19 2.897-18.643-5.695-19.042Z"/>
    <path id="Right_Calf" d="M496.741 528.96s-19.484 24.68-20.782 34.772c-3.074 18.944 1.239 55.802 1.998 67.244 2.698 6.194 15.987-13.789 19.284-26.279 3.297-12.489-3.534 11.591 4.759 20.583 1.399 1.499 16.762-48.878 13.326-66.28-3.792-17.496-5.191-17.496-6.326-25-.433-16.022-7.163-5.04-8.762 2.354-1.598 7.394-3.497-7.394-3.497-7.394Z"/>
    <path id="Left_Calf" d="M414.51 528.96S433.701 554.908 435 565c1.511 24.826-2.11 51.005-3.005 65.976-2.698 6.194-14.688-13.789-17.985-26.279-3.297-12.489 3.283 11.591-5.01 20.583-1.399 1.499-16.143-44.089-13.774-61.548 1.589-19.091 8.273-22.241 6.774-32.732 1.089-8.709 7.414-2.04 9.013 5.354 1.598 7.394 3.497-7.394 3.497-7.394Z"/>
    <path id="Right_Ankle" d="M472 678.636s-1.993-20.183 6-39.167c0 0 11.248 10.891 6.951 37.269 0 0 2.359-29.376 14.049-42.665 0 0-5.556 21.882-2.958 45.462 0 0-12.651 9.892-24.042-.899Z"/>
    <path id="Left_Ankle" d="M441 676.937s-1.107-19.953-9-38.937c0 0-8.098 10.661-3.802 37.039 0 0-5.508-27.677-17.198-40.966 0 0 6.598 20.983 4 44.563 0 .1 14.609 9.192 26-1.699Z"/>
    <path id="Left_Rear_Deltoid" d="M387 131.8s-13 0-21.9 28.3c0 0 17-3.2 27.3 6.1 0 0 11.5-10.1 9.1-17.2 0 0 3-8.3-14.5-17.2z"/>
    <path id="Right_Rear_Deltoid" d="M524.6 132.8s13 0 21.9 28.3c0 0-17-3.2-27.3 6.1 0 0-11.5-10.1-9.1-17.2 0 0-3-8.3 14.5-17.2z"/>
    <path id="Lower_Back" d="M427.5 317.3s-3.7-39.5 27-47.4c0 0 30-3.4 29.4 47.4 0 0-10.7 5.4-28.2 27.8-.1 0-10.5-16.2-28.2-27.8z"/>
    <path id="Left_Elbow" d="M356.5 254.5s13.4-18 26 0c0 0 3.1 11-16.6 21.4 0 0-11.7.2-9.4-21.4z"/>
    <path id="Right_Elbow" d="M554.3 253.5s-13.4-18-26 0c0 0-3.1 11 16.6 21.4 0 0 11.7.2 9.4-21.4z"/>
    <path id="Right_Hand_Fingers" d="M587.128 362s-19.314-29.066-27.277 2.618c0 0-6.529 23.544 16.586 21.382 0 0 18.404-9.98 10.691-24Z"/>
    <path id="Left_Hand_Fingers" d="M324 362s19.314-29.066 27.278 2.618c0 0 6.529 23.544-16.587 21.382 0 0-18.403-9.98-10.691-24Z"/>
    <path id="Right_Deltoid" d="M124.251 131.99S79.794 110.771 64.401 146c-6.495 13.489-2.598 54.134-2.398 56.132.099 1.299 12.789-27.377 23.68-33.472 1.898-.999-.5-28.876 38.568-36.67Z"/>
    <path id="Left_Deltoid" d="M182.502 131.99S225.315 109.33 243 146c6.495 13.489 1.951 54.134 1.751 56.132-.1 1.299-12.79-27.377-23.681-33.472-1.898-.999.5-28.876-38.568-36.67Z"/>
    <path id="Right_Bicep" d="M87.7 169.6s3.8 58.4-.6 61c-5.1 3-7.8 31.8-7.8 31.8s-2.6-7.3-5.5-7c-2.9.3-8.4 5.8-9.6 7.8-1.1 1.9-18.1-60.2 23.5-93.6z"/>
    <path id="Left_Bicep" d="M220.9 177.2s-3.8 58.4.7 61c5.1 3 7.8 31.8 7.8 31.8s2.6-7.3 5.5-7c2.9.3 8.4 5.8 9.6 7.8 1.1 1.9 18.1-60.2-23.6-93.6z"/>
    <path id="Right_Pectoral" d="M146.2 139c-1.1 13.9 7 31.1 7.1 41.5.1 14-1.1 25.4-26 28.2-19.9 2.2-24.4-6-30.9-10.2-4-2.6-5.3-29.1-8.9-33.1-2.5-2.7 13.9-31 36.6-30.8 22.8.2 22.4 1.4 22.1 4.4z"/>
    <path id="Left_Pectoral" d="M160.4 139c1.1 13.9-7 31.1-7.1 41.5-.1 14 1.1 25.4 26 28.2 19.9 2.2 24.4-6 30.9-10.2 4-2.6 5.3-29.1 9-33.1 2.5-2.7-13.9-31-36.6-30.8-22.8.2-22.4 1.4-22.2 4.4z"/>
    <path id="Right_Oblique" d="M125.2 218s4.9 110.6 0 114.6c-4.8 4-5.8-22.1-23.6-25-3.3-.6-.6-59.9-8.5-74.1-8-14.2 28.7-20.1 32.1-15.5z"/>
    <path id="Left_Oblique" d="M180.5 218s-4.9 110.6 0 114.6c4.8 4 5.8-22.1 23.6-25 3.3-.6.6-59.9 8.5-74.1 8-14.2-28.7-20.1-32.1-15.5z"/>
    <path id="Right_Quad" d="M109.863 332.624s37.069 82.131 34.271 120.599C141.337 491.691 137 504.208 137 514c0 9.792 2.838-13.816-9.452-13.916-14.388-.099-25.079 11.591-28.976 24.38-.599 1.799-1.998-36.47-1.998-36.47S92.397 477.403 89 442.033c-5.096-53.756 33.552-73.04 20.863-109.409Z"/>
    <path id="Left_Quad" d="M195.991 332.624s-38.468 82.131-35.67 120.599C164.294 482.688 170 504.208 170 514c0 9.792-1.186-13.816 11.104-13.916 14.388-.099 22.281 11.591 26.178 24.38.599 1.799 2.997-36.47 2.997-36.47S214.603 475.371 218 440c4.996-53.755-34.798-71.007-22.009-107.376Z"/>
    <path id="Right_Knee" d="M129.8 535.8s0 12.4-5.5 18.3-21.3 4.6-23.4-18.3c-2.1-22.8 15.8-32 28.9-13 0 0 1.3 3 0 13z"/>
    <path id="Left_Knee" d="M175.5 535.8s0 12.4 5.5 18.3 21.3 4.6 23.4-18.3c2.1-22.8-15.8-32-28.9-13 0 0-1.4 3 0 13z"/>
    <path id="Right_Shin" d="M98.7 568.1s16.1-15 29.6 3.3c0 0-8.7 69.6-3.1 88 .1-.1-20.2-47.4-26.5-91.3z"/>
    <path id="Left_Shin" d="M208.5 568.1s-16.1-15-29.6 3.3c0 0 8.7 69.6 3.1 88 0-.1 20.3-47.4 26.5-91.3z"/>
    <path id="Right_Wrist" d="M28 351.408s5.414 9.392 22 4.996l1.411-5.695s-9.292-2.099-8.393-13.989c0 0-4.423 11.191-11.018 8.393l-4 6.295Z"/>
    <path id="Left_Wrist" d="M281 355.604s-6.015 11.591-24 6.795v-5.995s9.433-3.098 8.533-16.187c0 0 6.395 13.589 13.589 10.492l1.878 4.895Z"/>
    <path id="Right_Forearm" d="M53.1 265.4s19.2 4.9 23.4 17.8c0 0-6.9 24.9-25.3 53.8 0 0-3 1.4-11.6-4-.1-.1 5.4-53.3 13.5-67.6z"/>
    <path id="Left_Forearm" d="M253.7 269.8s-19.2 4.9-23.4 17.8c0 0 6.9 24.9 25.3 53.8 0 0 3 1.4 11.6-4 .1-.1-5.4-53.4-13.5-67.6z"/>
    <path id="Left_Hip" d="m208 316.3-13.5 12.8s33.5 45.8 31.2 57.8c0 0 4.3-45.2-17.7-70.6z"/>
    <path id="Right_Hip" d="m95.974 318.236 13.189 12.789S81.755 373.681 83 388.677c0 .1-8.303-27.151 12.974-70.441Z"/>
    <path id="Right_Adductor" d="M118.955 336.42s27.977 85.499 27.377 108.58L150 415.555l2.827-34.971s-10.791-35.87-31.274-48.46c.1 0-3.297-.6-2.598 4.296Z"/>
    <path id="Left_Adductor" d="M187.698 337.02S158.7 421.819 159 445l-4-29.445L153.926 380s10.591-34.887 31.174-47.277c0 0 3.397-.599 2.598 4.297Z"/>
    <path id="Abs" d="M127.4 216.3s25.6-30.6 51 0c0 0 1.7 96.5-5 121 0 0-20.5 17.3-41.4 0-.1.1-6.1-46.3-4.6-121z"/>
    <path id="Right_Neck" d="M143 120c-4.893 8.251-25.505 6.197-32 2 22.757 3.303 22.597-33.873 19-37.87 2.723-1.799 17.199 21.025 13 35.87Z"/>
    <path id="Left_Neck" d="M163.357 120c7.075 6.937 24.341 6.197 30.836 2-22.757 3.303-22.597-33.873-19-37.87-2.724-1.799-16.036 21.025-11.836 35.87Z"/>
    <path id="Right_Foot" d="M118.955 666s5.679-11.854 16.045-1.317c0 0 1.724 29.222 9 40.317 0 0-25.608 3.958-34.137-2-.041.034 8.48-11.276 9.092-37Z"/>
    <path id="Left_Foot" d="M188.08 666s-5.679-11.854-16.045-1.317c0 0-1.724 29.222-9 40.317 0 0 25.607 3.958 34.137-2 .041.034-8.48-11.276-9.092-37Z"/>
</svg>