<svg xmlns="http://www.w3.org/2000/svg" viewBox="0 0 300.96 55.992" id="Emotion">

    <g stroke="#000">
        <path fill="#fff" stroke-width="2.5"
              d="M193.52 1210.2c0 7.0122-4.9005 12.697-10.946 12.697-6.0451 0-10.946-5.6846-10.946-12.697 0-7.0123 4.9005-12.697 10.946-12.697 6.0451 0 10.946 5.6846 10.946 12.697z"
              transform="matrix(2.1835 0 0 2.0088 -248.1739 -2402.8649)"/>
        <path stroke-width="4.1445"
              d="M144.7098 17.0274c0 2.806-.9749 5.0807-2.1775 5.0807-1.2026 0-2.1775-2.2747-2.1775-5.0807s.9748-5.0808 2.1775-5.0808c1.2026 0 2.1775 2.2748 2.1775 5.0808zm15.2518 0c0 2.806-.975 5.0807-2.1776 5.0807-1.2025 0-2.1775-2.2747-2.1775-5.0807s.9749-5.0808 2.1775-5.0808c1.2026 0 2.1776 2.2748 2.1776 5.0808z"/>
        <path fill="none" stroke-width="4.3103" d="m139.5872 36.6873 21.049.7258"/>
    </g>
    <g stroke="#000" stroke-width="2.5"  >
        <path fill="#fff"
              d="M193.52 1210.2c0 7.0122-4.9005 12.697-10.946 12.697-6.0451 0-10.946-5.6846-10.946-12.697 0-7.0123 4.9005-12.697 10.946-12.697 6.0451 0 10.946 5.6846 10.946 12.697z"
              transform="matrix(2.1835 0 0 2.0088 -310.0968 -2402.806)"/>
        <path fill="#fff"
              d="M192.13 1216.4c-2.9501 6.1205-9.6189 8.3081-14.895 4.886-1.7363-1.126-3.1752-2.7797-4.162-4.7832"
              transform="matrix(1.37665 0 0 1.26646 -163.1013 -1502.2725)"/>
        <path stroke-width="4.1445"
              d="M82.7919 17.0797c0 2.806-.9749 5.0806-2.1775 5.0806-1.2026 0-2.1775-2.2746-2.1775-5.0806s.9748-5.0809 2.1775-5.0809c1.2026 0 2.1775 2.2749 2.1775 5.0809zm15.2351 0c0 2.806-.9748 5.0806-2.1774 5.0806s-2.1776-2.2746-2.1776-5.0806.975-5.0809 2.1776-5.0809c1.2025 0 2.1775 2.2749 2.1775 5.0809z"/>
    </g>

    <g stroke="#000" stroke-width="2.5">
        <path fill="#fff"
              d="M193.52 1210.2c0 7.0122-4.9005 12.697-10.946 12.697-6.0451 0-10.946-5.6846-10.946-12.697 0-7.0123 4.9005-12.697 10.946-12.697 6.0451 0 10.946 5.6846 10.946 12.697z"
              transform="matrix(2.1835 0 0 2.0088 -186.2494 -2402.8649)"/>
        <path fill="#fff"
              d="M192.13 1216.4c-2.9501 6.1205-9.6189 8.3081-14.895 4.886-1.7363-1.126-3.1752-2.7797-4.162-4.7832"
              transform="matrix(1.37665 0 0 -1.26646 -39.2473 1582.42)"/>
        <path fill="#fff" stroke-width="4.1445"
              d="M206.6376 17.0274c0 2.806-.975 5.0807-2.1776 5.0807s-2.1775-2.2747-2.1775-5.0807.9749-5.0808 2.1775-5.0808c1.2026 0 2.1776 2.2748 2.1776 5.0808z"/>
        <path stroke-width="4.1445"
              d="M221.8727 17.0274c0 2.806-.9749 5.0807-2.1775 5.0807-1.2026 0-2.1775-2.2747-2.1775-5.0807s.9749-5.0808 2.1775-5.0808c1.2026 0 2.1775 2.2748 2.1775 5.0808z"/>
    </g>
    <g stroke="#000">
        <path fill="#fff" stroke-width="2.5"
              d="M193.52 1210.2c0 7.0122-4.9005 12.697-10.946 12.697-6.0451 0-10.946-5.6846-10.946-12.697 0-7.0123 4.9005-12.697 10.946-12.697 6.0451 0 10.946 5.6846 10.946 12.697z"
              transform="matrix(2.1835 0 0 2.0088 -124.335 -2402.8014)"/>
        <path stroke-width="4.1445"
              d="M285.0354 20.4795c1.2393 2.5175 1.3694 4.9888.2904 5.52-1.079.5312-2.9583-1.079-4.1976-3.5964s-1.3695-4.989-.2905-5.5202c1.0789-.5311 2.9583 1.0792 4.1977 3.5966zm-16.8194 2.0887c-1.4543 2.3997-3.4669 3.8398-4.4954 3.2165-1.0285-.6232-.6834-3.0738.7708-5.4736s3.467-3.84 4.4955-3.2167c1.0285.6233.6833 3.074-.771 5.4738z"/>
        <path fill="none" stroke-width="4.3103" d="M262.5624 44.5756c5.4445-18.4281 17.7981-15.5416 17.566 1.3066"/>
    </g>
    <g stroke="#000" stroke-width="2.5">
        <path fill="#fff"
              d="M193.52 1210.2c0 7.0122-4.9005 12.697-10.946 12.697-6.0451 0-10.946-5.6846-10.946-12.697 0-7.0123 4.9005-12.697 10.946-12.697 6.0451 0 10.946 5.6846 10.946 12.697z"
              transform="matrix(2.1835 0 0 2.0088 -372.0104 -2402.836)"/>
        <path fill="#fff"
              d="M193.52 1210.2c0 7.0122-4.9005 12.697-10.946 12.697-6.0451 0-10.946-5.6846-10.946-12.697h10.946z"
              transform="matrix(1.37665 0 0 1.26646 -225.015 -1502.3025)"/>
        <path stroke-width="4.1445"
              d="M20.8782 17.0547c0 2.806-.9749 5.0806-2.1775 5.0806-1.2026 0-2.1775-2.2746-2.1775-5.0806s.9748-5.0809 2.1775-5.0809c1.2026 0 2.1775 2.2749 2.1775 5.0809zm15.2418 0c0 2.806-.9749 5.0806-2.1775 5.0806-1.2026 0-2.1775-2.2746-2.1775-5.0806s.9749-5.0809 2.1775-5.0809c1.2026 0 2.1775 2.2749 2.1775 5.0809z"/>
    </g>
</svg>