<svg xmlns="http://www.w3.org/2000/svg" viewBox="0 0 300.96 55.992" id="Emotion">

    <g id="Very_Happy">
        <path fill="none" stroke="#000" stroke-width="2.5"
              d="M193.52 1210.2c0 7.012-4.9 12.697-10.946 12.697-6.045 0-10.946-5.685-10.946-12.697s4.9-12.697 10.946-12.697c6.045 0 10.946 5.685 10.946 12.697z"
              transform="matrix(2.1835 0 0 2.0088 -372.01 -2402.836)"/>
        <path fill="none" stroke="#000" stroke-width="2.5"
              d="M193.52 1210.2c0 7.012-4.9 12.697-10.946 12.697-6.045 0-10.946-5.685-10.946-12.697h10.946z"
              transform="matrix(1.37665 0 0 1.26646 -225.015 -1502.302)"/>
        <path stroke="#000" stroke-width="4.1445"
              d="M20.878 17.055c0 2.806-.975 5.08-2.177 5.08-1.203 0-2.178-2.274-2.178-5.08s.975-5.081 2.178-5.081c1.202 0 2.177 2.275 2.177 5.08zM36.12 17.055c0 2.806-.975 5.08-2.178 5.08-1.202 0-2.177-2.274-2.177-5.08s.975-5.081 2.177-5.081c1.203 0 2.178 2.275 2.178 5.08z"/>
    </g>

    <g id="Somewhat_Happy">
        <path fill="none" stroke="#000" stroke-width="2.5"
              d="M193.52 1210.2c0 7.012-4.9 12.697-10.946 12.697-6.045 0-10.946-5.685-10.946-12.697s4.9-12.697 10.946-12.697c6.045 0 10.946 5.685 10.946 12.697z"
              transform="matrix(2.1835 0 0 2.0088 -310.097 -2402.806)"/>
        <path fill="none" stroke="#000" stroke-width="2.5"
              d="M192.13 1216.4c-2.95 6.12-9.619 8.308-14.895 4.886-1.736-1.126-3.175-2.78-4.162-4.783"
              transform="matrix(1.37665 0 0 1.26646 -163.101 -1502.272)"/>
        <path stroke="#000" stroke-width="4.1445"
              d="M82.792 17.08c0 2.806-.975 5.08-2.178 5.08-1.202 0-2.177-2.274-2.177-5.08s.975-5.081 2.177-5.081c1.203 0 2.178 2.275 2.178 5.08zM98.027 17.08c0 2.806-.975 5.08-2.177 5.08-1.203 0-2.178-2.274-2.178-5.08s.975-5.081 2.178-5.081c1.202 0 2.177 2.275 2.177 5.08z"/>
    </g>

    <g id="Neutral">
        <path fill="none" stroke="#000" stroke-width="2.5"
              d="M193.52 1210.2c0 7.012-4.9 12.697-10.946 12.697-6.045 0-10.946-5.685-10.946-12.697s4.9-12.697 10.946-12.697c6.045 0 10.946 5.685 10.946 12.697z"
              transform="matrix(2.1835 0 0 2.0088 -248.174 -2402.865)"/>
        <path stroke="#000" stroke-width="4.1445"
              d="M144.71 17.027c0 2.806-.975 5.081-2.178 5.081-1.202 0-2.177-2.275-2.177-5.08s.975-5.081 2.177-5.081c1.203 0 2.178 2.274 2.178 5.08zM159.962 17.027c0 2.806-.975 5.081-2.178 5.081-1.203 0-2.177-2.275-2.177-5.08s.974-5.081 2.177-5.081 2.178 2.274 2.178 5.08z"/>
        <path stroke="#000" stroke-width="4.31028" d="m139.587 36.687 21.05.726"/>
    </g>

    <g id="Somewhat_Unhappy">
        <path fill="none" stroke="#000" stroke-width="2.5"
              d="M193.52 1210.2c0 7.012-4.9 12.697-10.946 12.697-6.045 0-10.946-5.685-10.946-12.697s4.9-12.697 10.946-12.697c6.045 0 10.946 5.685 10.946 12.697z"
              transform="matrix(2.1835 0 0 2.0088 -186.25 -2402.865)"/>
        <path fill="none" stroke="#000" stroke-width="2.5"
              d="M192.13 1216.4c-2.95 6.12-9.619 8.308-14.895 4.886-1.736-1.126-3.175-2.78-4.162-4.783"
              transform="matrix(1.37665 0 0 -1.26646 -39.247 1582.42)"/>
        <path fill="none" stroke="#000" stroke-width="4.1445"
              d="M206.638 17.027c0 2.806-.975 5.081-2.178 5.081-1.203 0-2.177-2.275-2.177-5.08s.974-5.081 2.177-5.081 2.178 2.274 2.178 5.08z"/>
        <path stroke="#000" stroke-width="4.1445"
              d="M221.873 17.027c0 2.806-.975 5.081-2.178 5.081-1.202 0-2.177-2.275-2.177-5.08s.975-5.081 2.177-5.081c1.203 0 2.178 2.274 2.178 5.08z"/>

    </g>

    <g id="Very_Unhappy">
        <path fill="none" stroke="#000" stroke-width="2.5"
              d="M193.52 1210.2c0 7.012-4.9 12.697-10.946 12.697-6.045 0-10.946-5.685-10.946-12.697s4.9-12.697 10.946-12.697c6.045 0 10.946 5.685 10.946 12.697z"
              transform="matrix(2.1835 0 0 2.0088 -124.335 -2402.801)"/>
        <path stroke="#000" stroke-width="4.1445"
              d="M285.035 20.48c1.24 2.517 1.37 4.988.29 5.52-1.078.53-2.957-1.08-4.197-3.597s-1.37-4.989-.29-5.52c1.079-.531 2.958 1.08 4.197 3.597zM268.216 22.568c-1.454 2.4-3.467 3.84-4.495 3.217-1.029-.624-.684-3.074.77-5.474s3.467-3.84 4.496-3.217c1.028.624.683 3.074-.771 5.474z"/>
        <path fill="none" stroke="#000" stroke-width="4.31028" d="M262.562 44.576c5.445-18.429 17.799-15.542 17.566 1.306"/>
    </g>

</svg>