<svg xmlns="http://www.w3.org/2000/svg" viewBox="0 0 800 235.91" id="PainScale">
    <path d="M49.13 56.14h68.12v17.03H49.13z" />
    <path d="M117.25 56.14h68.12v17.03h-68.12z" />
    <path d="M185.38 56.14h68.12v17.03h-68.12z" />
    <path d="M253.5 56.14h68.12v17.03H253.5z" />
    <path d="M321.62 56.14h68.12v17.03h-68.12z" />
    <path d="M389.75 56.14h68.12v17.03h-68.12z" />
    <path d="M457.87 56.14h68.12v17.03h-68.12z" />
    <path d="M525.99 56.14h68.12v17.03h-68.12z" />
    <path d="M594.12 56.14h68.12v17.03h-68.12z" />
    <path d="M662.24 56.14h68.12v17.03h-68.12z" />
    <path d="M54 35.67a7.85 7.85 0 0 1-1 4.53 3.66 3.66 0 0 1-3.17 1.43 3.58 3.58 0 0 1-3.14-1.5 7.69 7.69 0 0 1-1.06-4.46 7.91 7.91 0 0 1 1-4.55 3.63 3.63 0 0 1 3.17-1.45 3.59 3.59 0 0 1 3.2 1.51 7.77 7.77 0 0 1 1 4.49Zm-5.27 0a10.26 10.26 0 0 0 .27 2.72c.17.49.44.74.83.74s.67-.26.83-.77a10.2 10.2 0 0 0 .24-2.69 10.43 10.43 0 0 0-.24-2.67c-.17-.52-.44-.77-.83-.77s-.66.25-.83.74a10.44 10.44 0 0 0-.24 2.7Zm71.74 5.8h-3.19v-8.21a7.38 7.38 0 0 1-.74.75l-1.32 1.09-1.63-2 4-3.25h2.83Z" />
    <path d="M48.63 48.01h1v33.28h-1zm68.12 0h1v116.75h-1z" />
    <path d="M190 41.47h-8.45V39.4l2.84-2.87q1.22-1.28 1.59-1.74a4 4 0 0 0 .53-.8 1.82 1.82 0 0 0 .14-.7.91.91 0 0 0-.29-.71 1.18 1.18 0 0 0-.83-.27 2.24 2.24 0 0 0-1.11.32 8.56 8.56 0 0 0-1.27.92l-1.73-2a9.58 9.58 0 0 1 1.58-1.17 5.6 5.6 0 0 1 1.33-.53 6.69 6.69 0 0 1 1.62-.18 4.86 4.86 0 0 1 2 .4 3.07 3.07 0 0 1 1.37 1.13 2.88 2.88 0 0 1 .49 1.65 4.29 4.29 0 0 1-.17 1.27 4.19 4.19 0 0 1-.53 1.14 7.22 7.22 0 0 1-.95 1.18c-.39.42-1.24 1.2-2.53 2.36v.08H190Z" />
    <path d="M184.88 48.01h1v33.28h-1z" />
    <path d="M257.76 32.36a2.79 2.79 0 0 1-.66 1.86 3.8 3.8 0 0 1-1.91 1.13q2.91.38 2.91 2.76a3 3 0 0 1-1.28 2.55 6 6 0 0 1-3.57.93 10.44 10.44 0 0 1-1.74-.13 8.87 8.87 0 0 1-1.73-.5v-2.57a6.63 6.63 0 0 0 1.55.58 6.16 6.16 0 0 0 1.46.19 3 3 0 0 0 1.51-.29 1 1 0 0 0 .47-.91 1 1 0 0 0-.24-.74 1.66 1.66 0 0 0-.8-.39 6.16 6.16 0 0 0-1.43-.13h-.72v-2.37h.74c1.59 0 2.39-.4 2.39-1.22a.77.77 0 0 0-.35-.69 1.88 1.88 0 0 0-1-.22 4.32 4.32 0 0 0-2.31.75l-1.31-2.1a6.31 6.31 0 0 1 1.89-.91 8.33 8.33 0 0 1 2.22-.27 4.86 4.86 0 0 1 2.83.72 2.25 2.25 0 0 1 1.08 1.97Z" />
    <path d="M253 48.01h1v116.75h-1z" />
    <path d="M326.65 39.22h-1.28v2.25h-3.11v-2.25h-4.64v-2.31l4.84-7.07h2.91v7h1.28Zm-4.39-2.35v-3.03h-.08a8.41 8.41 0 0 1-.62 1.15l-1.29 1.91Z" />
    <path d="M321.12 48.01h1v33.28h-1z" />
    <path d="M390.75 33.85a3.56 3.56 0 0 1 1.81.46 3.21 3.21 0 0 1 1.26 1.32 4.15 4.15 0 0 1 .45 2 3.8 3.8 0 0 1-1.17 3 5.22 5.22 0 0 1-3.56 1 7.61 7.61 0 0 1-3.33-.63v-2.57a9 9 0 0 0 1.57.52 6.54 6.54 0 0 0 1.5.21 2.16 2.16 0 0 0 1.34-.37 1.3 1.3 0 0 0 .47-1.1 1.27 1.27 0 0 0-.47-1 2.33 2.33 0 0 0-1.45-.37 5 5 0 0 0-1.6.28l-1.16-.6.44-6.14h6.64v2.62h-4l-.11 1.52a7.47 7.47 0 0 1 .89-.13Z" />
    <path d="M389.25 48.01h1v116.75h-1z" />
    <path d="M454.15 36.56a9.59 9.59 0 0 1 .69-4 4.6 4.6 0 0 1 2.06-2.22 7.06 7.06 0 0 1 3.35-.72 12 12 0 0 1 1.65.14v2.46a8.55 8.55 0 0 0-1.73-.16 3.36 3.36 0 0 0-2.34.7 3.08 3.08 0 0 0-.85 2.26h.1a2.4 2.4 0 0 1 2.3-1.36 3 3 0 0 1 2.4 1 4.16 4.16 0 0 1 .86 2.78 4.16 4.16 0 0 1-1.08 3 4.62 4.62 0 0 1-6.25-.22 5.56 5.56 0 0 1-1.16-3.66Zm4.31 2.58a1 1 0 0 0 .82-.38 1.86 1.86 0 0 0 .31-1.2c0-1-.36-1.42-1.1-1.42a1.13 1.13 0 0 0-.88.37 1.27 1.27 0 0 0-.33.89 2.17 2.17 0 0 0 .32 1.25 1 1 0 0 0 .86.49Z" />
    <path d="M457.37 48.01h1v33.28h-1z" />
    <path d="m523.38 41.47 4-9h-5v-2.62h8.39v1.86l-4.1 9.76Z" />
    <path d="M525.5 48.01h1v116.75h-1z" />
    <path d="M594.65 29.67a4.86 4.86 0 0 1 2.86.74 2.43 2.43 0 0 1 1 2.1 2.77 2.77 0 0 1-.48 1.62 3.89 3.89 0 0 1-1.53 1.22 5.53 5.53 0 0 1 1.82 1.46 2.56 2.56 0 0 1 .53 1.57 2.84 2.84 0 0 1-1.12 2.4 6.29 6.29 0 0 1-6.28 0 2.81 2.81 0 0 1-1.09-2.39 3 3 0 0 1 .48-1.72 4.27 4.27 0 0 1 1.64-1.3 4.28 4.28 0 0 1-1.35-1.33 3 3 0 0 1-.43-1.56 2.43 2.43 0 0 1 1-2.09 5 5 0 0 1 2.95-.72Zm-1.39 8.61a1 1 0 0 0 .35.79 1.44 1.44 0 0 0 1 .3c.94 0 1.4-.34 1.4-1a1.23 1.23 0 0 0-.3-.77 4.27 4.27 0 0 0-1.1-.85 3.25 3.25 0 0 0-1 .75 1.22 1.22 0 0 0-.35.78Zm1.37-6.34a1.08 1.08 0 0 0-.69.23.78.78 0 0 0-.27.61c0 .46.31.86.93 1.21a2.66 2.66 0 0 0 .77-.6 1 1 0 0 0 .21-.61.77.77 0 0 0-.28-.61 1 1 0 0 0-.67-.23Z" />
    <path d="M593.62 48.01h1v33.28h-1z" />
    <path d="M667 35.16q0 3.42-1.47 4.94t-4.72 1.53a11.17 11.17 0 0 1-1.62-.08v-2.49a7.06 7.06 0 0 0 1.37.13 4.17 4.17 0 0 0 2.6-.7 2.81 2.81 0 0 0 1-2.2H664a2.82 2.82 0 0 1-.61.83 2.09 2.09 0 0 1-.74.39 3.75 3.75 0 0 1-1.09.14 2.89 2.89 0 0 1-2.36-1 4.16 4.16 0 0 1-.86-2.78 4.26 4.26 0 0 1 7.43-2.72 6.18 6.18 0 0 1 1.23 4.01Zm-4.39-2.93a1.07 1.07 0 0 0-.84.38 1.85 1.85 0 0 0-.32 1.2 1.73 1.73 0 0 0 .28 1 1 1 0 0 0 .85.38 1.22 1.22 0 0 0 .9-.37 1.19 1.19 0 0 0 .38-.9 2.06 2.06 0 0 0-.35-1.22 1.06 1.06 0 0 0-.92-.47Z" />
    <path d="M661.74 48.01h1v116.75h-1z" />
    <path d="M728.15 41.47H725v-8.21a6.31 6.31 0 0 1-.73.75L723 35.1l-1.63-2 4-3.25h2.84Zm11.03-5.8a7.85 7.85 0 0 1-1 4.53 3.65 3.65 0 0 1-3.18 1.43 3.6 3.6 0 0 1-3.15-1.5 7.76 7.76 0 0 1-1.06-4.46 7.9 7.9 0 0 1 1-4.55 4.1 4.1 0 0 1 6.31.06 7.85 7.85 0 0 1 1.08 4.49Zm-5.28 0a9.74 9.74 0 0 0 .25 2.72c.16.49.44.74.83.74s.67-.26.83-.77a10.2 10.2 0 0 0 .24-2.69 9.89 9.89 0 0 0-.25-2.67c-.16-.52-.44-.77-.82-.77s-.67.25-.83.74a9.91 9.91 0 0 0-.25 2.7Z" />
    <path d="M729.87 48.01h1v33.28h-1z" />
    <path d="M50.47 140.2a24.44 24.44 0 1 1 .07 0Zm0-46.06a21.53 21.53 0 1 0 0 43.06v1.5l.06-1.5A21.53 21.53 0 0 0 72 115.61a21.56 21.56 0 0 0-21.53-21.47Z" />
    <path d="m73 108-2.2-.79c-3-6.52-9.14-13.9-20.08-13.87a21.28 21.28 0 0 0-19.51 11.56l-1-.41a1.36 1.36 0 1 0-1 2.53l18.23 7.24a1.24 1.24 0 0 0 .5.1 1.35 1.35 0 0 0 1-.43l6.23-6.6 6.83 3.16a1.39 1.39 0 0 0 1.31-.09 1.36 1.36 0 0 0 .63-1.15v-1.71l8.22 3a1.37 1.37 0 0 0 1.74-.82A1.35 1.35 0 0 0 73 108Zm-34.71 15a1.5 1.5 0 0 1-1.5-1.5 5.24 5.24 0 0 1 5.21-5.22 5.25 5.25 0 0 1 5.24 5.22 1.49 1.49 0 0 1-1.49 1.5 1.5 1.5 0 0 1-1.5-1.49 2.24 2.24 0 0 0-2.25-2.23 2.23 2.23 0 0 0-2.23 2.24 1.51 1.51 0 0 1-1.5 1.51Zm17.77 0a1.5 1.5 0 0 1-1.5-1.5 5.24 5.24 0 0 1 5.22-5.25 5.24 5.24 0 0 1 5.22 5.19 1.51 1.51 0 0 1-1.5 1.51 1.5 1.5 0 0 1-1.5-1.5 2.27 2.27 0 0 0-.66-1.58 2.23 2.23 0 0 0-1.58-.65 2.22 2.22 0 0 0-1.58.66 2.26 2.26 0 0 0-.65 1.59 1.5 1.5 0 0 1-1.5 1.5Z" />
    <path d="M185.16 140.2a24.44 24.44 0 1 1 .07 0Zm0-46.06a21.53 21.53 0 1 0 0 43.06v1.5l.06-1.5a21.53 21.53 0 0 0-.06-43.06Z" />
    <path d="m207.86 108-2.21-.79c-3-6.53-9.17-13.94-20.14-13.91a21.33 21.33 0 0 0-19.57 11.6l-1-.41a1.36 1.36 0 1 0-1 2.53l18.28 7.26a1.24 1.24 0 0 0 .5.1 1.35 1.35 0 0 0 1-.43l6.25-6.62 6.84 3.22a1.38 1.38 0 0 0 1.31-.09 1.32 1.32 0 0 0 .63-1.15v-1.72l8.24 3a1.37 1.37 0 0 0 .93-2.57ZM173 123a1.5 1.5 0 0 1-1.5-1.5 5.24 5.24 0 0 1 5.22-5.25 5.25 5.25 0 0 1 5.28 5.25 1.5 1.5 0 0 1-1.5 1.5 1.5 1.5 0 0 1-1.5-1.49 2.25 2.25 0 0 0-2.25-2.23 2.24 2.24 0 0 0-2.23 2.24A1.5 1.5 0 0 1 173 123Zm17.75 0a1.51 1.51 0 0 1-1.5-1.5 5.26 5.26 0 0 1 5.23-5.25 5.24 5.24 0 0 1 5.23 5.22 1.51 1.51 0 0 1-1.5 1.51 1.49 1.49 0 0 1-1.5-1.5 2.24 2.24 0 0 0-2.24-2.23 2.24 2.24 0 0 0-2.24 2.25 1.49 1.49 0 0 1-1.49 1.5Zm-6.01 11.38a10.44 10.44 0 0 1-7.39-3 1.5 1.5 0 1 1 2.11-2.13 7.48 7.48 0 0 0 5.28 2.18 7.44 7.44 0 0 0 5.28-2.22 1.5 1.5 0 1 1 2.13 2.11 10.37 10.37 0 0 1-7.4 3.11Z" />
    <path d="M587.54 133.12a1.51 1.51 0 0 1-1.06-2.56 10.4 10.4 0 0 1 7.41-3.1 10.4 10.4 0 0 1 7.39 3 1.5 1.5 0 1 1-2.11 2.13 7.34 7.34 0 0 0-5.3-2.18 7.42 7.42 0 0 0-5.29 2.22 1.53 1.53 0 0 1-1.04.49Z" />
    <path d="M321.41 140.2a24.44 24.44 0 1 1 .07 0Zm0-46.06a21.53 21.53 0 1 0 0 43.06v1.5l.06-1.5a21.54 21.54 0 0 0 21.47-21.59 21.58 21.58 0 0 0-21.53-21.47Z" />
    <path d="m344 108-2.21-.79c-2.95-6.52-9.14-13.9-20.08-13.87a21.28 21.28 0 0 0-19.51 11.56l-1-.41a1.36 1.36 0 0 0-1 2.53l18.23 7.24a1.24 1.24 0 0 0 .5.1 1.35 1.35 0 0 0 1-.43l6.23-6.6 6.82 3.21a1.38 1.38 0 0 0 1.31-.09 1.36 1.36 0 0 0 .63-1.15v-1.71l8.21 3A1.36 1.36 0 0 0 344 108Zm-23.07 24.56a24.66 24.66 0 0 1-6.7-.86 1.5 1.5 0 1 1 .85-2.88 23.44 23.44 0 0 0 11.85 0 1.5 1.5 0 1 1 .87 2.87 24.1 24.1 0 0 1-6.87.87Z" />
    <path d="M50.93 135.1a6.88 6.88 0 0 1-6.88-6.88 1.5 1.5 0 0 1 1.5-1.5h10.76a1.5 1.5 0 0 1 1.5 1.5 6.89 6.89 0 0 1-6.88 6.88Zm-3.58-5.38a3.88 3.88 0 0 0 7.16 0Z" />
    <path d="M314.65 119.6a2.72 2.72 0 1 1-2.71-2.72 2.71 2.71 0 0 1 2.71 2.72Zm18.15 0a2.72 2.72 0 1 1-2.72-2.72 2.71 2.71 0 0 1 2.72 2.72Z" />
    <path d="M457.66 140.2a24.44 24.44 0 1 1 .07 0Zm0-46.06a21.53 21.53 0 1 0 0 43.06v1.5l.06-1.5a21.53 21.53 0 0 0 21.46-21.59 21.56 21.56 0 0 0-21.52-21.47Z" />
    <path d="m480.22 108-2.2-.79c-2.95-6.52-9.14-13.9-20.08-13.87a21.31 21.31 0 0 0-19.52 11.56l-1-.41a1.36 1.36 0 1 0-1 2.53l18.23 7.24a1.24 1.24 0 0 0 .5.1 1.36 1.36 0 0 0 1-.43l6.23-6.6 6.82 3.21a1.39 1.39 0 0 0 1.31-.09 1.36 1.36 0 0 0 .63-1.15v-1.71l8.22 3a1.36 1.36 0 0 0 .92-2.56Zm-29.32 11.6a2.72 2.72 0 1 1-2.71-2.72 2.71 2.71 0 0 1 2.71 2.72Zm18.15 0a2.72 2.72 0 1 1-2.72-2.72 2.71 2.71 0 0 1 2.72 2.72ZM462 132.14h-8.64a1.5 1.5 0 0 1 0-3H462a1.5 1.5 0 0 1 0 3Z" />
    <path d="M593.9 140.2a24.47 24.47 0 1 1 .07 0Zm0-46.06a21.53 21.53 0 1 0 0 43.06v1.5l.06-1.5a21.53 21.53 0 0 0-.05-43.06Z" />
    <path d="m616.47 108-2.2-.79c-2.95-6.52-9.14-13.9-20.08-13.87a21.31 21.31 0 0 0-19.52 11.56l-1-.41a1.36 1.36 0 0 0-1 2.53l18.22 7.24a1.32 1.32 0 0 0 .51.1 1.34 1.34 0 0 0 1-.43l6.23-6.6 6.83 3.21a1.39 1.39 0 0 0 1.31-.09 1.36 1.36 0 0 0 .63-1.15v-1.71l8.22 3a1.37 1.37 0 0 0 1.74-.82 1.36 1.36 0 0 0-.89-1.77Zm-29.32 11.6a2.72 2.72 0 1 1-2.72-2.72 2.71 2.71 0 0 1 2.72 2.72Zm18.15 0a2.72 2.72 0 1 1-2.72-2.72 2.71 2.71 0 0 1 2.72 2.72Z" />
    <path d="M724 133.12a1.51 1.51 0 0 1-1.07-2.56 10.44 10.44 0 0 1 7.41-3.1 10.42 10.42 0 0 1 7.39 3 1.5 1.5 0 0 1-2.11 2.13 7.45 7.45 0 0 0-5.28-2.18 7.42 7.42 0 0 0-5.29 2.22 1.51 1.51 0 0 1-1.05.49Z" />
    <path d="M730.15 140.2a24.44 24.44 0 1 1 .07 0Zm0-46.06a21.53 21.53 0 1 0 0 43.06v1.5l.06-1.5a21.53 21.53 0 0 0-.06-43.06Z" />
    <path d="m752.72 108-2.21-.79c-3-6.52-9.14-13.9-20.07-13.87a21.28 21.28 0 0 0-19.52 11.56l-1-.41a1.36 1.36 0 0 0-1 2.53l18.22 7.24a1.24 1.24 0 0 0 .5.1 1.35 1.35 0 0 0 1-.43l6.23-6.6 6.83 3.21a1.36 1.36 0 0 0 1.93-1.24v-1.71l8.21 3a1.36 1.36 0 0 0 .93-2.56Zm-12.06 14.93a1.65 1.65 0 0 1-.57-.11l-5.76-2.36a1.5 1.5 0 0 1-.2-2.68l5.76-3.4a1.5 1.5 0 0 1 1.53 2.59l-3.16 1.86 3 1.21a1.5 1.5 0 0 1-.57 2.89Zm-20.89 0a1.5 1.5 0 0 1-.57-2.89l3-1.21L719 117a1.5 1.5 0 0 1 1.52-2.59l5.77 3.4a1.5 1.5 0 0 1-.2 2.68l-5.77 2.36a1.55 1.55 0 0 1-.55.08Z" />
    <path d="M33.52 164.77h-3l-3.13-6h-.09c.07 1 .11 1.67.11 2.17v3.87h-2.05v-8.61h3l3.12 6c-.06-.86-.09-1.55-.09-2.08v-3.92h2.07Zm9.86-4.3a4.62 4.62 0 0 1-1.06 3.29 4 4 0 0 1-3.1 1.12 4 4 0 0 1-3.09-1.13 5.54 5.54 0 0 1 0-6.56 4.09 4.09 0 0 1 3.11-1.13 4.08 4.08 0 0 1 3.1 1.12 4.64 4.64 0 0 1 1.04 3.29Zm-5.89 0c0 1.66.57 2.48 1.73 2.48a1.49 1.49 0 0 0 1.3-.6 4.32 4.32 0 0 0 0-3.78 1.47 1.47 0 0 0-1.28-.61c-1.17.04-1.75.84-1.75 2.51Zm16.77-1.55a2.88 2.88 0 0 1-.84 2.22 3.44 3.44 0 0 1-2.41.78h-.65v2.85h-2.31v-8.57h3a3.64 3.64 0 0 1 2.44.71 2.52 2.52 0 0 1 .77 2.01Zm-3.9 1.08h.42a1.13 1.13 0 0 0 .83-.3 1 1 0 0 0 .31-.8q0-.87-1-.87h-.6Zm10.52 4.77-.42-1.61h-2.78l-.43 1.61H54.7l2.8-8.61h3.09l2.83 8.61Zm-.9-3.51-.37-1.41c-.08-.31-.19-.71-.31-1.21s-.2-.85-.24-1.06l-.21 1q-.15.69-.69 2.7Zm4.36 3.51v-8.57h2.33v8.57Zm12.34 0h-3l-3.13-6h-.05c.07 1 .11 1.67.11 2.17v3.87h-2v-8.61h3l3.12 6c-.06-.86-.09-1.55-.09-2.08v-3.92h2.07Z" />
    <path d="M289 160.3a4.44 4.44 0 0 1-1.18 3.3 4.53 4.53 0 0 1-3.32 1.17h-2.77v-8.57h3a4.47 4.47 0 0 1 3.18 1.05 4 4 0 0 1 1.09 3.05Zm-2.41.08a2.72 2.72 0 0 0-.46-1.74 1.72 1.72 0 0 0-1.42-.57H284v4.8h.52a1.86 1.86 0 0 0 1.54-.62 2.92 2.92 0 0 0 .49-1.87Zm3.9 4.39v-8.57h2.33v8.57Zm9.78-2.61a2.53 2.53 0 0 1-.4 1.42 2.67 2.67 0 0 1-1.17 1 4.3 4.3 0 0 1-1.79.34 7.13 7.13 0 0 1-1.43-.12 5.29 5.29 0 0 1-1.21-.42v-2.06a6.78 6.78 0 0 0 1.38.53 4.93 4.93 0 0 0 1.35.15 1.29 1.29 0 0 0 .76-.18.55.55 0 0 0 .24-.46.57.57 0 0 0-.1-.31 1.24 1.24 0 0 0-.31-.26c-.14-.09-.52-.27-1.14-.55a5.64 5.64 0 0 1-1.26-.74 2.32 2.32 0 0 1-.62-.82 2.81 2.81 0 0 1-.2-1.1 2.19 2.19 0 0 1 .86-1.84 3.81 3.81 0 0 1 2.37-.66 6.64 6.64 0 0 1 2.71.61l-.71 1.79a5.08 5.08 0 0 0-2.07-.55 1.07 1.07 0 0 0-.66.16.45.45 0 0 0-.2.39.54.54 0 0 0 .26.45 10.68 10.68 0 0 0 1.41.73 3.92 3.92 0 0 1 1.54 1.06 2.32 2.32 0 0 1 .39 1.44Zm5.1 2.61h-2.31v-6.68H301v-1.89h6.49v1.89h-2.09Zm5.63-3.12v3.12h-2.31v-8.57h2.8q3.5 0 3.49 2.53a2.52 2.52 0 0 1-1.45 2.3l2.5 3.74h-2.63l-1.81-3.12Zm0-1.74h.43c.81 0 1.22-.36 1.22-1.07s-.4-.89-1.19-.89H311Zm10.89 4.86h-5.08v-8.57h5.08v1.86h-2.77v1.34h2.57v1.86h-2.57v1.62h2.77Zm7.11-2.61a2.53 2.53 0 0 1-.4 1.42 2.67 2.67 0 0 1-1.17 1 4.25 4.25 0 0 1-1.78.34 7.31 7.31 0 0 1-1.44-.12 5.29 5.29 0 0 1-1.21-.42v-2.06a7 7 0 0 0 1.38.53 5 5 0 0 0 1.31.19 1.27 1.27 0 0 0 .76-.18.55.55 0 0 0 .24-.46.5.5 0 0 0-.1-.31 1.24 1.24 0 0 0-.31-.26c-.14-.09-.52-.27-1.14-.55a5.32 5.32 0 0 1-1.25-.74 2.35 2.35 0 0 1-.63-.82 2.81 2.81 0 0 1-.2-1.1 2.19 2.19 0 0 1 .86-1.84 3.83 3.83 0 0 1 2.37-.66 6.61 6.61 0 0 1 2.71.61l-.71 1.79a5.08 5.08 0 0 0-2.07-.55 1.07 1.07 0 0 0-.66.16.47.47 0 0 0-.2.39.57.57 0 0 0 .26.45 11.45 11.45 0 0 0 1.41.73 3.84 3.84 0 0 1 1.54 1.06 2.32 2.32 0 0 1 .43 1.4Zm6.92 0a2.62 2.62 0 0 1-.4 1.42 2.67 2.67 0 0 1-1.17 1 4.3 4.3 0 0 1-1.79.34 7.13 7.13 0 0 1-1.43-.12 5.29 5.29 0 0 1-1.21-.42v-2.06a6.78 6.78 0 0 0 1.38.53 4.93 4.93 0 0 0 1.31.19 1.26 1.26 0 0 0 .75-.18.56.56 0 0 0 .25-.46.57.57 0 0 0-.1-.31 1.45 1.45 0 0 0-.31-.26c-.14-.09-.52-.27-1.14-.55a5.64 5.64 0 0 1-1.26-.74 2.32 2.32 0 0 1-.62-.82 2.81 2.81 0 0 1-.2-1.1 2.19 2.19 0 0 1 .86-1.84 3.79 3.79 0 0 1 2.37-.66 6.64 6.64 0 0 1 2.71.61l-.71 1.79a5.08 5.08 0 0 0-2.07-.55 1.07 1.07 0 0 0-.66.16.46.46 0 0 0-.21.39.55.55 0 0 0 .27.45 10.68 10.68 0 0 0 1.41.73 3.92 3.92 0 0 1 1.54 1.06 2.32 2.32 0 0 1 .43 1.4Zm1.32 2.61v-8.57h2.33v8.57Zm12.34 0h-3l-3.13-6h-.05c.08 1 .11 1.67.11 2.17v3.87h-2.05v-8.61h3l3.12 6c-.06-.86-.08-1.55-.08-2.08v-3.92h2.06Zm5.29-5.02h3.7v4.62a10.3 10.3 0 0 1-3.31.51 4 4 0 0 1-3.07-1.15 4.57 4.57 0 0 1-1.08-3.27 4.31 4.31 0 0 1 1.19-3.23 4.53 4.53 0 0 1 3.31-1.15 7.49 7.49 0 0 1 1.53.15 6.87 6.87 0 0 1 1.25.38l-.73 1.82a4.63 4.63 0 0 0-2-.46 1.93 1.93 0 0 0-1.56.66 2.86 2.86 0 0 0-.56 1.89 2.91 2.91 0 0 0 .5 1.83 1.75 1.75 0 0 0 1.45.63 4.69 4.69 0 0 0 .95-.1v-1.34h-1.53Z" />
    <path d="M435.45 164.77v-8.57h2.33v8.57Zm12.34 0h-3l-3.13-6h-.05c.07 1 .11 1.67.11 2.17v3.87h-2.05v-8.61h3l3.12 6c-.06-.86-.09-1.55-.09-2.08v-3.92h2.07Zm5.63 0h-2.32v-6.68H449v-1.89h6.49v1.89h-2.08Zm8.39 0h-5.08v-8.57h5.08v1.86H459v1.34h2.57v1.86H459v1.62h2.77Zm9.66 0h-3l-3.12-6h-.06c.08 1 .11 1.67.11 2.17v3.87h-2.05v-8.61h3l3.11 6c-.06-.86-.08-1.55-.08-2.08v-3.92h2.06Zm7.45-2.61a2.53 2.53 0 0 1-.4 1.42 2.67 2.67 0 0 1-1.17 1 4.28 4.28 0 0 1-1.78.34 7.31 7.31 0 0 1-1.44-.12 5.29 5.29 0 0 1-1.21-.42v-2.06a6.78 6.78 0 0 0 1.38.53 5 5 0 0 0 1.31.19 1.27 1.27 0 0 0 .76-.18.55.55 0 0 0 .24-.46.5.5 0 0 0-.1-.31 1.24 1.24 0 0 0-.31-.26c-.14-.09-.52-.27-1.14-.55a5.64 5.64 0 0 1-1.26-.74 2.44 2.44 0 0 1-.62-.82 2.81 2.81 0 0 1-.2-1.1 2.19 2.19 0 0 1 .86-1.84 3.83 3.83 0 0 1 2.37-.66 6.61 6.61 0 0 1 2.71.61l-.71 1.79a5.08 5.08 0 0 0-2.07-.55 1.07 1.07 0 0 0-.66.16.47.47 0 0 0-.2.39.57.57 0 0 0 .26.45 10.68 10.68 0 0 0 1.41.73 3.84 3.84 0 0 1 1.54 1.06 2.32 2.32 0 0 1 .43 1.4Zm6.41 2.61h-5.08v-8.57h5.08v1.86h-2.77v1.34h2.57v1.86h-2.57v1.62h2.77Z" />
    <path d="M573.32 164.77H571v-3.5h-2.69v3.5H566v-8.57h2.33v3.17H571v-3.17h2.32Zm9.87-4.3a4.62 4.62 0 0 1-1.06 3.29 4.83 4.83 0 0 1-6.2 0 5.56 5.56 0 0 1 0-6.56 4.85 4.85 0 0 1 6.21 0 4.64 4.64 0 0 1 1.05 3.27Zm-5.89 0c0 1.66.57 2.48 1.73 2.48a1.49 1.49 0 0 0 1.3-.6 4.42 4.42 0 0 0 0-3.78A1.47 1.47 0 0 0 579 158c-1.12 0-1.7.8-1.7 2.47Zm9.75 1.18v3.12h-2.31v-8.57h2.8q3.5 0 3.5 2.53a2.53 2.53 0 0 1-1.46 2.3l2.5 3.74h-2.62l-1.82-3.12Zm0-1.74h.44c.8 0 1.21-.36 1.21-1.07s-.4-.89-1.19-.89h-.46Zm8.12 1.74v3.12h-2.31v-8.57h2.81c2.32 0 3.49.84 3.49 2.53a2.54 2.54 0 0 1-1.45 2.3l2.49 3.74h-2.62l-1.82-3.12Zm0-1.74h.44c.81 0 1.21-.36 1.21-1.07s-.4-.89-1.19-.89h-.46Zm5.83 4.86v-8.57h2.33v8.57Zm4.16-8.57h3a5 5 0 0 1 2.59.52 1.76 1.76 0 0 1 .85 1.61 2.08 2.08 0 0 1-.37 1.23 1.67 1.67 0 0 1-1 .66v.06a2 2 0 0 1 1.16.7 2.11 2.11 0 0 1 .36 1.28 2.19 2.19 0 0 1-.88 1.83 3.81 3.81 0 0 1-2.39.68h-3.33Zm2.31 3.29h.7a1.24 1.24 0 0 0 .77-.21.72.72 0 0 0 .27-.61c0-.48-.36-.72-1.09-.72h-.65Zm0 1.69V163h.82c.72 0 1.08-.31 1.08-.92a.79.79 0 0 0-.29-.65 1.33 1.33 0 0 0-.84-.23Zm5.77 3.59v-8.57h2.32v6.7h3.3v1.87Zm12.07 0h-5.08v-8.57h5.08v1.86h-2.77v1.34h2.57v1.86h-2.57v1.62h2.77Z" />
    <path d="M696.27 156.2v5.15a3.45 3.45 0 0 1-1 2.61 4.53 4.53 0 0 1-5.43 0 3.39 3.39 0 0 1-.94-2.58v-5.18h2.32v5a2 2 0 0 0 .34 1.31 1.47 1.47 0 0 0 2 0 2.24 2.24 0 0 0 .32-1.34v-5Zm9.95 8.57h-3l-3.13-6H700c.08 1 .12 1.67.12 2.17v3.87h-2.06v-8.61h3l3.12 6c0-.86-.08-1.55-.08-2.08v-3.92h2.06Zm7.45-2.61a2.53 2.53 0 0 1-.4 1.42 2.67 2.67 0 0 1-1.17 1 4.25 4.25 0 0 1-1.78.34 7.31 7.31 0 0 1-1.44-.12 5.29 5.29 0 0 1-1.21-.42v-2.06a7 7 0 0 0 1.38.53 5 5 0 0 0 1.31.19 1.27 1.27 0 0 0 .76-.18.55.55 0 0 0 .24-.46.5.5 0 0 0-.1-.31 1.24 1.24 0 0 0-.31-.26c-.14-.09-.52-.27-1.14-.55a5.32 5.32 0 0 1-1.25-.74 2.35 2.35 0 0 1-.63-.82 2.81 2.81 0 0 1-.2-1.1 2.19 2.19 0 0 1 .86-1.84 3.83 3.83 0 0 1 2.37-.66 6.61 6.61 0 0 1 2.71.61l-.71 1.79a5.08 5.08 0 0 0-2.07-.55 1.07 1.07 0 0 0-.66.16.47.47 0 0 0-.2.39.57.57 0 0 0 .26.45 11.1 11.1 0 0 0 1.42.73 3.87 3.87 0 0 1 1.53 1.06 2.32 2.32 0 0 1 .43 1.4Zm7.54-3.24a2.88 2.88 0 0 1-.84 2.22 3.44 3.44 0 0 1-2.41.78h-.65v2.85H715v-8.57h3a3.64 3.64 0 0 1 2.44.71 2.52 2.52 0 0 1 .77 2.01Zm-3.9 1.12h.42a1.13 1.13 0 0 0 .83-.3 1 1 0 0 0 .31-.8q0-.87-1-.87h-.6Zm10.36 4.73h-5.09v-8.57h5.09v1.86h-2.78v1.34h2.57v1.86h-2.57v1.62h2.78Zm6.75 0-.42-1.61h-2.78l-.44 1.61h-2.54l2.8-8.61h3.08l2.83 8.61Zm-.9-3.51-.37-1.41c-.09-.31-.19-.71-.31-1.21s-.21-.85-.25-1.06c0 .19-.1.52-.2 1s-.34 1.36-.69 2.7Zm11.68 3.51h-2.62l-1.69-3.28-.68.41v2.87h-2.33v-8.57h2.33v3.72a9.45 9.45 0 0 1 .7-1.1l1.8-2.62h2.53l-2.7 3.84Zm6.18 0-.42-1.61h-2.79l-.43 1.61h-2.54l2.79-8.61h3.09l2.83 8.61Zm-.9-3.51-.37-1.41c-.09-.31-.19-.71-.32-1.21s-.2-.85-.24-1.06c0 .19-.1.52-.21 1s-.33 1.36-.69 2.7Zm4.36-5.06h3a5.07 5.07 0 0 1 2.6.52 1.75 1.75 0 0 1 .84 1.61 2 2 0 0 1-.37 1.23 1.64 1.64 0 0 1-1 .66v.06a2 2 0 0 1 1.16.7 2.42 2.42 0 0 1-.52 3.11 3.83 3.83 0 0 1-2.39.68h-3.33Zm2.31 3.29h.7a1.24 1.24 0 0 0 .77-.21.72.72 0 0 0 .27-.61c0-.48-.36-.72-1.09-.72h-.65Zm0 1.69V163h.85c.73 0 1.09-.31 1.09-.92a.79.79 0 0 0-.29-.65 1.33 1.33 0 0 0-.84-.23Zm5.77 3.59v-8.57h2.32v6.7h3.3v1.87Zm12.08 0h-5.08v-8.57H775v1.86h-2.77v1.34h2.57v1.86h-2.57v1.62H775Z" />
    <path d="M139.51 160.3a4.4 4.4 0 0 1-1.18 3.3 4.51 4.51 0 0 1-3.32 1.17h-2.77v-8.57h3a4.48 4.48 0 0 1 3.18 1.05 4 4 0 0 1 1.09 3.05Zm-2.4.08a2.72 2.72 0 0 0-.47-1.74 1.71 1.71 0 0 0-1.41-.57h-.67v4.8h.51a1.88 1.88 0 0 0 1.55-.62 2.92 2.92 0 0 0 .49-1.87Zm3.94 4.39v-8.57h2.32v8.57Zm9.78-2.61a2.54 2.54 0 0 1-.41 1.42 2.7 2.7 0 0 1-1.16 1 4.33 4.33 0 0 1-1.79.34 7.31 7.31 0 0 1-1.44-.12 5.22 5.22 0 0 1-1.2-.42v-2.06a6.93 6.93 0 0 0 1.37.53 5.06 5.06 0 0 0 1.32.19 1.26 1.26 0 0 0 .75-.18.55.55 0 0 0 .24-.46.56.56 0 0 0-.09-.31 1.45 1.45 0 0 0-.31-.26c-.15-.09-.53-.27-1.14-.55a5.64 5.64 0 0 1-1.26-.74 2.21 2.21 0 0 1-.62-.82 2.64 2.64 0 0 1-.2-1.1 2.17 2.17 0 0 1 .86-1.84 3.78 3.78 0 0 1 2.36-.66 6.68 6.68 0 0 1 2.72.61l-.71 1.79a5.08 5.08 0 0 0-2.08-.55 1 1 0 0 0-.65.16.46.46 0 0 0-.21.39.57.57 0 0 0 .26.45 11.91 11.91 0 0 0 1.42.73 3.92 3.92 0 0 1 1.54 1.06 2.39 2.39 0 0 1 .43 1.4ZM156 158a1.46 1.46 0 0 0-1.29.68 3.25 3.25 0 0 0-.47 1.87c0 1.65.63 2.47 1.88 2.47a3.77 3.77 0 0 0 1.11-.16 9.82 9.82 0 0 0 1.07-.38v2a6.09 6.09 0 0 1-2.43.47 3.83 3.83 0 0 1-3-1.12 4.65 4.65 0 0 1-1-3.25 5.11 5.11 0 0 1 .51-2.34 3.54 3.54 0 0 1 1.44-1.55 4.33 4.33 0 0 1 2.21-.54 6.11 6.11 0 0 1 2.65.6l-.71 1.82a6.91 6.91 0 0 0-1-.37 3 3 0 0 0-.97-.2Zm12 2.47a4.62 4.62 0 0 1-1.06 3.29 4.82 4.82 0 0 1-6.19 0 5.54 5.54 0 0 1 0-6.56 4.85 4.85 0 0 1 6.21 0 4.64 4.64 0 0 1 1.04 3.27Zm-5.89 0c0 1.66.58 2.48 1.73 2.48a1.49 1.49 0 0 0 1.3-.6 3.32 3.32 0 0 0 .43-1.88 3.4 3.4 0 0 0-.43-1.9 1.5 1.5 0 0 0-1.29-.61c-1.21.04-1.79.84-1.79 2.51Zm11.12 4.3-1.75-6.17c.08 1.05.12 1.86.12 2.44v3.73h-2.1v-8.57h3.08l1.79 6.08 1.75-6.08h3.09v8.57h-2.13v-4.42c0-.24 0-.82.08-1.75h-.06l-1.72 6.16Zm10.15 0h-2.28v-8.57h5.06v1.86h-2.78v1.63H186v1.86h-2.57Zm12.21-4.3a4.66 4.66 0 0 1-1.06 3.29 4.83 4.83 0 0 1-6.2 0 5.54 5.54 0 0 1 0-6.56 4.85 4.85 0 0 1 6.21 0 4.65 4.65 0 0 1 1.05 3.27Zm-5.9 0c0 1.66.58 2.48 1.73 2.48a1.47 1.47 0 0 0 1.3-.6 3.24 3.24 0 0 0 .43-1.88 3.32 3.32 0 0 0-.43-1.9 1.5 1.5 0 0 0-1.29-.61c-1.16.04-1.74.84-1.74 2.51Zm9.76 1.18v3.12h-2.32v-8.57h2.81q3.5 0 3.49 2.53A2.52 2.52 0 0 1 202 161l2.5 3.74h-2.63l-1.87-3.09Zm0-1.74h.43c.81 0 1.21-.36 1.21-1.07s-.39-.89-1.19-.89h-.45Zm9.55 4.86h-2.31v-6.68h-2.09v-1.89h6.49v1.89H209Zm3.34 0v-8.57h2.33v8.57Zm12.34 0h-3l-3.13-6c.08 1 .11 1.67.11 2.17v3.87h-2v-8.61h3l3.11 6c-.06-.86-.08-1.55-.08-2.08v-3.92h2.06Zm5.32-5.02h3.7v4.62a10.3 10.3 0 0 1-3.31.51 4 4 0 0 1-3.07-1.15 4.57 4.57 0 0 1-1.08-3.27 4.31 4.31 0 0 1 1.19-3.23 4.53 4.53 0 0 1 3.31-1.15 7.49 7.49 0 0 1 1.53.15 6.63 6.63 0 0 1 1.25.38l-.73 1.82a4.62 4.62 0 0 0-2-.46 1.93 1.93 0 0 0-1.57.66 3.5 3.5 0 0 0 0 3.72 1.72 1.72 0 0 0 1.44.63 4.69 4.69 0 0 0 .95-.1v-1.34H230Z" />
    <path d="m200.33 216.1-2.33-8.23h-.07c.11 1.4.17 2.49.17 3.27v5h-2.74v-11.46h4.11l2.39 8.11h.06l2.33-8.11h4.12v11.42h-2.83v-5.87c0-.32 0-1.09.1-2.33h-.07l-2.3 8.21Zm10.49 0v-11.42h3.1v11.42Zm16.45 0h-4.05l-4.17-8H219c.1 1.27.15 2.23.15 2.9v5.15h-2.74v-11.47h4l4.16 7.93c-.08-1.15-.11-2.07-.11-2.77v-5.16h2.75Zm13.15-5.73a6.19 6.19 0 0 1-1.41 4.39 6.42 6.42 0 0 1-8.26 0 7.39 7.39 0 0 1 0-8.75 6.48 6.48 0 0 1 8.28 0 6.13 6.13 0 0 1 1.39 4.36Zm-7.86 0c0 2.21.77 3.32 2.31 3.32a2 2 0 0 0 1.74-.81 4.48 4.48 0 0 0 .56-2.51 4.43 4.43 0 0 0-.57-2.52 1.94 1.94 0 0 0-1.72-.82c-1.54-.03-2.32 1.11-2.32 3.34Zm13.01 1.57v4.16h-3.08v-11.42h3.74q4.65 0 4.65 3.37a3.37 3.37 0 0 1-1.93 3.07l3.33 5h-3.5l-2.43-4.16Zm0-2.32h.58c1.08 0 1.62-.47 1.62-1.43 0-.78-.53-1.18-1.59-1.18h-.61Zm138.96 6.48-2.34-8.23h-.07c.11 1.4.16 2.49.16 3.27v5h-2.73v-11.46h4.11l2.38 8.11h.06l2.34-8.11h4.12v11.42h-2.84v-5.87c0-.32 0-1.09.11-2.33h-.07l-2.31 8.21Zm21.18-5.73a6.2 6.2 0 0 1-1.42 4.39 6.42 6.42 0 0 1-8.26 0 7.43 7.43 0 0 1 0-8.75 6.48 6.48 0 0 1 8.28 0 6.13 6.13 0 0 1 1.4 4.36Zm-7.86 0c0 2.21.76 3.32 2.3 3.32a2 2 0 0 0 1.74-.81 5.79 5.79 0 0 0 0-5 1.94 1.94 0 0 0-1.71-.82c-1.56-.06-2.33 1.08-2.33 3.31Zm19.61-.22a5.89 5.89 0 0 1-1.57 4.4 6.07 6.07 0 0 1-4.43 1.55h-3.69v-11.42h4a6 6 0 0 1 4.25 1.4 5.34 5.34 0 0 1 1.44 4.07Zm-3.2.11a3.65 3.65 0 0 0-.62-2.33 2.29 2.29 0 0 0-1.89-.76h-.9v6.4h.69a2.48 2.48 0 0 0 2.06-.82 3.92 3.92 0 0 0 .66-2.49Zm12.03 5.84h-6.78v-11.42h6.78v2.47h-3.69V209h3.4v2.48h-3.4v2.15h3.69Zm5.09-4.16v4.16h-3.09v-11.42H432q4.67 0 4.66 3.37a3.38 3.38 0 0 1-1.94 3.07l3.33 5h-3.5l-2.42-4.16Zm0-2.32h.62c1.07 0 1.61-.47 1.61-1.43 0-.78-.53-1.18-1.58-1.18h-.61Z" />
    <path d="m446.13 216.1-.56-2.14h-3.72l-.57 2.14h-3.39l3.72-11.47h4.12l3.77 11.47Zm-1.21-4.67-.49-1.88-.42-1.61c-.16-.67-.27-1.14-.32-1.43-.05.27-.14.71-.28 1.32s-.44 1.8-.91 3.6Zm10.86 4.67h-3.09v-8.9h-2.79v-2.52h8.66v2.52h-2.78Zm11.22 0h-6.78v-11.42H467v2.47h-3.69V209h3.42v2.48h-3.42v2.15H467Zm141-3.47a3.37 3.37 0 0 1-.54 1.89 3.59 3.59 0 0 1-1.55 1.28 5.89 5.89 0 0 1-2.39.46 10.09 10.09 0 0 1-1.91-.16 7.55 7.55 0 0 1-1.61-.56v-2.75a9.3 9.3 0 0 0 1.84.7 6.75 6.75 0 0 0 1.75.26 1.67 1.67 0 0 0 1-.24.71.71 0 0 0 .32-.61.69.69 0 0 0-.12-.41 1.56 1.56 0 0 0-.42-.36c-.19-.12-.7-.36-1.52-.73a7.24 7.24 0 0 1-1.67-1 3 3 0 0 1-.83-1.09 3.62 3.62 0 0 1-.27-1.46 2.9 2.9 0 0 1 1.15-2.46 5 5 0 0 1 3.15-.89 9 9 0 0 1 3.62.82l-1 2.39a6.83 6.83 0 0 0-2.76-.74 1.48 1.48 0 0 0-.88.21.65.65 0 0 0-.27.53.77.77 0 0 0 .35.6 14.24 14.24 0 0 0 1.88 1 5.22 5.22 0 0 1 2.06 1.42 3.12 3.12 0 0 1 .62 1.9Zm8.51 3.47h-6.78v-11.42h6.78v2.47h-3.7V209h3.42v2.48h-3.42v2.15h3.7Zm8.41-11.42h3.45l-3.74 11.42H621l-3.73-11.42h3.47l1.56 5.79a17.76 17.76 0 0 1 .53 2.68 12.47 12.47 0 0 1 .22-1.36c.11-.55.2-1 .28-1.29Zm11.47 11.42h-6.78v-11.42h6.78v2.47h-3.7V209h3.43v2.48h-3.43v2.15h3.7Zm5.09-4.16v4.16h-3.09v-11.42h3.74q4.67 0 4.66 3.37a3.38 3.38 0 0 1-1.94 3.07l3.33 5h-3.5l-2.42-4.16Zm0-2.32h.57c1.08 0 1.62-.47 1.62-1.43 0-.78-.53-1.18-1.59-1.18h-.6ZM656 216.1h-6.78v-11.42H656v2.47h-3.7V209h3.43v2.48h-3.43v2.15h3.7Z" />
    <path d="M88.93 177.2h2.59l-2.81 8.57H86l-2.8-8.57h2.6l1.2 4.34a14.7 14.7 0 0 1 .4 2 9.12 9.12 0 0 1 .16-1c.08-.41.16-.73.22-1Zm8.6 8.57h-5.09v-8.57h5.09v1.86h-2.77v1.34h2.56v1.86h-2.56v1.62h2.77Zm3.81-3.12v3.12H99v-8.57h2.81c2.32 0 3.49.84 3.49 2.53a2.54 2.54 0 0 1-1.45 2.3l2.49 3.74h-2.62l-1.82-3.12Zm0-1.74h.44c.81 0 1.21-.36 1.21-1.07s-.4-.89-1.19-.89h-.46Zm8.87-.54 1.48-3.17h2.5l-2.81 5.22v3.35H109v-3.28l-2.82-5.29h2.52Zm11.79 5.4-1.75-6.17h-.06c.09 1.05.13 1.86.13 2.44v3.73h-2.05v-8.57h3.08l1.79 6.08 1.75-6.08H128v8.57h-2.12v-4.41c0-.24 0-.82.08-1.75l-1.73 6.16Zm7.84 0v-8.57h2.32v8.57Zm4.16 0v-8.57h2.31v6.7h3.3v1.87Zm14.27-4.47a4.4 4.4 0 0 1-1.18 3.3 4.51 4.51 0 0 1-3.32 1.17H141v-8.57h3a4.49 4.49 0 0 1 3.19 1.05 4 4 0 0 1 1.08 3.05Zm-2.4.08a2.72 2.72 0 0 0-.47-1.74 1.71 1.71 0 0 0-1.41-.57h-.68v4.8h.52a1.88 1.88 0 0 0 1.55-.62 2.92 2.92 0 0 0 .49-1.87Z" />
    <path d="M224.14 185.77h-2.31v-6.68h-2.09v-1.89h6.49v1.89h-2.09Zm11.33-4.3a4.62 4.62 0 0 1-1.06 3.29 4.83 4.83 0 0 1-6.2 0 4.62 4.62 0 0 1-1.07-3.29 4.54 4.54 0 0 1 1.07-3.27 4.85 4.85 0 0 1 6.21 0 4.64 4.64 0 0 1 1.05 3.27Zm-5.89 0c0 1.66.57 2.48 1.72 2.48a1.5 1.5 0 0 0 1.31-.6 4.42 4.42 0 0 0 0-3.78 1.48 1.48 0 0 0-1.28-.61c-1.17.04-1.75.84-1.75 2.51Zm7.42 4.3v-8.57h2.31v6.7h3.3v1.87Zm12.09 0H244v-8.57h5.09v1.86h-2.77v1.34h2.56v1.86h-2.56v1.62h2.77Zm3.81-3.12v3.12h-2.31v-8.57h2.8q3.5 0 3.5 2.53a2.53 2.53 0 0 1-1.46 2.3l2.5 3.74h-2.63l-1.81-3.12Zm0-1.74h.44c.8 0 1.21-.36 1.21-1.07s-.4-.89-1.19-.89h-.46Z" />
    <path d="m264 185.77-.42-1.61h-2.78l-.43 1.61h-2.55l2.8-8.61h3.09l2.83 8.61Zm-.9-3.51-.37-1.41c-.08-.31-.19-.71-.31-1.21s-.21-.85-.24-1.06l-.21 1q-.17.69-.69 2.7Zm4.32-5.06h3a5 5 0 0 1 2.59.52 1.74 1.74 0 0 1 .85 1.61 2 2 0 0 1-.37 1.23 1.68 1.68 0 0 1-1 .66v.06a2 2 0 0 1 1.15.7 2.11 2.11 0 0 1 .36 1.28 2.16 2.16 0 0 1-.88 1.83 3.81 3.81 0 0 1-2.39.68h-3.33Zm2.32 3.29h.69a1.24 1.24 0 0 0 .77-.21.73.73 0 0 0 .28-.61c0-.48-.37-.72-1.09-.72h-.65Zm0 1.69V184h.81c.72 0 1.08-.31 1.08-.92a.76.76 0 0 0-.29-.65 1.33 1.33 0 0 0-.84-.23Zm5.77 3.59v-8.57h2.31v6.7h3.3v1.87Zm12.07 0h-5.09v-8.57h5.09v1.86h-2.77v1.34h2.56v1.86h-2.56v1.62h2.77Zm48.24-8.57h2.59l-2.81 8.57h-2.72l-2.8-8.57h2.6l1.17 4.34a13.27 13.27 0 0 1 .4 2c0-.28.08-.62.16-1s.16-.73.22-1Zm8.6 8.57h-5.08v-8.57h5.08v1.86h-2.77v1.34h2.57v1.86h-2.57v1.62h2.77Zm3.82-3.12v3.12h-2.32v-8.57h2.81q3.5 0 3.49 2.53a2.52 2.52 0 0 1-1.45 2.3l2.49 3.74h-2.62l-1.82-3.12Zm0-1.74h.43c.81 0 1.21-.36 1.21-1.07s-.39-.89-1.19-.89h-.45Zm8.86-.54 1.48-3.17h2.51l-2.82 5.22v3.35h-2.34v-3.28l-2.81-5.29h2.52Zm15.3.93a4.4 4.4 0 0 1-1.18 3.3 4.51 4.51 0 0 1-3.32 1.17h-2.77v-8.57h3a4.49 4.49 0 0 1 3.19 1.05 4 4 0 0 1 1.08 3.05Zm-2.4.08a2.72 2.72 0 0 0-.47-1.74 1.71 1.71 0 0 0-1.41-.57h-.68v4.8h.56a1.84 1.84 0 0 0 1.54-.62 2.92 2.92 0 0 0 .46-1.87Zm3.93 4.39v-8.57h2.33v8.57Zm9.78-2.61a2.53 2.53 0 0 1-.4 1.42 2.67 2.67 0 0 1-1.17 1 4.25 4.25 0 0 1-1.78.34 7.31 7.31 0 0 1-1.44-.12 5.29 5.29 0 0 1-1.21-.42v-2.06a7 7 0 0 0 1.38.53 5 5 0 0 0 1.31.19 1.27 1.27 0 0 0 .76-.18.55.55 0 0 0 .24-.46.5.5 0 0 0-.1-.31 1.24 1.24 0 0 0-.31-.26c-.14-.09-.52-.27-1.14-.55a5.54 5.54 0 0 1-1.25-.74 2.35 2.35 0 0 1-.63-.82 2.81 2.81 0 0 1-.2-1.1 2.19 2.19 0 0 1 .86-1.84 3.83 3.83 0 0 1 2.37-.66 6.61 6.61 0 0 1 2.71.61l-.71 1.79a5.08 5.08 0 0 0-2.07-.55 1.07 1.07 0 0 0-.66.16.47.47 0 0 0-.2.39.57.57 0 0 0 .26.45 11.1 11.1 0 0 0 1.42.73 3.87 3.87 0 0 1 1.53 1.06 2.32 2.32 0 0 1 .43 1.4Zm5.11 2.61h-2.32v-6.68h-2.09v-1.89h6.49v1.89h-2.08Zm5.62-3.12v3.12h-2.31v-8.57h2.8q3.49 0 3.5 2.53A2.53 2.53 0 0 1 397 182l2.5 3.74h-2.63l-1.87-3.09Zm0-1.74h.44c.8 0 1.21-.36 1.21-1.07s-.4-.89-1.19-.89h-.46Zm10.89 4.86h-5.08v-8.57h5.08v1.86h-2.77v1.34h2.57v1.86h-2.57v1.62h2.77Zm7.11-2.61a2.54 2.54 0 0 1-.41 1.42 2.7 2.7 0 0 1-1.16 1 4.33 4.33 0 0 1-1.79.34 7.31 7.31 0 0 1-1.44-.12 5.22 5.22 0 0 1-1.2-.42v-2.06a6.93 6.93 0 0 0 1.37.53 5.06 5.06 0 0 0 1.32.19 1.26 1.26 0 0 0 .75-.18.55.55 0 0 0 .24-.46.56.56 0 0 0-.09-.31 1.32 1.32 0 0 0-.32-.26c-.14-.09-.52-.27-1.13-.55a5.64 5.64 0 0 1-1.26-.74 2.21 2.21 0 0 1-.62-.82 2.64 2.64 0 0 1-.2-1.1 2.17 2.17 0 0 1 .86-1.84 3.78 3.78 0 0 1 2.36-.66 6.68 6.68 0 0 1 2.72.61l-.71 1.79a5.08 5.08 0 0 0-2.08-.55 1 1 0 0 0-.65.16.46.46 0 0 0-.21.39.57.57 0 0 0 .26.45 11.91 11.91 0 0 0 1.42.73 3.92 3.92 0 0 1 1.54 1.06 2.39 2.39 0 0 1 .43 1.4Zm6.92 0a2.53 2.53 0 0 1-.4 1.42 2.67 2.67 0 0 1-1.17 1 4.3 4.3 0 0 1-1.79.34 7.2 7.2 0 0 1-1.43-.12 5.29 5.29 0 0 1-1.21-.42v-2.06a6.78 6.78 0 0 0 1.38.53 5 5 0 0 0 1.31.19 1.27 1.27 0 0 0 .76-.18.55.55 0 0 0 .24-.46.5.5 0 0 0-.1-.31 1.24 1.24 0 0 0-.31-.26c-.14-.09-.52-.27-1.14-.55a5.64 5.64 0 0 1-1.26-.74 2.32 2.32 0 0 1-.62-.82 2.81 2.81 0 0 1-.2-1.1 2.19 2.19 0 0 1 .86-1.84 3.83 3.83 0 0 1 2.37-.66 6.61 6.61 0 0 1 2.71.61l-.71 1.79a5.08 5.08 0 0 0-2.07-.55 1.07 1.07 0 0 0-.66.16.47.47 0 0 0-.2.39.54.54 0 0 0 .26.45 10.68 10.68 0 0 0 1.41.73 3.92 3.92 0 0 1 1.54 1.06 2.32 2.32 0 0 1 .43 1.4Zm1.33 2.61v-8.57H423v8.57Zm12.31 0h-3l-3.13-6h-.06c.08 1 .12 1.67.12 2.17v3.87h-2.06v-8.61h3l3.11 6c-.05-.86-.08-1.55-.08-2.08v-3.92h2.1Zm5.31-5.02H442v4.62a10.3 10.3 0 0 1-3.31.51 4 4 0 0 1-3.06-1.15 4.57 4.57 0 0 1-1.08-3.27 4.31 4.31 0 0 1 1.18-3.23 4.54 4.54 0 0 1 3.32-1.15 7.46 7.46 0 0 1 1.52.15 6.63 6.63 0 0 1 1.25.38l-.73 1.82a4.58 4.58 0 0 0-2-.46 1.93 1.93 0 0 0-1.57.66 3.56 3.56 0 0 0-.05 3.72 1.72 1.72 0 0 0 1.44.63 4.62 4.62 0 0 0 .95-.1v-1.34h-1.53Z" />
    <path d="M486.86 177.2h2.59l-2.81 8.57h-2.72l-2.8-8.57h2.6l1.17 4.34a14.7 14.7 0 0 1 .4 2 9.12 9.12 0 0 1 .16-1c.08-.41.16-.73.22-1Zm8.6 8.57h-5.09v-8.57h5.09v1.86h-2.77v1.34h2.56v1.86h-2.56v1.62h2.77Zm3.81-3.12v3.12H497v-8.57h2.81c2.32 0 3.49.84 3.49 2.53a2.53 2.53 0 0 1-1.46 2.3l2.5 3.74h-2.62l-1.82-3.12Zm0-1.74h.44c.81 0 1.21-.36 1.21-1.07s-.4-.89-1.19-.89h-.46Zm8.87-.54 1.48-3.17h2.5l-2.82 5.22v3.35H507v-3.28l-2.82-5.29h2.52Zm8.03 5.4v-8.57h2.32v8.57Zm12.33 0h-3l-3.12-6h-.06c.08 1 .11 1.67.11 2.17v3.87h-2v-8.61h3l3.11 6c-.06-.86-.08-1.55-.08-2.08v-3.92h2.06Zm5.63 0h-2.31v-6.68h-2.1v-1.89h6.5v1.89h-2.09Zm8.4 0h-5.09v-8.57h5.09v1.86h-2.77v1.34h2.56v1.86h-2.56v1.62h2.77Zm9.65 0h-3l-3.13-6c.07 1 .11 1.67.11 2.17v3.87H544v-8.61h3l3.12 6c-.05-.86-.08-1.55-.08-2.08v-3.92h2.06Zm7.46-2.61a2.54 2.54 0 0 1-.41 1.42 2.7 2.7 0 0 1-1.16 1 4.33 4.33 0 0 1-1.79.34 7.31 7.31 0 0 1-1.44-.12 5.22 5.22 0 0 1-1.2-.42v-2.06a6.93 6.93 0 0 0 1.37.53 5.06 5.06 0 0 0 1.32.19 1.26 1.26 0 0 0 .75-.18.55.55 0 0 0 .24-.46.56.56 0 0 0-.09-.31 1.45 1.45 0 0 0-.31-.26c-.15-.09-.53-.27-1.14-.55a5.64 5.64 0 0 1-1.26-.74 2.21 2.21 0 0 1-.62-.82 2.64 2.64 0 0 1-.2-1.1 2.17 2.17 0 0 1 .86-1.84 3.78 3.78 0 0 1 2.36-.66 6.68 6.68 0 0 1 2.72.61l-.71 1.79a5.08 5.08 0 0 0-2.08-.55 1 1 0 0 0-.65.16.46.46 0 0 0-.21.39.57.57 0 0 0 .26.45 11.91 11.91 0 0 0 1.42.73 3.92 3.92 0 0 1 1.54 1.06 2.39 2.39 0 0 1 .43 1.4Zm6.41 2.61H561v-8.57h5.09v1.86h-2.77v1.34h2.56v1.86h-2.56v1.62h2.77Z" />
    <path d="M630.33 177.2v5.15a3.48 3.48 0 0 1-1 2.61 3.82 3.82 0 0 1-2.75.92 3.78 3.78 0 0 1-2.69-.89 3.39 3.39 0 0 1-.94-2.58v-5.21h2.33v5a2 2 0 0 0 .34 1.31 1.2 1.2 0 0 0 1 .41 1.24 1.24 0 0 0 1-.4 2.24 2.24 0 0 0 .32-1.34v-5Zm9.96 8.57h-3l-3.13-6c.07 1 .11 1.67.11 2.17v3.87h-2v-8.61h3l3.12 6c0-.86-.08-1.55-.08-2.08v-3.92h2.07Zm1.85-8.57h3a5.07 5.07 0 0 1 2.6.52 1.75 1.75 0 0 1 .84 1.61 2.08 2.08 0 0 1-.36 1.23 1.7 1.7 0 0 1-1 .66v.06a2 2 0 0 1 1.16.7 2.11 2.11 0 0 1 .35 1.28 2.18 2.18 0 0 1-.87 1.83 3.83 3.83 0 0 1-2.39.68h-3.33Zm2.31 3.29h.7a1.24 1.24 0 0 0 .77-.21.72.72 0 0 0 .27-.61c0-.48-.36-.72-1.09-.72h-.65Zm0 1.69V184h.82c.72 0 1.08-.31 1.08-.92a.79.79 0 0 0-.29-.65 1.33 1.33 0 0 0-.84-.23Zm10.86 3.59h-5.09v-8.57h5.09v1.86h-2.77v1.34h2.56v1.86h-2.56v1.62h2.77Zm6.75 0-.42-1.61h-2.78l-.43 1.61h-2.55l2.8-8.61h3.09l2.83 8.61Zm-.9-3.51-.37-1.41c-.08-.31-.19-.71-.31-1.21s-.2-.85-.24-1.06l-.21 1c-.11.46-.33 1.36-.69 2.7Zm6.68.39v3.12h-2.32v-8.57h2.81q3.49 0 3.49 2.53a2.52 2.52 0 0 1-1.45 2.3l2.49 3.74h-2.62l-1.82-3.12Zm0-1.74h.43c.81 0 1.21-.36 1.21-1.07s-.39-.89-1.19-.89h-.45Z" />
    <path d="m678.9 185.77-.42-1.61h-2.79l-.43 1.61h-2.54l2.79-8.61h3.09l2.83 8.61Zm-.9-3.51-.37-1.41c-.09-.31-.19-.71-.32-1.21s-.2-.85-.24-1.06c0 .19-.1.52-.21 1s-.33 1.36-.69 2.7Zm4.36-5.06h3a5.07 5.07 0 0 1 2.6.52 1.75 1.75 0 0 1 .84 1.61 2 2 0 0 1-.37 1.23 1.64 1.64 0 0 1-1 .66v.06a2 2 0 0 1 1.16.7 2.42 2.42 0 0 1-.52 3.11 3.83 3.83 0 0 1-2.39.68h-3.33Zm2.31 3.29h.7a1.24 1.24 0 0 0 .77-.21.72.72 0 0 0 .27-.61c0-.48-.36-.72-1.09-.72h-.65Zm0 1.69V184h.81c.73 0 1.09-.31 1.09-.92a.79.79 0 0 0-.29-.65 1.38 1.38 0 0 0-.84-.23Zm5.77 3.59v-8.57h2.32v6.7h3.29v1.87Zm12.07 0h-5.08v-8.57h5.08v1.86h-2.77v1.34h2.57v1.86h-2.57v1.62h2.77Z" />
    <path d="M185.83 211.54h-69.08v-12.5h1v11.5h68.08v1zm184.35 0h-48.6v-12.5h1v11.5h47.6v1zm-110.49-1h61.71v1h-61.71zm331.15 1h-64.76v-12.5h1v11.5h63.76v1zm-114.65-1h49.71v1h-49.71zm255.13 1h-64.63v-1h63.63v-11.5h1v12.5z" />
</svg>